<?xml version="1.0" encoding="UTF-8"?>
<svg width="229px" height="54px" viewBox="0 0 229 54" version="1.1" xmlns="http://www.w3.org/2000/svg" xmlns:xlink="http://www.w3.org/1999/xlink">
    <!-- Generator: Sketch 59 (86127) - https://sketch.com -->
    <title>Doo Prime Hover</title>
    <desc>Created with Sketch.</desc>
    <defs>
        <polygon id="path-1" points="0.0124174582 0.149635904 16.1297912 0.149635904 16.1297912 16.3131313 0.0124174582 16.3131313"></polygon>
        <polygon id="path-3" points="0.0605777175 0.149635904 16.1781949 0.149635904 16.1781949 16.3131313 0.0605777175 16.3131313"></polygon>
        <polygon id="path-5" points="0 47 198 47 198 0 0 0"></polygon>
    </defs>
    <g id="Doo-Prime-Hover" stroke="none" stroke-width="1" fill="none" fill-rule="evenodd">
        <rect id="矩形" fill-opacity="0" fill="#D8D8D8" x="0" y="0" width="229" height="54"></rect>
        <g id="编组">
            <path d="M69.5329712,40.172677 C70.5803204,39.1733327 71.1038713,37.7682135 71.1038713,35.9573194 C71.1038713,34.1469202 70.5803204,32.7427907 69.5329712,31.7427041 C68.486117,30.7433598 67.0181943,30.2433165 65.1321736,30.2433165 L62.8394417,30.2433165 L62.8394417,41.6720646 L65.1321736,41.6720646 C67.0181943,41.6720646 68.486117,41.1727636 69.5329712,40.172677 M74.7402599,41.1769698 C73.9008458,42.6951616 72.6928419,43.8780943 71.1177336,44.7267576 C69.5421302,45.5756684 67.688785,46 65.5567077,46 L58,46 L58,26 L65.5567077,26 C67.7075982,26 69.5658942,26.415177 71.1318435,27.2452835 C72.6977928,28.0748952 73.9008458,29.2439721 74.7402599,30.7525144 C75.5796741,32.2615516 76,33.9964866 76,35.9573194 C76,37.9191419 75.5796741,39.6592728 74.7402599,41.1769698" id="Fill-1" fill="#F2F2F2"></path>
            <g transform="translate(77.000000, 30.000000)">
                <mask id="mask-2" fill="white">
                    <use xlink:href="#path-1"></use>
                </mask>
                <g id="Clip-4"></g>
                <path d="M5.78823986,5.33498714 C5.16663651,6.00382553 4.8557131,6.96901913 4.8557131,8.23130946 C4.8557131,9.49409412 5.16663651,10.4545915 5.78823986,11.1137903 C6.40984321,11.7734835 7.17558646,12.1029593 8.08522614,12.1029593 C8.99413538,12.1029593 9.75500905,11.7734835 10.3678471,11.1137903 C10.9797113,10.4545915 11.2864956,9.49409412 11.2864956,8.23130946 C11.2864956,6.96901913 10.9797113,6.00382553 10.3678471,5.33498714 C9.75500905,4.66614876 8.99413538,4.3314824 8.08522614,4.3314824 C7.17558646,4.3314824 6.40984321,4.66614876 5.78823986,5.33498714 M12.2187788,1.12471625 C13.4337419,1.77476982 14.3896427,2.71153903 15.0857508,3.93650689 C15.7816154,5.16073324 16.1297912,6.59208693 16.1297912,8.23130946 C16.1297912,9.87053199 15.7816154,11.3026272 15.0857508,12.5268535 C14.3896427,13.7520686 13.4337419,14.6888378 12.2187788,15.3386442 C11.0030853,15.9886977 9.62474747,16.3132302 8.08522614,16.3132302 C6.54424393,16.3132302 5.16176692,15.9886977 3.93706468,15.3386442 C2.71236243,14.6888378 1.75183552,13.7520686 1.05572742,12.5268535 C0.360349766,11.3026272 0.0124174582,9.87053199 0.0124174582,8.23130946 C0.0124174582,6.59208693 0.360349766,5.16073324 1.05572742,3.93650689 C1.75183552,2.71153903 2.71236243,1.77476982 3.93706468,1.12471625 C5.16176692,0.474909856 6.54424393,0.149635904 8.08522614,0.149635904 C9.62474747,0.149635904 11.0030853,0.474909856 12.2187788,1.12471625" id="Fill-3" fill="#F2F2F2" mask="url(#mask-2)"></path>
            </g>
            <g transform="translate(95.000000, 30.000000)">
                <mask id="mask-4" fill="white">
                    <use xlink:href="#path-3"></use>
                </mask>
                <g id="Clip-6"></g>
                <path d="M5.8366436,5.33498714 C5.21504025,6.00382553 4.90411684,6.96901913 4.90411684,8.23130946 C4.90411684,9.49409412 5.21504025,10.4545915 5.8366436,11.1137903 C6.45824695,11.7734835 7.2239902,12.1029593 8.13362988,12.1029593 C9.04253912,12.1029593 9.80341278,11.7734835 10.4162509,11.1137903 C11.028115,10.4545915 11.3348993,9.49409412 11.3348993,8.23130946 C11.3348993,6.96901913 11.028115,6.00382553 10.4162509,5.33498714 C9.80341278,4.66614876 9.04253912,4.3314824 8.13362988,4.3314824 C7.2239902,4.3314824 6.45824695,4.66614876 5.8366436,5.33498714 M12.2671826,1.12471625 C13.4821456,1.77476982 14.4380464,2.71153903 15.1341545,3.93650689 C15.8300191,5.16073324 16.1781949,6.59208693 16.1781949,8.23130946 C16.1781949,9.87053199 15.8300191,11.3026272 15.1341545,12.5268535 C14.4380464,13.7520686 13.4821456,14.6888378 12.2671826,15.3386442 C11.0514891,15.9886977 9.67315121,16.3132302 8.13362988,16.3132302 C6.59264767,16.3132302 5.21017066,15.9886977 3.98546842,15.3386442 C2.76076617,14.6888378 1.80023926,13.7520686 1.10413116,12.5268535 C0.408753505,11.3026272 0.0605777175,9.87053199 0.0605777175,8.23130946 C0.0605777175,6.59208693 0.408753505,5.16073324 1.10413116,3.93650689 C1.80023926,2.71153903 2.76076617,1.77476982 3.98546842,1.12471625 C5.21017066,0.474909856 6.59264767,0.149635904 8.13362988,0.149635904 C9.67315121,0.149635904 11.0514891,0.474909856 12.2671826,1.12471625" id="Fill-5" fill="#F2F2F2" mask="url(#mask-4)"></path>
            </g>
            <path d="M128.121634,32.5349548 C128.121634,30.7812156 127.15886,29.9036037 125.233312,29.9036037 L122.794252,29.9036037 L122.794252,35.109151 L125.233312,35.109151 C127.15886,35.109151 128.121634,34.251333 128.121634,32.5349548 L128.121634,32.5349548 Z M122.794252,38.9840535 L122.794252,46 L118,46 L118,26 L125.766443,26 C128.121634,26 129.915739,26.5898581 131.149247,27.7683372 C132.382755,28.9470637 133,30.5360187 133,32.5349548 C133,33.7792486 132.724361,34.8872119 132.173084,35.8585974 C131.621315,36.8297354 130.803718,37.5940272 129.719555,38.1499882 C128.635146,38.7059493 127.317769,38.9840535 125.766443,38.9840535 L122.794252,38.9840535 Z" id="Fill-7" fill="#F2F2F2"></path>
            <path d="M141.983592,30.851312 C142.910512,30.2838534 143.915741,30 145,30 L145,35.1914894 L143.649736,35.1914894 C142.400911,35.1914894 141.432547,35.4661621 140.743681,36.0147634 C140.055056,36.5631164 139.710503,37.4893617 139.710503,38.7944917 L139.710503,46 L135,46 L135,30.170709 L139.710503,30.170709 L139.710503,33.1491843 C140.298412,32.1849761 141.055948,31.4185224 141.983592,30.851312" id="Fill-9" fill="#F2F2F2"></path>
            <mask id="mask-6" fill="white">
                <use xlink:href="#path-5"></use>
            </mask>
            <g id="Clip-12"></g>
            <polygon id="Fill-11" fill="#F2F2F2" mask="url(#mask-6)" points="146 47 151 47 151 31 146 31"></polygon>
            <path d="M179.31189,31.8013771 C180.43713,33.0030395 181,34.6716705 181,36.8090069 L181,46 L176.137553,46 L176.137553,37.3757211 C176.137553,36.37355 175.865625,35.5939458 175.322518,35.0354196 C174.77866,34.477886 174.039424,34.1982507 173.10556,34.1982507 C172.133421,34.1982507 171.365666,34.4967434 170.803547,35.0924881 C170.240677,35.6879846 169.959492,36.5251535 169.959492,37.6032504 L169.959492,46 L165.068777,46 L165.068777,37.3757211 C165.068777,36.37355 164.801851,35.5939458 164.268,35.0354196 C163.733899,34.477886 162.999666,34.1982507 162.065803,34.1982507 C161.092913,34.1982507 160.320905,34.492029 159.749029,35.078345 C159.176903,35.664661 158.890715,36.5062961 158.890715,37.6032504 L158.890715,46 L154,46 L154,30.170709 L158.890715,30.170709 L158.890715,32.8653309 C159.309991,31.9770486 159.953664,31.2768439 160.821735,30.7662056 C161.689055,30.2558154 162.704472,30 163.867987,30 C165.088039,30 166.164997,30.2793871 167.099612,30.8371689 C168.033476,31.3954469 168.73944,32.1946529 169.216003,33.2340426 C169.769117,32.250977 170.526615,31.4664103 171.489748,30.8798462 C172.452631,30.2935302 173.51558,30 174.678844,30 C176.642385,30 178.18665,30.6012034 179.31189,31.8013771" id="Fill-13" fill="#F2F2F2" mask="url(#mask-6)"></path>
            <path d="M192.204259,35.5456686 C191.621681,35.0323572 190.901657,34.7761908 190.042936,34.7761908 C189.145911,34.7761908 188.401853,35.0372506 187.810011,35.5596146 C187.21817,36.0814894 186.884445,36.8460739 186.808838,37.8531233 L193.048209,37.8531233 C193.067236,36.8282132 192.786086,36.05898 192.204259,35.5456686 M197.857047,39.8669776 L186.779796,39.8669776 C186.837128,41.042358 187.142562,41.8864592 187.695849,42.3990366 C188.249386,42.9118587 188.955139,43.1682697 189.814111,43.1682697 C190.538891,43.1682697 191.139996,42.9911308 191.617425,42.6363636 C192.093602,42.2825751 192.40905,41.8255371 192.562018,41.2659836 L197.742884,41.2659836 C197.532335,42.3662512 197.074684,43.349568 196.368931,44.2166679 C195.662426,45.0845019 194.765902,45.7654102 193.678105,46.2589036 C192.590308,46.7536203 191.378585,47 190.042936,47 C188.478211,47 187.089987,46.6787522 185.878264,46.0352779 C184.666541,45.3920483 183.716941,44.4647603 183.030215,43.2519459 C182.342988,42.0401101 182,40.6225094 182,38.9998777 C182,37.3593853 182.338732,35.9371359 183.016195,34.7341081 C183.692907,33.5318144 184.642507,32.6086857 185.864244,31.9652114 C187.085231,31.3219818 188.478211,31 190.042936,31 C191.626688,31 193.019919,31.3170885 194.221628,31.9507761 C195.424338,32.584953 196.354661,33.4757856 197.013097,34.6225399 C197.671283,35.7692943 198,37.0887835 198,38.5802737 C198,38.9722303 197.952683,39.4016209 197.857047,39.8669776" id="Fill-14" fill="#F2F2F2" mask="url(#mask-6)"></path>
            <path d="M152,26.0001286 C152,27.6568623 150.656862,29 148.999871,29 C147.343138,29 146,27.6568623 146,26.0001286 C146,24.3433949 147.343138,23 148.999871,23 C150.656862,23 152,24.3433949 152,26.0001286" id="Fill-15" fill="#E51C1C" mask="url(#mask-6)"></path>
            <path d="M43.2514694,19.7000818 C42.1539368,20.7976086 40.3741272,20.7976086 39.2763451,19.7000818 L27.3509719,7.77477195 C26.2531898,6.67699561 26.2531898,4.89744502 27.3509719,3.79966868 C28.4487541,2.70214189 30.2285637,2.70214189 31.3260963,3.79966868 L43.2514694,15.7249785 C44.3492516,16.8227548 44.3492516,18.602555 43.2514694,19.7000818 L43.2514694,19.7000818 Z M0,0 L0,47 L23.5001248,47 L23.5001248,23.5 L47,23.5 L47,0 L0,0 Z" id="Fill-16" fill="#E51C1C" mask="url(#mask-6)"></path>
            <path d="M43.2023374,26.7974983 C42.1390289,25.7341672 40.4147189,25.7341672 39.3511687,26.7974983 L27.7976626,38.3512508 C26.7341125,39.4148237 26.7341125,41.138687 27.7976626,42.2025017 C28.8612128,43.2658328 30.5855229,43.2658328 31.6488313,42.2025017 L43.2023374,30.6487492 C44.2658875,29.5851763 44.2658875,27.8608294 43.2023374,26.7974983" id="Fill-17" fill="#E51C1C" mask="url(#mask-6)"></path>
            <polygon id="Fill-18" fill="#F2F2F2" mask="url(#mask-6)" points="65 8 62.4106316 12.8794688 62.4106316 16 61.6008291 16 61.6008291 12.8794688 59 8 59.923921 8 62 12.0282604 64.0758352 8"></polygon>
            <path d="M67.9081264,10.0624523 C67.5697894,10.2623301 67.2979409,10.5688273 67.0921094,10.9811422 C66.8860421,11.393457 66.7832443,11.9000993 66.7832443,12.5 C66.7832443,13.0999007 66.8860421,13.604138 67.0921094,14.0121774 C67.2979409,14.4210185 67.5697894,14.7248435 67.9081264,14.9247213 C68.2462276,15.1248664 68.6140365,15.2250725 69.0110814,15.2250725 C69.4008174,15.2250725 69.7627318,15.1248664 70.0975322,14.9247213 C70.4320968,14.7248435 70.7022949,14.4210185 70.9081264,14.0121774 C71.1139579,13.604138 71.2169915,13.0999007 71.2169915,12.5 C71.2169915,11.9000993 71.1139579,11.393457 70.9081264,10.9811422 C70.7022949,10.5688273 70.4320968,10.2623301 70.0975322,10.0624523 C69.7627318,9.86230722 69.4008174,9.76263552 69.0110814,9.76263552 C68.6140365,9.76263552 68.2462276,9.86230722 67.9081264,10.0624523 M70.5497485,9.41872805 C71.0019648,9.69796916 71.3565703,10.1020003 71.6140365,10.6310887 C71.8712669,11.1601771 72,11.7833257 72,12.5 C72,13.2169415 71.8712669,13.8374179 71.6140365,14.3624981 C71.3565703,14.8875783 71.0019648,15.2916094 70.5497485,15.5748588 C70.0975322,15.8583753 69.5847218,16 69.0110814,16 C68.4376768,16 67.9227444,15.8583753 67.4669915,15.5748588 C67.0110028,15.2916094 66.652625,14.8854405 66.3916221,14.3560849 C66.1306193,13.8272637 66,13.2081234 66,12.5 C66,11.7833257 66.1306193,11.1601771 66.3916221,10.6310887 C66.652625,10.1020003 67.0110028,9.69796916 67.4669915,9.41872805 C67.9227444,9.13948694 68.4376768,9 69.0110814,9 C69.5847218,9 70.0975322,9.13948694 70.5497485,9.41872805" id="Fill-19" fill="#F2F2F2" mask="url(#mask-6)"></path>
            <path d="M79,9 L79,15.8740436 L78.137477,15.8740436 L78.137477,14.1744396 C77.9649723,14.7703103 77.6526205,15.2238071 77.2009481,15.5338537 C76.7495391,15.8447076 76.2317619,16 75.6489334,16 C74.8604161,16 74.221754,15.7462032 73.7329471,15.2383406 C73.2444035,14.7304779 73,13.9852359 73,13.0034219 L73,9 L73.862523,9 L73.862523,12.9280634 C73.862523,13.6832635 74.0471425,14.2605637 74.4169081,14.6591564 C74.7864103,15.0580184 75.291546,15.2571802 75.932315,15.2571802 C76.605478,15.2571802 77.1414274,15.0367565 77.5401633,14.5961782 C77.9383724,14.1553308 78.137477,13.5069784 78.137477,12.6508516 L78.137477,9 L79,9 Z" id="Fill-20" fill="#F2F2F2" mask="url(#mask-6)"></path>
            <path d="M81.6027936,9.402899 C81.9854916,9.13429967 82.4513042,9 83,9 L83,9.95678419 L82.750656,9.95678419 C82.1804291,9.95678419 81.7074394,10.1352224 81.33215,10.4915606 C80.9566291,10.8484371 80.7688687,11.4297743 80.7688687,12.2355723 L80.7688687,16 L80,16 L80,9.1259564 L80.7688687,9.1259564 L80.7688687,10.5483486 C80.9420435,10.0534046 81.2200957,9.67122919 81.6027936,9.402899" id="Fill-21" fill="#F2F2F2" mask="url(#mask-6)"></path>
            <path d="M91.7584888,11.5574153 C92.0566714,11.2738409 92.2058824,10.8672792 92.2058824,10.3377301 C92.2058824,9.79289851 92.0566714,9.37881682 91.7584888,9.09499985 C91.460067,8.81142545 90.9715447,8.66975954 90.2931612,8.66975954 L88.7941176,8.66975954 L88.7941176,11.9831408 L90.2931612,11.9831408 C90.9715447,11.9831408 91.460067,11.8412323 91.7584888,11.5574153 L91.7584888,11.5574153 Z M88.7941176,12.6640589 L88.7941176,16 L88,16 L88,8 L90.3603539,8 C91.2474892,8 91.9093735,8.20813245 92.3457676,8.62391219 C92.7819225,9.04041966 93,9.61144971 93,10.3377301 C93,11.0790503 92.7745098,11.652021 92.3232903,12.0566421 C91.8720708,12.4617484 91.2175992,12.6640589 90.3603539,12.6640589 L88.7941176,12.6640589 Z" id="Fill-22" fill="#F2F2F2" mask="url(#mask-6)"></path>
            <path d="M95.6027936,9.402899 C95.9854916,9.13429967 96.4513042,9 97,9 L97,9.95678419 L96.750656,9.95678419 C96.1804291,9.95678419 95.7074394,10.1352224 95.33215,10.4915606 C94.9566291,10.8484371 94.7688687,11.4297743 94.7688687,12.2355723 L94.7688687,16 L94,16 L94,9.1259564 L94.7688687,9.1259564 L94.7688687,10.5483486 C94.9420435,10.0534046 95.2200957,9.67122919 95.6027936,9.402899" id="Fill-23" fill="#F2F2F2" mask="url(#mask-6)"></path>
            <path d="M98.1552511,16 L98.8445413,16 L98.8445413,9.50028276 L98.1552511,9.50028276 L98.1552511,16 Z M98.1407223,7.15497936 C98.2343296,7.05216875 98.3557493,7 98.5047738,7 C98.6535907,7 98.7733499,7.05216875 98.8640515,7.15497936 C98.954753,7.25804445 99,7.39724594 99,7.57156591 C99,7.73825143 98.954753,7.87312673 98.8640515,7.97619182 C98.7733499,8.07976588 98.6535907,8.13117118 98.5047738,8.13117118 C98.3557493,8.13117118 98.2343296,8.07976588 98.1407223,7.97619182 C98.0466999,7.87312673 98,7.73825143 98,7.57156591 C98,7.39724594 98.0466999,7.25804445 98.1407223,7.15497936 L98.1407223,7.15497936 Z" id="Fill-24" fill="#F2F2F2" mask="url(#mask-6)"></path>
            <polygon id="Fill-25" fill="#F2F2F2" mask="url(#mask-6)" points="103.01147 15.131749 105.123124 10 106 10 103.461377 16 102.538623 16 100 10 100.876876 10"></polygon>
            <path d="M108.387447,10.5060315 C107.981788,10.9934341 107.778724,11.6582684 107.778724,12.5 C107.778724,13.3417316 107.981788,14.0062987 108.387447,14.4939685 C108.793341,14.9813712 109.332656,15.2250725 110.005393,15.2250725 C110.429342,15.2250725 110.811552,15.1123072 111.15179,14.887311 C111.491559,14.6625821 111.758402,14.3435257 111.952556,13.9309437 C112.146006,13.5183616 112.243083,13.0416476 112.243083,12.5 C112.243083,11.9583524 112.146006,11.4808368 111.952556,11.0685219 C111.758402,10.6562071 111.491559,10.3374179 111.15179,10.1121545 C110.811552,9.88769278 110.429342,9.77492747 110.005393,9.77492747 C109.332656,9.77492747 108.793341,10.0186288 108.387447,10.5060315 M111.360013,9.53737212 C111.787713,9.89597648 112.082226,10.37082 112.243083,10.9621698 L112.243083,9.08737975 L113,9.08737975 L113,15.912353 L112.243083,15.912353 L112.243083,14.0372958 C112.082226,14.6294472 111.787713,15.1042907 111.360013,15.4626279 C110.932312,15.820965 110.414804,16 109.807957,16 C109.266766,16 108.78232,15.8583753 108.354619,15.5748588 C107.926919,15.2916094 107.59395,14.8854405 107.356417,14.3560849 C107.118649,13.8272637 107,13.2081234 107,12.5 C107,11.7833257 107.118649,11.1601771 107.356417,10.6310887 C107.59395,10.1020003 107.924809,9.69796916 108.348992,9.41872805 C108.773175,9.13948694 109.259497,9 109.807957,9 C110.414804,9 110.932312,9.17903497 111.360013,9.53737212" id="Fill-26" fill="#F2F2F2" mask="url(#mask-6)"></path>
            <path d="M118,15.274682 L118,16 L117.360807,16 C116.842725,16 116.455845,15.8537363 116.199958,15.5612089 C115.944491,15.2691815 115.816442,14.7758852 115.816442,14.0818202 L115.816442,10.3277182 L115,10.3277182 L115,9.61415133 L115.816442,9.61415133 L115.816442,8 L116.514929,8 L116.514929,9.61415133 L117.990118,9.61415133 L117.990118,10.3277182 L116.514929,10.3277182 L116.514929,14.0935713 C116.514929,14.5458637 116.583684,14.8556427 116.721405,15.0234084 C116.859125,15.1911742 117.101556,15.274682 117.449117,15.274682 L118,15.274682 Z" id="Fill-27" fill="#F2F2F2" mask="url(#mask-6)"></path>
            <path d="M120.942994,9.98713495 C120.607557,10.1707196 120.335152,10.451842 120.125779,10.8310365 C119.915917,11.2104982 119.803779,11.683222 119.788387,12.2500095 L124.20013,12.2500095 C124.230425,11.6917732 124.146626,11.2206528 123.948491,10.8371827 C123.750356,10.4539798 123.483814,10.1707196 123.148622,9.98713495 C122.813185,9.80408475 122.447453,9.71215881 122.051427,9.71215881 C121.647583,9.71215881 121.278187,9.80408475 120.942994,9.98713495 M123.43422,14.8124451 C123.815098,14.5043329 124.043772,14.0874594 124.119997,13.5623592 L124.965797,13.5623592 C124.85146,14.2873449 124.535323,14.8749761 124.017142,15.3249857 C123.498962,15.7749952 122.843723,16 122.051427,16 C121.457266,16 120.929557,15.8605077 120.468789,15.5815232 C120.007533,15.3022714 119.647665,14.8982249 119.388697,14.3685818 C119.129484,13.8394732 119,13.2168353 119,12.4998664 C119,11.783432 119.129484,11.1602596 119.388697,10.6308838 C119.647665,10.1020424 120.007533,9.69772857 120.468789,9.41847681 C120.929557,9.13922504 121.457266,9 122.051427,9 C122.66098,9 123.188688,9.13922504 123.634309,9.41847681 C124.080174,9.69772857 124.419032,10.0705096 124.651614,10.5373545 C124.883709,11.003932 125,11.512197 125,12.0624165 C125,12.2959725 124.984608,12.5084176 124.954314,12.6997519 L119.788387,12.6997519 C119.796205,13.2748234 119.904679,13.7560985 120.114296,14.1438442 C120.323914,14.5310555 120.596319,14.8167207 120.931512,15.0000382 C121.266705,15.1833556 121.628527,15.2750143 122.017224,15.2750143 C122.58109,15.2750143 123.053097,15.1208246 123.43422,14.8124451" id="Fill-28" fill="#F2F2F2" mask="url(#mask-6)"></path>
            <path d="M133.534925,14.9050334 C133.908546,14.6287447 134.095629,14.244997 134.095629,13.7530625 C134.095629,13.2691328 133.904189,12.8851425 133.522398,12.6015767 C133.140063,12.3177683 132.613398,12.1758642 131.942405,12.1758642 L129.904098,12.1758642 L129.904098,15.3191025 L131.968003,15.3191025 C132.638724,15.3191025 133.161031,15.1810794 133.534925,14.9050334 L133.534925,14.9050334 Z M129.904098,11.57453 L131.968003,11.57453 C132.596514,11.57453 133.074161,11.4440267 133.400944,11.18302 C133.727999,10.9217708 133.891663,10.5644633 133.891663,10.1106125 C133.891663,9.66452395 133.730177,9.31255306 133.40748,9.05542753 C133.084782,8.798302 132.5878,8.66973924 131.917079,8.66973924 L129.904098,8.66973924 L129.904098,11.57453 Z M134.47742,12.5503942 C134.825716,12.9132808 135,13.3445725 135,13.8440267 C135,14.4868405 134.753551,15.0071559 134.261199,15.4044876 C133.768302,15.8010916 133.054827,16 132.121046,16 L129,16 L129,8 L132.082649,8 C132.982935,8 133.659919,8.1797453 134.114692,8.53899333 C134.568647,8.89848393 134.796033,9.38071559 134.796033,9.98593087 C134.796033,10.5077016 134.638905,10.9261371 134.324649,11.2397817 C134.010394,11.5539115 133.606817,11.760097 133.114737,11.8580958 C133.675169,11.9565797 134.129397,12.187265 134.47742,12.5503942 L134.47742,12.5503942 Z" id="Fill-29" fill="#F2F2F2" mask="url(#mask-6)"></path>
            <path d="M137.602794,9.402899 C137.985492,9.13429967 138.451304,9 139,9 L139,9.95678419 L138.750887,9.95678419 C138.180429,9.95678419 137.707439,10.1352224 137.33215,10.4915606 C136.956629,10.8484371 136.768869,11.4297743 136.768869,12.2355723 L136.768869,16 L136,16 L136,9.1259564 L136.768869,9.1259564 L136.768869,10.5483486 C136.942044,10.0534046 137.220096,9.67122919 137.602794,9.402899" id="Fill-30" fill="#F2F2F2" mask="url(#mask-6)"></path>
            <path d="M142.908126,10.0624523 C142.569789,10.2623301 142.297705,10.5688273 142.091874,10.9811422 C141.886042,11.393457 141.783244,11.9000993 141.783244,12.5 C141.783244,13.0999007 141.886042,13.604138 142.091874,14.0121774 C142.297705,14.4210185 142.569789,14.7248435 142.908126,14.9247213 C143.246228,15.1248664 143.614036,15.2250725 144.011081,15.2250725 C144.400817,15.2250725 144.762732,15.1248664 145.097296,14.9247213 C145.431861,14.7248435 145.702059,14.4210185 145.908126,14.0121774 C146.113958,13.604138 146.216756,13.0999007 146.216756,12.5 C146.216756,11.9000993 146.113958,11.393457 145.908126,10.9811422 C145.702059,10.5688273 145.431861,10.2623301 145.097296,10.0624523 C144.762732,9.86230722 144.400817,9.76263552 144.011081,9.76263552 C143.614036,9.76263552 143.246228,9.86230722 142.908126,10.0624523 M145.549749,9.41872805 C146.001729,9.69796916 146.356334,10.1020003 146.614036,10.6310887 C146.871267,11.1601771 147,11.7833257 147,12.5 C147,13.2169415 146.871267,13.8374179 146.614036,14.3624981 C146.356334,14.8875783 146.001729,15.2916094 145.549749,15.5748588 C145.097296,15.8583753 144.584486,16 144.011081,16 C143.437441,16 142.922744,15.8583753 142.466992,15.5748588 C142.011003,15.2916094 141.652625,14.8854405 141.391622,14.3560849 C141.130384,13.8272637 141,13.2081234 141,12.5 C141,11.7833257 141.130384,11.1601771 141.391622,10.6310887 C141.652625,10.1020003 142.011003,9.69796916 142.466992,9.41872805 C142.922744,9.13948694 143.437441,9 144.011081,9 C144.584486,9 145.097296,9.13948694 145.549749,9.41872805" id="Fill-31" fill="#F2F2F2" mask="url(#mask-6)"></path>
            <polygon id="Fill-32" fill="#F2F2F2" mask="url(#mask-6)" points="152.057586 16 149.74341 12.9594419 149.74341 16 149 16 149 7 149.74341 7 149.74341 12.2782737 152.015726 9.35964988 152.926801 9.35964988 150.298338 12.6432966 153 16"></polygon>
            <path d="M154.942994,9.98713495 C154.607557,10.1707196 154.335396,10.451842 154.125779,10.8310365 C153.916161,11.2104982 153.803779,11.683222 153.788631,12.2500095 L158.20013,12.2500095 C158.230425,11.6917732 158.146626,11.2206528 157.948736,10.8371827 C157.750356,10.4539798 157.483814,10.1707196 157.148622,9.98713495 C156.813429,9.80408475 156.447697,9.71215881 156.051427,9.71215881 C155.647583,9.71215881 155.278187,9.80408475 154.942994,9.98713495 M157.434464,14.8124451 C157.815098,14.5043329 158.043772,14.0874594 158.119997,13.5623592 L158.965797,13.5623592 C158.85146,14.2873449 158.535323,14.8749761 158.017142,15.3249857 C157.498962,15.7749952 156.843723,16 156.051427,16 C155.457266,16 154.929557,15.8605077 154.468789,15.5815232 C154.007533,15.3022714 153.647665,14.8982249 153.388697,14.3685818 C153.129484,13.8394732 153,13.2168353 153,12.4998664 C153,11.783432 153.129484,11.1602596 153.388697,10.6308838 C153.647665,10.1020424 154.007533,9.69772857 154.468789,9.41847681 C154.929557,9.13922504 155.457266,9 156.051427,9 C156.66098,9 157.188688,9.13922504 157.634554,9.41847681 C158.080174,9.69772857 158.419032,10.0705096 158.651614,10.5373545 C158.883953,11.003932 159,11.512197 159,12.0624165 C159,12.2959725 158.984608,12.5084176 158.954314,12.6997519 L153.788631,12.6997519 C153.796205,13.2748234 153.904679,13.7560985 154.114296,14.1438442 C154.323914,14.5310555 154.596319,14.8167207 154.931512,15.0000382 C155.266705,15.1833556 155.628527,15.2750143 156.017224,15.2750143 C156.58109,15.2750143 157.053341,15.1208246 157.434464,14.8124451" id="Fill-33" fill="#F2F2F2" mask="url(#mask-6)"></path>
            <path d="M162.602794,9.402899 C162.985492,9.13429967 163.451304,9 164,9 L164,9.95678419 L163.750656,9.95678419 C163.180429,9.95678419 162.707439,10.1352224 162.33215,10.4915606 C161.956629,10.8484371 161.768869,11.4297743 161.768869,12.2355723 L161.768869,16 L161,16 L161,9.1259564 L161.768869,9.1259564 L161.768869,10.5483486 C161.942044,10.0534046 162.220096,9.67122919 162.602794,9.402899" id="Fill-34" fill="#F2F2F2" mask="url(#mask-6)"></path>
        </g>
    </g>
</svg>