<?xml version="1.0" encoding="UTF-8"?>
<svg width="229px" height="54px" viewBox="0 0 229 54" version="1.1" xmlns="http://www.w3.org/2000/svg" xmlns:xlink="http://www.w3.org/1999/xlink">
    <!-- Generator: Sketch 59 (86127) - https://sketch.com -->
    <title>Doo Clearing</title>
    <desc>Created with Sketch.</desc>
    <defs>
        <polygon id="path-1" points="0 53 204.824042 53 204.824042 0.142245161 0 0.142245161"></polygon>
    </defs>
    <g id="Doo-Clearing" stroke="none" stroke-width="1" fill="none" fill-rule="evenodd">
        <rect id="矩形" fill-opacity="0" fill="#D8D8D8" x="0" y="0" width="229" height="54"></rect>
        <g id="编组" opacity="0.600000024" transform="translate(12.000000, 0.000000)">
            <polygon id="Fill-1" fill="#FFFFFF" points="2 39.8845301 5.35448444 39.8845301 5.35448444 49 6.62883872 49 6.62883872 39.8845301 10 39.8845301 10 39 2 39"></polygon>
            <g>
                <path d="M14.2510192,41.4379987 C13.5796442,41.4379987 12.9742108,41.6161471 12.4521442,41.9669729 C11.9949942,42.2747148 11.6574275,42.708631 11.4466192,43.2591471 L11.4466192,38.8437342 L10.3635358,38.8437342 L10.3635358,49.3613277 L11.4466192,49.3613277 L11.4466192,45.231089 C11.4466192,44.2866632 11.6728025,43.5634697 12.1190192,43.0806568 C12.5642108,42.5985277 13.1723775,42.3537019 13.9267775,42.3537019 C14.6446192,42.3537019 15.2175942,42.5745923 15.6296442,43.01056 C16.0434025,43.4465277 16.2528442,44.0842374 16.2528442,44.9065923 L16.2528442,49.3613277 L17.3079108,49.3613277 L17.3079108,44.8361535 C17.3079108,43.7289665 17.0215942,42.8768632 16.4575025,42.3034374 C15.8934108,41.7289858 15.1509692,41.4379987 14.2510192,41.4379987" id="Fill-2" fill="#FFFFFF"></path>
                <path d="M25.7095283,45.1472123 L20.3528783,45.1472123 C20.37577,44.5378832 20.5127783,44.0208768 20.7604867,43.6091865 C21.0129783,43.1909994 21.346445,42.8757348 21.75132,42.673309 C22.1565367,42.4705413 22.6099283,42.3679606 23.099195,42.3679606 C23.5792367,42.3679606 24.0281867,42.4705413 24.4330617,42.6729671 C24.8358867,42.874709 25.1621783,43.1923671 25.4027117,43.6156832 C25.63607,44.0307929 25.7392533,44.5457477 25.7095283,45.1472123 L25.7095283,45.1472123 Z M26.71847,45.7028574 C26.7560533,45.4870961 26.7755283,45.2429542 26.7755283,44.9769284 C26.7755283,44.3518703 26.629295,43.7664768 26.3409283,43.2368187 C26.05222,42.7064768 25.6251367,42.2763219 25.0709533,41.95798 C24.5184783,41.6410058 23.8549617,41.4802961 23.099195,41.4802961 C22.363245,41.4802961 21.70007,41.6410058 21.12812,41.9576381 C20.55412,42.2763219 20.1003867,42.7420381 19.7795617,43.3421348 C19.4580533,43.9446252 19.2950783,44.66098 19.2950783,45.4706832 C19.2950783,46.2807284 19.4580533,46.9967413 19.7795617,47.5982058 C20.1003867,48.1989865 20.55412,48.6647026 21.12812,48.9827026 C21.70007,49.2996768 22.363245,49.4603865 23.099195,49.4603865 C24.0804617,49.4603865 24.9049033,49.2008574 25.5492867,48.68898 C26.1929867,48.1777865 26.59137,47.5004123 26.7335033,46.6763477 L26.7417033,46.6277929 L25.61352,46.6277929 L25.6080533,46.6626703 C25.51717,47.2412252 25.23837,47.7065994 24.7795117,48.0457994 C24.3192867,48.3860252 23.73982,48.5587026 23.0568283,48.5587026 C22.5863533,48.5587026 22.1425283,48.4561219 21.7373117,48.2533542 C21.3324367,48.0512703 20.9993117,47.7319026 20.74682,47.3037994 C20.4994533,46.8849284 20.3668867,46.3580058 20.352195,45.737051 L26.71232,45.737051 L26.71847,45.7028574 Z" id="Fill-4" fill="#FFFFFF"></path>
                <path d="M33.9187192,40.2522348 L35.7664525,40.2522348 C36.6055858,40.2522348 37.2164858,40.42628 37.5827525,40.7695832 C37.9483358,41.1125445 38.1335192,41.6220284 38.1335192,42.2840155 C38.1335192,42.9268542 37.9483358,43.4264219 37.5827525,43.7690413 C37.2164858,44.1123445 36.6055858,44.2863897 35.7664525,44.2863897 L33.9187192,44.2863897 L33.9187192,40.2522348 Z M35.8508442,39.3378994 L32.8356358,39.3378994 L32.8356358,49.3613961 L33.9187192,49.3613961 L33.9187192,45.2161123 L35.8508442,45.2161123 C36.9356358,45.2161123 37.7764775,44.9589768 38.3504775,44.4515445 C38.9255025,43.9427445 39.2169442,43.2133961 39.2169442,42.2840155 C39.2169442,41.3727574 38.9354108,40.6461445 38.3795192,40.124009 C37.8243108,39.6022155 36.9735608,39.3378994 35.8508442,39.3378994 L35.8508442,39.3378994 Z" id="Fill-6" fill="#FFFFFF"></path>
                <path d="M43.1548917,41.8953032 L43.1548917,41.8953032 C42.7069667,42.1668 42.3639333,42.5439548 42.1333083,43.0189032 L42.1333083,41.5790129 L41.050225,41.5790129 L41.050225,49.3614645 L42.1333083,49.3614645 L42.1333083,45.1040258 C42.1333083,44.2187548 42.3748667,43.5724968 42.8514917,43.1833742 C43.3294833,42.7922 43.94175,42.5938774 44.6708667,42.5938774 L45.0357667,42.5938774 L45.0357667,41.4381355 L44.9940833,41.4381355 C44.2776083,41.4381355 43.65885,41.5916645 43.1548917,41.8953032" id="Fill-8" fill="#FFFFFF"></path>
                <mask id="mask-2" fill="white">
                    <use xlink:href="#path-1"></use>
                </mask>
                <g id="Clip-11"></g>
                <polygon id="Fill-10" fill="#FFFFFF" mask="url(#mask-2)" points="46.6163167 49.3614645 47.6994 49.3614645 47.6994 41.5790129 46.6163167 41.5790129"></polygon>
                <path d="M47.1644867,38.6180226 C46.9389867,38.6180226 46.752095,38.6833323 46.608595,38.8122419 C46.46407,38.9414935 46.3906117,39.1182742 46.3906117,39.3371129 C46.3906117,39.5467194 46.46407,39.718371 46.6082533,39.8465968 C46.75107,39.9755065 46.9379617,40.0408161 47.1644867,40.0408161 C47.3899867,40.0408161 47.57517,39.9755065 47.71457,39.8462548 C47.8546533,39.7166613 47.9253783,39.5450097 47.9253783,39.3371129 C47.9253783,39.1196419 47.8546533,38.9432032 47.7142283,38.8125839 C47.574145,38.6833323 47.3889617,38.6180226 47.1644867,38.6180226" id="Fill-12" fill="#FFFFFF" mask="url(#mask-2)"></path>
                <path d="M53.9976492,41.4379987 C53.3259325,41.4379987 52.7204992,41.6161471 52.1987742,41.9669729 C51.7412825,42.2747148 51.4040575,42.708631 51.1932492,43.2591471 L51.1932492,41.5792181 L50.1098242,41.5792181 L50.1098242,49.3613277 L51.1932492,49.3613277 L51.1932492,45.231089 C51.1932492,44.2866632 51.4194325,43.5634697 51.8653075,43.0806568 C52.3104992,42.5985277 52.9186658,42.3537019 53.6734075,42.3537019 C54.3912492,42.3537019 54.9642242,42.5745923 55.3762742,43.01056 C55.7896908,43.4465277 55.9994742,44.0845794 55.9994742,44.9065923 L55.9994742,49.3613277 L57.0541992,49.3613277 L57.0541992,44.8361535 C57.0541992,43.7289665 56.7678825,42.8768632 56.2041325,42.3034374 C55.6396992,41.7289858 54.8972575,41.4379987 53.9976492,41.4379987" id="Fill-13" fill="#FFFFFF" mask="url(#mask-2)"></path>
                <path d="M61.4780992,42.7571516 C61.8870742,42.5362613 62.3425158,42.4244484 62.8314408,42.4244484 C63.5045242,42.4244484 64.0788658,42.5995194 64.5397742,42.9445323 C64.9986325,43.2892032 65.2822158,43.7665452 65.3826658,44.3628806 L65.3884742,44.3977581 L66.5009408,44.3977581 L66.4930825,44.3495452 C66.3509492,43.4871839 65.9501742,42.7858742 65.3023742,42.2657903 C64.6538908,41.7446806 63.8273992,41.4803645 62.8457908,41.4803645 C62.1094992,41.4803645 61.4463242,41.6410742 60.8743742,41.9577065 C60.3003742,42.2763903 59.8469825,42.7421065 59.5258158,43.3422032 C59.2046492,43.9446935 59.0416742,44.6610484 59.0416742,45.4707516 C59.0416742,46.2807968 59.2046492,46.9968097 59.5258158,47.5982742 C59.8466408,48.1990548 60.3003742,48.664771 60.8743742,48.982771 C61.4463242,49.2997452 62.1094992,49.4604548 62.8457908,49.4604548 C63.8277408,49.4604548 64.6542325,49.1961387 65.3023742,48.675371 C65.9505158,48.1546032 66.3509492,47.4532935 66.4930825,46.5912742 L66.5009408,46.5430613 L65.3884742,46.5430613 L65.3826658,46.5779387 C65.2818742,47.1756419 64.9982908,47.6526419 64.5397742,47.9959452 C64.0781825,48.3423258 63.5034992,48.5173968 62.8314408,48.5173968 C62.3418325,48.5173968 61.8863908,48.4052419 61.4780992,48.1833258 C61.0677575,47.9624355 60.7370242,47.6194742 60.4940992,47.1643581 C60.2498075,46.7061645 60.1257825,46.1365 60.1257825,45.4707516 C60.1257825,44.8043194 60.2498075,44.2343129 60.4940992,43.7761194 C60.7377075,43.3206613 61.0687825,42.9777 61.4780992,42.7571516" id="Fill-14" fill="#FFFFFF" mask="url(#mask-2)"></path>
                <polygon id="Fill-15" fill="#FFFFFF" mask="url(#mask-2)" points="68.5383333 49.3614645 69.6217583 49.3614645 69.6217583 41.5790129 68.5383333 41.5790129"></polygon>
                <path d="M69.0875283,38.6180226 C68.8620283,38.6180226 68.6751367,38.6833323 68.5316367,38.8122419 C68.3864283,38.9421774 68.31297,39.1189581 68.31297,39.3371129 C68.31297,39.5460355 68.3864283,39.7176871 68.5316367,39.8465968 C68.6741117,39.9755065 68.8610033,40.0408161 69.0875283,40.0408161 C69.3137117,40.0408161 69.4985533,39.9755065 69.636245,39.8462548 C69.7763283,39.718029 69.847395,39.5463774 69.847395,39.3371129 C69.847395,39.1186161 69.7763283,38.9418355 69.636245,38.8125839 C69.4971867,38.6833323 69.312345,38.6180226 69.0875283,38.6180226" id="Fill-16" fill="#FFFFFF" mask="url(#mask-2)"></path>
                <path d="M78.740295,45.4707516 C78.740295,46.4038935 78.48302,47.1510226 77.9759867,47.6912806 C77.4689533,48.229829 76.7770783,48.5030355 75.9208617,48.5030355 C75.3868367,48.5030355 74.8982533,48.3768613 74.4687783,48.1279323 C74.04067,47.8786613 73.7027617,47.5213387 73.4639367,47.0658806 C73.223745,46.6073452 73.1021117,46.0708484 73.1021117,45.4707516 C73.1021117,44.8703129 73.223745,44.3334742 73.4639367,43.8749387 C73.70242,43.4191387 74.04067,43.0618161 74.4687783,42.8128871 C74.8992783,42.5643 75.38752,42.4384677 75.9208617,42.4384677 C76.7777617,42.4384677 77.4696367,42.7116742 77.9759867,43.2505645 C78.4833617,43.7897968 78.740295,44.5372677 78.740295,45.4707516 M78.076095,41.9580484 C77.53182,41.6410742 76.8966617,41.4803645 76.1883867,41.4803645 C75.3943533,41.4803645 74.7127283,41.6872355 74.1629867,42.0951645 C73.678845,42.4541968 73.3228283,42.9229903 73.1021117,43.4906032 L73.1021117,41.5791839 L72.0330367,41.5791839 L72.0330367,53.000171 L73.1021117,53.000171 L73.1021117,47.4498742 C73.3228283,48.017829 73.678845,48.4866226 74.162645,48.8453129 C74.7113617,49.2535839 75.3929867,49.4601129 76.1883867,49.4601129 C76.8894867,49.4601129 77.5222533,49.2970097 78.0696033,48.9749065 C78.61832,48.6534871 79.05292,48.1853774 79.3611033,47.5839129 C79.66792,46.9831323 79.8233783,46.2722484 79.8233783,45.4707516 C79.8233783,44.6607065 79.66792,43.9446935 79.3611033,43.3428871 C79.05292,42.7421065 78.62037,42.2763903 78.076095,41.9580484" id="Fill-17" fill="#FFFFFF" mask="url(#mask-2)"></path>
                <path d="M87.8676808,43.8752806 C88.1119725,44.3334742 88.2359975,44.8703129 88.2359975,45.4707516 C88.2359975,46.0708484 88.1119725,46.6073452 87.8676808,47.0655387 C87.6233892,47.5216806 87.2820642,47.8793452 86.8542975,48.1279323 C86.4268725,48.3768613 85.9386308,48.5030355 85.4035808,48.5030355 C84.5559058,48.5030355 83.8671058,48.229829 83.3552892,47.6912806 C82.8441558,47.1520484 82.5848308,46.4045774 82.5848308,45.4707516 C82.5848308,44.5359 82.8441558,43.788771 83.3552892,43.2505645 C83.8664225,42.7116742 84.5552225,42.4384677 85.4035808,42.4384677 C85.9376058,42.4384677 86.4258475,42.5643 86.8542975,42.8128871 C87.2820642,43.0611323 87.6233892,43.4191387 87.8676808,43.8752806 L87.8676808,43.8752806 Z M88.2359975,43.4906032 C88.0149392,42.9229903 87.6565308,42.4541968 87.1686308,42.0951645 L87.1686308,42.0951645 C86.6120558,41.6872355 85.9328225,41.4803645 85.1493808,41.4803645 C84.4411058,41.4803645 83.8038975,41.6410742 83.2555225,41.9580484 C82.7054392,42.2763903 82.2708392,42.7424484 81.9640225,43.3428871 C81.6572058,43.9423 81.5017475,44.6583129 81.5017475,45.4707516 C81.5017475,46.2743 81.6572058,46.9851839 81.9640225,47.5839129 C82.2711808,48.1853774 82.7078308,48.6534871 83.2620142,48.9752484 C83.8134642,49.2970097 84.4489642,49.4604548 85.1493808,49.4604548 C85.9338475,49.4604548 86.6134225,49.2535839 87.1686308,48.8453129 C87.6565308,48.4866226 88.0145975,48.017829 88.2359975,47.4498742 L88.2359975,49.3612935 L89.2917475,49.3612935 L89.2917475,41.5791839 L88.2359975,41.5791839 L88.2359975,43.4906032 Z" id="Fill-18" fill="#FFFFFF" mask="url(#mask-2)"></path>
                <polygon id="Fill-19" fill="#FFFFFF" mask="url(#mask-2)" points="91.7012833 49.3614645 92.7843667 49.3614645 92.7843667 38.843871 91.7012833 38.843871"></polygon>
                <path d="M100.294132,43.7792994 L100.294132,40.2522348 L102.479432,40.2522348 C103.207865,40.2522348 103.753507,40.410209 104.100298,40.7217123 C104.445723,41.0308219 104.620998,41.4613187 104.620998,42.0015768 C104.620998,42.551751 104.443332,42.9894284 104.09244,43.3026413 C103.740523,43.6189316 103.21709,43.7792994 102.535807,43.7792994 L100.294132,43.7792994 Z M104.846498,46.5281187 C104.846498,47.1230865 104.643207,47.5939316 104.242432,47.9266348 L104.24209,47.9269768 C103.839265,48.2624155 103.264923,48.4326994 102.535807,48.4326994 L100.294132,48.4326994 L100.294132,44.6091768 L102.507448,44.6091768 C103.234515,44.6091768 103.81364,44.7839058 104.228082,45.1282348 C104.638765,45.4708542 104.846498,45.9416994 104.846498,46.5281187 L104.846498,46.5281187 Z M103.98174,44.1704735 C104.458365,44.0343832 104.858115,43.7861381 105.173132,43.4318929 C105.526073,43.0352477 105.705448,42.5018284 105.705448,41.84668 C105.705448,41.0858735 105.447148,40.4703897 104.937382,40.018009 C104.429665,39.5666542 103.664332,39.3378994 102.662565,39.3378994 L99.2110483,39.3378994 L99.2110483,49.3613961 L102.704932,49.3613961 C103.744282,49.3613961 104.550273,49.1087058 105.100698,48.6105058 C105.651465,48.1109381 105.930948,47.4479252 105.930948,46.6409574 C105.930948,46.01248 105.732782,45.4626477 105.34294,45.0061639 C104.989315,44.59208 104.532165,44.311351 103.98174,44.1704735 L103.98174,44.1704735 Z" id="Fill-20" fill="#FFFFFF" mask="url(#mask-2)"></path>
                <path d="M113.93777,45.1472123 L108.58112,45.1472123 C108.604012,44.5378832 108.74102,44.0208768 108.98907,43.6091865 C109.24122,43.1909994 109.574345,42.8760768 109.979562,42.673309 C110.384778,42.4705413 110.83817,42.3679606 111.327437,42.3679606 C111.807478,42.3679606 112.256087,42.4705413 112.661303,42.6729671 C113.064128,42.874709 113.390078,43.1923671 113.630953,43.6156832 C113.864312,44.0307929 113.967495,44.5457477 113.93777,45.1472123 L113.93777,45.1472123 Z M114.946712,45.7028574 C114.984295,45.4870961 115.00377,45.2429542 115.00377,44.9769284 C115.00377,44.3522123 114.857195,43.7664768 114.56917,43.2368187 C114.280462,42.7064768 113.853378,42.2763219 113.299195,41.95798 C112.74672,41.6410058 112.083203,41.4802961 111.327437,41.4802961 C110.591487,41.4802961 109.928312,41.6410058 109.35602,41.9576381 C108.782362,42.2763219 108.328628,42.7420381 108.007803,43.3421348 C107.686295,43.9446252 107.52332,44.66098 107.52332,45.4706832 C107.52332,46.2807284 107.686295,46.9967413 108.007803,47.5982058 C108.328628,48.1989865 108.78202,48.6647026 109.35602,48.9827026 C109.928312,49.2996768 110.591487,49.4603865 111.327437,49.4603865 C112.308703,49.4603865 113.133145,49.2008574 113.777187,48.68898 C114.421228,48.1774445 114.819612,47.5004123 114.961745,46.6763477 L114.969945,46.6277929 L113.841762,46.6277929 L113.836295,46.6626703 C113.745412,47.2412252 113.46627,47.7065994 113.007753,48.0457994 C112.547528,48.3860252 111.968062,48.5587026 111.28507,48.5587026 C110.814595,48.5587026 110.37077,48.4561219 109.965553,48.2533542 C109.560678,48.0512703 109.227553,47.7319026 108.975062,47.3037994 C108.727695,46.8849284 108.595128,46.3580058 108.580437,45.737051 L114.940562,45.737051 L114.946712,45.7028574 Z" id="Fill-21" fill="#FFFFFF" mask="url(#mask-2)"></path>
                <path d="M123.143432,42.303369 C122.577973,41.7289174 121.83519,41.4379303 120.936265,41.4379303 C120.265232,41.4379303 119.66014,41.6160787 119.138415,41.9672465 C118.68024,42.2753303 118.342332,42.7092465 118.131523,43.2594206 L118.131523,38.8436658 L117.04844,38.8436658 L117.04844,49.3616013 L118.131523,49.3616013 L118.131523,45.2310206 C118.131523,44.2865948 118.357707,43.5634013 118.803923,43.0805884 C119.248773,42.5984594 119.857623,42.3536335 120.612707,42.3536335 C121.330548,42.3536335 121.903865,42.5745239 122.315573,43.0104916 C122.728648,43.4457755 122.937748,44.0838271 122.937748,44.9065239 L122.937748,49.3616013 L123.992815,49.3616013 L123.992815,44.8360852 C123.992815,43.7295819 123.70684,42.8774787 123.143432,42.303369 Z" id="Fill-22" fill="#FFFFFF" mask="url(#mask-2)"></path>
                <path d="M126.896913,38.6180226 C126.672097,38.6180226 126.484522,38.6833323 126.339997,38.8119 L126.339997,38.8122419 C126.195472,38.9414935 126.122013,39.1182742 126.122013,39.3371129 C126.122013,39.5467194 126.195472,39.718371 126.339997,39.8465968 C126.483497,39.9755065 126.67073,40.0408161 126.896913,40.0408161 C127.12173,40.0408161 127.306572,39.9755065 127.44563,39.8462548 C127.585713,39.718029 127.656438,39.5463774 127.656438,39.3371129 C127.656438,39.1186161 127.585713,38.9418355 127.44563,38.8125839 C127.305547,38.6833323 127.120705,38.6180226 126.896913,38.6180226" id="Fill-23" fill="#FFFFFF" mask="url(#mask-2)"></path>
                <polygon id="Fill-24" fill="#FFFFFF" mask="url(#mask-2)" points="126.34765 49.3614645 127.430733 49.3614645 127.430733 41.5790129 126.34765 41.5790129"></polygon>
                <path d="M133.729939,41.4379987 C133.058223,41.4379987 132.453131,41.6161471 131.931406,41.9669729 C131.473914,42.274031 131.136347,42.7079471 130.925539,43.2591471 L130.925539,41.5792181 L129.842456,41.5792181 L129.842456,49.3613277 L130.925539,49.3613277 L130.925539,45.231089 C130.925539,44.2866632 131.151723,43.5631277 131.597939,43.0806568 C132.042789,42.5985277 132.650956,42.3537019 133.405698,42.3537019 C134.123539,42.3537019 134.696856,42.5745923 135.108564,43.01056 C135.522323,43.4475535 135.731764,44.0856052 135.731764,44.9065923 L135.731764,49.3613277 L136.786831,49.3613277 L136.786831,44.8361535 C136.786831,43.7303342 136.500514,42.877889 135.936423,42.3034374 C135.371989,41.7289858 134.629889,41.4379987 133.729939,41.4379987" id="Fill-25" fill="#FFFFFF" mask="url(#mask-2)"></path>
                <path d="M145.509581,45.4707516 C145.509581,46.0708484 145.385556,46.6073452 145.141264,47.0655387 C144.896972,47.5216806 144.555647,47.8793452 144.127881,48.1279323 C143.700456,48.3768613 143.212214,48.5030355 142.676822,48.5030355 C141.829489,48.5030355 141.140347,48.229829 140.628872,47.6912806 C140.117739,47.1520484 139.858414,46.4045774 139.858414,45.4707516 C139.858414,44.5359 140.117739,43.788771 140.628872,43.2505645 C141.139664,42.7116742 141.829147,42.4384677 142.676822,42.4384677 C143.210847,42.4384677 143.699431,42.5643 144.127881,42.8128871 C144.555647,43.0611323 144.896972,43.4191387 145.141264,43.8752806 C145.385556,44.3334742 145.509581,44.8703129 145.509581,45.4707516 L145.509581,45.4707516 Z M145.495231,38.8437 L145.495231,43.4823968 C145.281689,42.9185452 144.928064,42.452829 144.442214,42.0951645 L144.442214,42.0951645 C143.885639,41.6872355 143.206406,41.4803645 142.422964,41.4803645 C141.714689,41.4803645 141.077481,41.6410742 140.529106,41.9580484 C139.979023,42.2763903 139.544764,42.7424484 139.237264,43.3428871 C138.930789,43.9426419 138.775331,44.6583129 138.775331,45.4707516 C138.775331,46.2739581 138.930789,46.9848419 139.237264,47.5839129 C139.544764,48.1853774 139.981414,48.6534871 140.535598,48.9752484 C141.087389,49.2970097 141.722206,49.4601129 142.422964,49.4601129 C143.207772,49.4601129 143.887006,49.2535839 144.442214,48.8453129 C144.928064,48.4883323 145.281347,48.0222742 145.495231,47.4580806 L145.495231,49.3612935 L146.565672,49.3612935 L146.565672,38.8437 L145.495231,38.8437 Z" id="Fill-26" fill="#FFFFFF" mask="url(#mask-2)"></path>
                <path d="M7.75836167,20.7901219 C7.63775333,20.2310574 7.576595,19.3970768 7.576595,18.3110897 L7.576595,1.7049929 L9.44653667,1.7049929 C10.8856367,1.7049929 12.0848867,1.83356065 13.0097783,2.08693484 C14.6989783,2.55914774 16.1739533,3.53981871 17.3937033,5.00227677 C18.2752033,6.06090903 18.9626367,7.31444452 19.4375533,8.72800581 C19.9128117,10.1446445 20.1536867,11.6594187 20.1536867,13.2309542 C20.1536867,14.646909 19.9548367,16.0013155 19.562945,17.2558768 C19.171395,18.5077026 18.5936367,19.6340381 17.8443617,20.6047929 C17.08962,21.6011929 16.2231533,22.3305413 15.26922,22.7723219 C14.3122117,23.2154703 13.1416617,23.4401219 11.7907117,23.4401219 C10.2327117,23.4401219 9.09667,23.0181735 8.41402,22.1848768 C8.09627,21.8032768 7.87555333,21.3337994 7.75836167,20.7901219 M19.5123783,2.96399935 C17.8416283,1.78124452 15.7813783,1.08950903 13.3897117,0.90794129 C12.8242533,0.862805806 11.4975617,0.839554194 9.44653667,0.839554194 L-0.000205,0.839554194 L-0.000205,1.56103806 L0.161745,1.56992839 C1.18708667,1.62395419 1.97018667,1.87185742 2.48883667,2.30577355 C2.89815333,2.65249613 3.17763667,3.10043161 3.31942833,3.63692839 C3.46668667,4.19394129 3.54151167,5.09357355 3.54151167,6.31052194 L3.54151167,18.7497929 C3.54151167,19.87818 3.47796167,20.7258381 3.35222833,21.2681477 C3.230595,21.7923348 3.00372833,22.2279606 2.67880333,22.5640832 C2.38360333,22.8701155 2.04740333,23.0947671 1.67977,23.2315413 C1.30427833,23.370709 0.793828333,23.4582445 0.162086667,23.4907284 L-0.000205,23.4992768 L-0.000205,24.2207606 L12.6342867,24.2207606 C14.089445,24.2207606 15.5353783,24.0891155 16.9324533,23.8295865 C18.8252867,23.4760252 20.4277033,22.6362316 21.694945,21.3334574 C22.59592,20.4092058 23.3096617,19.2329477 23.8160117,17.837851 C24.320995,16.4471994 24.5769033,14.9481542 24.5769033,13.3827735 C24.5769033,11.2395219 24.128295,9.22962516 23.2440617,7.40881871 C22.3584617,5.58527677 21.1031783,4.08965097 19.5123783,2.96399935" id="Fill-27" fill="#FFFFFF" mask="url(#mask-2)"></path>
                <path d="M32.6980125,11.9243503 C33.5815625,10.6424342 34.6407292,9.99241484 35.8461292,9.99241484 C37.1198625,9.99241484 38.2142208,10.6096084 39.0970875,11.8258729 C39.5675625,12.4820471 39.9478375,13.2794406 40.2280042,14.1958277 C40.5081708,15.1135826 40.6503042,16.0350987 40.6503042,16.9357568 C40.6503042,17.803931 40.5163708,18.7158729 40.2522625,19.6455955 C39.9888375,20.5722406 39.6396542,21.3518535 39.2132542,21.9639181 C38.8135042,22.5469181 38.3324375,23.0064794 37.7833792,23.3292665 C37.2391042,23.6493181 36.6722792,23.8113955 36.0993042,23.8113955 C34.7391292,23.8113955 33.5672125,23.071789 32.6166958,21.6137761 C31.7618458,20.2880923 31.3282708,18.64646 31.3282708,16.733331 C31.3282708,14.8448213 31.7888375,13.2271245 32.6980125,11.9243503 M35.9978292,9.27913742 C33.6775708,9.27913742 31.6555875,10.171589 29.9879125,11.9318729 C28.6140708,13.3871503 27.9174125,15.0677632 27.9174125,16.9272084 C27.9174125,17.8227374 28.0889292,18.7073245 28.4271792,19.5560084 C28.7644042,20.4036665 29.2546958,21.1822535 29.8847292,21.8698858 C31.4963708,23.6315374 33.5532042,24.5246729 35.9978292,24.5246729 C38.4424542,24.5246729 40.4938208,23.6311955 42.0945292,21.8695439 C43.3996958,20.4371761 44.0615042,18.7801568 44.0615042,16.9439632 C44.0615042,15.08486 43.3651875,13.3987761 41.9913458,11.9322148 C40.3349458,10.171931 38.3184292,9.27913742 35.9978292,9.27913742" id="Fill-28" fill="#FFFFFF" mask="url(#mask-2)"></path>
                <path d="M51.9678417,11.9243503 C52.8513917,10.6424342 53.9105583,9.99241484 55.1159583,9.99241484 C56.3896917,9.99241484 57.48405,10.6096084 58.3669167,11.8258729 C58.8373917,12.4820471 59.2176667,13.2794406 59.4978333,14.1958277 C59.778,15.1135826 59.9201333,16.0350987 59.9201333,16.9357568 C59.9201333,17.803931 59.7862,18.7158729 59.5220917,19.6455955 C59.2586667,20.5722406 58.9094833,21.3518535 58.4830833,21.9639181 C58.0833333,22.5469181 57.6022667,23.0064794 57.0532083,23.3292665 C56.5089333,23.6493181 55.9421083,23.8113955 55.3691333,23.8113955 C54.0089583,23.8113955 52.8370417,23.071789 51.886525,21.6137761 C51.031675,20.2880923 50.5981,18.64646 50.5981,16.733331 C50.5981,14.8448213 51.0586667,13.2271245 51.9678417,11.9243503 M55.2676583,9.27913742 C52.9474,9.27913742 50.9254167,10.171589 49.2577417,11.9318729 C47.8839,13.3871503 47.1872417,15.0677632 47.1872417,16.9272084 C47.1872417,17.8227374 47.3587583,18.7073245 47.6970083,19.5560084 C48.0342333,20.4036665 48.524525,21.1822535 49.1545583,21.8698858 C50.7662,23.6315374 52.8230333,24.5246729 55.2676583,24.5246729 C57.7122833,24.5246729 59.76365,23.6311955 61.3643583,21.8695439 C62.669525,20.4371761 63.3313333,18.7801568 63.3313333,16.9439632 C63.3313333,15.08486 62.6350167,13.3987761 61.261175,11.9322148 C59.604775,10.171931 57.5882583,9.27913742 55.2676583,9.27913742" id="Fill-29" fill="#FFFFFF" mask="url(#mask-2)"></path>
                <path d="M94.4310975,17.1997994 C94.1444392,18.75458 93.6770392,20.0043542 93.0422225,20.9142445 C92.5006808,21.6945413 91.7247558,22.3076316 90.7363142,22.7371026 C89.7400142,23.169651 88.5995308,23.3895155 87.3469808,23.3895155 C84.8466642,23.3895155 82.8134058,22.5117671 81.3025558,20.7805477 C80.4794808,19.8470639 79.8443225,18.66978 79.4148475,17.2818639 C78.9836642,15.887109 78.7646558,14.297109 78.7646558,12.5556316 C78.7646558,10.5053865 79.0844558,8.65243806 79.7144892,7.04773484 C80.1562642,5.90943161 80.7323142,4.88225742 81.4269225,3.99390903 C82.1187975,3.10932194 82.8745642,2.42168968 83.6730392,1.95118645 C84.5753808,1.41810903 85.6581225,1.14798 86.8918808,1.14798 C87.7084642,1.14798 88.4532975,1.2799671 89.1051975,1.54086387 C89.7557308,1.80141871 90.3960142,2.22712839 91.0072558,2.80602516 C91.8200808,3.57538 92.4487475,4.43261226 92.8758308,5.35344452 C93.1201225,5.87592194 93.4416308,6.68323161 93.8331808,7.75827677 C93.9004892,7.9261671 93.9954725,8.17304452 94.1188142,8.49822516 L94.1608392,8.60832839 L94.8421225,8.60832839 L94.6302892,0.721928387 L93.9472975,0.721928387 L93.9028808,0.824509032 C93.7952558,1.07172839 93.7043725,1.2491929 93.6367225,1.34596065 C93.3726142,1.6933671 93.0036142,1.70601871 92.4261975,1.48957355 L91.0448392,1.03445742 C89.5155392,0.513347742 88.0443225,0.249031613 86.6725308,0.249031613 C85.2330892,0.249031613 83.7762225,0.493515484 82.3429308,0.975302581 C80.9082725,1.45743161 79.6567475,2.1173671 78.6225225,2.93630258 C77.2797725,4.00690258 76.2185558,5.44029613 75.4685975,7.19716065 C74.7210308,8.94889613 74.3417808,10.8880123 74.3417808,12.9608252 C74.3417808,15.6713477 74.9923142,18.0399348 76.2752725,19.999909 C77.5613058,21.9650123 79.3735058,23.3423284 81.6613058,24.0942445 C83.0884475,24.5589348 84.6040808,24.7948703 86.1665225,24.7948703 C87.8447892,24.7948703 89.3450475,24.5233735 90.6256142,23.9882445 C91.9140392,23.4493542 92.9404058,22.6574316 93.6753308,21.6350445 C94.4420308,20.5692316 94.9405225,19.1173735 95.1567975,17.3191348 L95.1759308,17.1580832 L94.4618475,17.0332768 L94.4310975,17.1997994 Z" id="Fill-30" fill="#FFFFFF" mask="url(#mask-2)"></path>
                <path d="M104.721278,22.8776381 C104.488944,22.6656381 104.330069,22.3961929 104.248753,22.0761413 C104.162994,21.7379671 104.119261,21.1877929 104.119261,20.4379284 L104.102178,0.142005806 L98.9037192,0.792367097 L98.9037192,1.47452839 L99.0629358,1.48512839 C99.5436608,1.51727032 99.9133442,1.59625742 100.161736,1.72072194 C100.400903,1.84005742 100.610002,2.04487677 100.786644,2.33518 C100.962261,2.60359935 101.078086,2.96434129 101.131044,3.40783161 C101.186053,3.87183806 101.214069,4.68154129 101.214069,5.81437355 L101.214069,19.0441994 C101.214069,20.0238445 101.188786,20.7808897 101.138903,21.2941348 C101.090728,21.7940445 101.008044,22.1688058 100.892219,22.4108961 C100.728561,22.7689026 100.514336,23.0233026 100.256036,23.1672574 C99.9840692,23.3187348 99.5163275,23.4394381 98.8661358,23.5259477 L98.7178525,23.54578 L98.7178525,24.2207606 L106.514003,24.2207606 L106.514003,23.5536445 L106.374603,23.5273155 C105.568269,23.3772058 105.013061,23.1597348 104.721278,22.8776381" id="Fill-31" fill="#FFFFFF" mask="url(#mask-2)"></path>
                <path d="M113.540241,14.0389135 C113.691941,12.9026619 114.102283,11.9425071 114.761016,11.1823845 C115.446058,10.3928555 116.252391,9.99244903 117.158833,9.99244903 C117.693883,9.99244903 118.205358,10.1452942 118.678908,10.4465394 C119.155533,10.75052 119.542641,11.1697329 119.829641,11.6932361 C120.133383,12.2427265 120.330524,13.0312297 120.415941,14.0389135 L113.540241,14.0389135 Z M122.951108,20.1975135 C122.669916,21.0342297 122.333716,21.64732 121.950024,22.0217394 C121.611091,22.362649 121.176491,22.63312 120.658183,22.8263135 C120.136799,23.0208748 119.577149,23.1193523 118.995291,23.1193523 C118.206383,23.1193523 117.442416,22.9432555 116.724574,22.596191 C116.006733,22.2494684 115.396174,21.7656297 114.909983,21.1583523 C114.432333,20.5589394 114.049324,19.7947135 113.771549,18.885849 C113.492066,17.9725394 113.350616,17.0236684 113.350616,16.066591 C113.350616,15.8474103 113.368724,15.5020555 113.404941,15.0390748 L123.300974,15.0390748 L123.300974,14.8681071 C123.300974,13.4148813 122.872524,12.1845974 122.027583,11.2111071 C121.483991,10.586049 120.810224,10.1025523 120.025416,9.77326839 C119.243341,9.44535226 118.381316,9.27917161 117.463258,9.27917161 C115.745016,9.27917161 114.194191,9.81977161 112.854174,10.8855845 C111.009516,12.3535135 110.074374,14.4030748 110.074374,16.977849 C110.074374,18.8636232 110.568083,20.4772168 111.542174,21.7728103 C112.242591,22.7032168 113.110424,23.4028168 114.122441,23.8517781 C115.128991,24.2983458 116.349424,24.5247071 117.750258,24.5247071 C119.375224,24.5247071 120.698841,24.1762748 121.684549,23.4896684 C122.677433,22.7986168 123.333433,21.7615265 123.634099,20.4074619 L123.667583,20.2570103 L123.005774,20.03612 L122.951108,20.1975135 Z" id="Fill-32" fill="#FFFFFF" mask="url(#mask-2)"></path>
                <path d="M136.339487,16.1204116 L136.339487,18.5813213 C136.339487,19.9784697 136.169337,21.0559084 135.832112,21.7879923 C135.599095,22.32996 135.248545,22.7683213 134.789687,23.0914503 C134.333903,23.4125277 133.843612,23.5749471 133.33282,23.5749471 C132.752328,23.5749471 132.286295,23.3574761 131.90807,22.9098826 C131.527795,22.4602374 131.335095,21.8782632 131.335095,21.1803729 C131.335095,20.35836 131.587928,19.6276439 132.08642,19.0101084 C132.333445,18.7085213 132.610878,18.4462568 132.910862,18.2308374 C133.219045,18.0099471 133.784162,17.6789535 134.589128,17.247431 C135.213695,16.9195148 135.80102,16.5409923 136.339487,16.1204116 L136.339487,16.1204116 Z M141.954778,22.3121794 C141.698528,22.6643729 141.478837,22.8992826 141.301853,23.0104116 C141.133753,23.1164116 140.88912,23.1700955 140.574787,23.1700955 C139.92767,23.1700955 139.529628,22.8209794 139.358112,22.1032568 C139.27167,21.7367019 139.227937,21.0230826 139.227937,19.981889 L139.227937,13.7371213 C139.227937,12.9154503 139.181812,12.3437342 139.086828,11.9874374 C138.894812,11.2813406 138.407595,10.7014181 137.636112,10.2627148 C137.117803,9.9751471 136.466928,9.73681806 135.700912,9.55354065 C134.93592,9.37163097 134.189378,9.27930839 133.482128,9.27930839 C132.85517,9.27930839 132.204637,9.34564387 131.548637,9.47660516 C130.88922,9.60825032 130.328203,9.78024387 129.877203,9.98814065 C129.006295,10.4114568 128.56452,10.9513729 128.56452,11.5935277 C128.56452,12.0226568 128.712462,12.3844245 129.003903,12.6695987 C129.29432,12.9537471 129.657853,13.0980439 130.084595,13.0980439 C130.74162,13.0980439 131.20287,12.7961148 131.455703,12.201489 L131.87732,11.2225277 C132.042687,10.83956 132.293812,10.5355794 132.623862,10.3187923 C133.22827,9.92112129 134.069795,9.88453419 134.79242,10.2292052 C135.121103,10.3854697 135.39307,10.5964439 135.60217,10.8576826 C136.068887,11.4311084 136.305662,12.36596 136.305662,13.6359084 C136.305662,14.2305342 136.241428,14.6983019 136.115012,15.0255342 C135.992695,15.3418245 135.763095,15.6222116 135.429628,15.8619084 C135.129303,16.0872439 134.750053,16.2838568 134.302128,16.4455923 C133.840195,16.6127987 133.116545,16.8213794 132.150312,17.0651794 C131.311862,17.2809406 130.660303,17.4977277 130.213745,17.7093858 C129.758645,17.925831 129.350353,18.2188697 128.999462,18.5820052 C128.375237,19.2415987 128.058853,20.0704503 128.058853,21.0456503 C128.058853,22.10736 128.446303,22.9639084 129.210612,23.59136 C129.96467,24.2106052 130.993087,24.5248439 132.266478,24.5248439 C133.25902,24.5248439 134.144962,24.3128439 134.900045,23.8953406 C135.27007,23.6888116 135.788378,23.2897729 136.48162,22.6777084 C136.827045,23.2436116 137.169737,23.6542761 137.501837,23.9001277 C138.058753,24.3145535 138.76327,24.5248439 139.596595,24.5248439 C141.121453,24.5248439 142.111945,23.8895277 142.541078,22.6366761 L142.586178,22.504689 L142.045662,22.186689 L141.954778,22.3121794 Z" id="Fill-33" fill="#FFFFFF" mask="url(#mask-2)"></path>
                <path d="M154.191057,9.27920581 C152.968574,9.27920581 151.862941,9.62456065 150.904566,10.3053542 C150.503107,10.5912123 150.129666,10.9851219 149.790391,11.4802445 C149.753832,10.8746768 149.661582,10.1836252 149.515007,9.41803161 L149.484599,9.25834774 L144.828707,9.90870903 L144.828707,10.5720639 L144.988266,10.5830058 C145.467966,10.6148058 145.836966,10.6961865 146.084332,10.8240703 C146.324866,10.9488768 146.534991,11.1567735 146.711974,11.4463929 C146.887591,11.7137865 147.003074,12.0707671 147.056032,12.5067348 C147.111382,12.9632187 147.139057,13.77258 147.139057,14.9125929 L147.139057,19.0602703 C147.139057,20.0368381 147.114116,20.7911477 147.064232,21.3030252 C147.015716,21.8008832 146.933032,22.1739348 146.817549,22.4146574 C146.653891,22.7712961 146.439666,23.0246703 146.181366,23.1682832 C145.909057,23.3197606 145.441657,23.43978 144.791466,23.5262897 L144.643182,23.54578 L144.643182,24.2207606 L152.439332,24.2207606 L152.439332,23.5536445 L152.299591,23.5273155 C151.493599,23.3772058 150.938391,23.1597348 150.646266,22.87798 C150.410857,22.6632445 150.256424,22.40098 150.174082,22.0771671 C150.087982,21.7389929 150.044249,21.1891606 150.044249,20.43998 L150.027507,16.0088381 C150.027507,14.2755671 150.238316,12.908851 150.654466,11.9466445 C151.055582,11.0176058 151.588924,10.566251 152.285241,10.566251 C152.803207,10.566251 153.242591,10.7638897 153.626624,11.1677155 L154.147666,11.7394316 C154.460974,12.0905994 154.838857,12.2687477 155.270382,12.2687477 C155.640749,12.2687477 155.950299,12.1504381 156.190832,11.9165542 C156.431707,11.6816445 156.554024,11.3793735 156.554024,11.0182897 C156.554024,10.5402639 156.357566,10.1333606 155.971482,9.80920581 C155.559091,9.45735419 154.960149,9.27920581 154.191057,9.27920581" id="Fill-34" fill="#FFFFFF" mask="url(#mask-2)"></path>
                <path d="M162.699343,4.03497548 C163.25421,4.03497548 163.720585,3.85409161 164.085827,3.4974529 C164.452777,3.13944645 164.638985,2.68330452 164.638985,2.14202065 C164.638985,1.61407226 164.449702,1.16169161 164.075918,0.796162581 C163.703502,0.433027097 163.240202,0.249065806 162.699343,0.249065806 C162.157802,0.249065806 161.694502,0.433027097 161.322427,0.796504516 C160.948985,1.16100774 160.75936,1.61373032 160.75936,2.14202065 C160.75936,2.68330452 160.945568,3.13944645 161.312518,3.4974529 C161.678102,3.85409161 162.144477,4.03497548 162.699343,4.03497548" id="Fill-35" fill="#FFFFFF" mask="url(#mask-2)"></path>
                <path d="M165.072013,22.8791426 C164.83968,22.6681684 164.680805,22.399749 164.59983,22.0807232 C164.514072,21.7439168 164.470338,21.1951103 164.470338,20.4472974 L164.453255,9.2564329 L159.254797,9.90679419 L159.254797,10.5722006 L159.414013,10.5828006 C159.894055,10.6146006 160.263055,10.6959813 160.51008,10.8242071 C160.750613,10.9486716 160.960738,11.1565684 161.137722,11.4461877 C161.313338,11.7142652 161.429163,12.0709039 161.482122,12.5068716 C161.53713,12.9640394 161.565147,13.7734006 161.565147,14.9123877 L161.565147,19.0604071 C161.565147,20.0356071 161.539863,20.7902587 161.48998,21.30282 C161.441463,21.80102 161.35878,22.1740716 161.243638,22.4147942 C161.079638,22.771091 160.865755,23.0248071 160.607797,23.16842 C160.335147,23.3195555 159.867405,23.4399168 159.217555,23.5260845 L159.069272,23.5459168 L159.069272,24.2208974 L166.86508,24.2208974 L166.86508,23.5534394 L166.72568,23.5274523 C165.919347,23.3776845 165.364138,23.1605555 165.072013,22.8791426" id="Fill-36" fill="#FFFFFF" mask="url(#mask-2)"></path>
                <path d="M185.586363,22.87798 C185.350613,22.6632445 185.195838,22.40098 185.113838,22.0768252 C185.02808,21.7393348 184.984347,21.1891606 184.984347,20.4416897 L184.984347,13.2938703 C184.984347,12.0187929 184.525147,11.0203413 183.619047,10.3258703 C182.715338,9.63139935 181.510963,9.27920581 180.040772,9.27920581 C178.211488,9.27920581 176.596772,9.90973484 175.234888,11.15438 C175.223955,10.6141219 175.14298,10.0280445 174.994013,9.4101671 L174.958138,9.26074129 L170.037455,9.90768323 L170.037455,10.5720639 L170.197013,10.5826639 C170.676713,10.6148058 171.045713,10.6961865 171.29308,10.8240703 C171.533272,10.9488768 171.743397,11.1567735 171.920722,11.4463929 C172.096338,11.7141284 172.211822,12.071109 172.265122,12.5067348 C172.32013,12.9639026 172.348147,13.7736058 172.348147,14.9125929 L172.348147,19.0602703 C172.348147,20.0354703 172.322863,20.7901219 172.272638,21.3030252 C172.224463,21.8012252 172.14178,22.1742768 172.026297,22.4146574 C171.862638,22.7712961 171.648413,23.0246703 171.390455,23.1682832 C171.117805,23.3197606 170.650063,23.4401219 170.000555,23.5262897 L169.85193,23.54578 L169.85193,24.2207606 L177.64808,24.2207606 L177.64808,23.5536445 L177.508338,23.5273155 C176.702347,23.3772058 176.147138,23.1597348 175.855355,22.87798 C175.619263,22.6632445 175.46483,22.40098 175.38283,22.0771671 C175.297072,21.7396768 175.253338,21.1895026 175.253338,20.4396381 L175.236255,15.8905284 C175.236255,14.5928832 175.288872,13.6532445 175.39308,13.0982832 C175.494213,12.5593929 175.707413,12.0700832 176.027213,11.6426639 C176.322413,11.2415735 176.732755,10.9194703 177.247988,10.6852445 C177.767322,10.449309 178.33483,10.3296316 178.93548,10.3296316 C179.49103,10.3296316 180.005238,10.4352897 180.463072,10.6431865 C180.913388,10.8483477 181.262913,11.1365994 181.502763,11.5021284 C181.722455,11.827651 181.874838,12.2687477 181.954447,12.813451 C182.03713,13.3773026 182.079155,14.276251 182.079155,15.4856768 L182.079155,19.0595865 C182.079155,20.0272639 182.053872,20.7788381 182.003988,21.2941348 C181.955813,21.7930187 181.873472,22.1681219 181.757647,22.4105542 C181.593305,22.7685606 181.379422,23.0229606 181.121463,23.1669155 C180.848472,23.3187348 180.381072,23.43978 179.731222,23.5262897 L179.58328,23.54578 L179.58328,24.2207606 L187.379088,24.2207606 L187.379088,23.5536445 L187.239688,23.5273155 C186.433355,23.3772058 185.878147,23.1597348 185.586363,22.87798" id="Fill-37" fill="#FFFFFF" mask="url(#mask-2)"></path>
                <path d="M195.090608,23.8832361 L197.772349,23.8832361 C198.876958,23.8832361 199.734199,24.0969458 200.320499,24.5178684 C200.896549,24.9319523 201.176716,25.5132426 201.176716,26.2949071 C201.176716,27.2793394 200.745874,28.0586103 199.858566,28.6775135 C198.964766,29.3015458 197.768933,29.6178361 196.304891,29.6178361 C194.928316,29.6178361 193.785099,29.3316361 192.905991,28.7667587 C192.039524,28.2100877 191.618591,27.5231394 191.618591,26.666249 C191.618591,26.1352232 191.755599,25.7006232 192.026541,25.3737329 C192.292358,25.0523135 192.626849,24.896049 193.049833,24.896049 C193.296516,24.896049 193.503224,24.949391 193.665516,25.0543652 C193.833616,25.1631006 194.008891,25.3662103 194.185533,25.6575394 L194.252841,25.7683265 L194.805999,25.6141135 L194.805999,25.298849 C194.805999,24.7568813 194.626624,24.3120232 194.271974,23.9762426 C194.201933,23.9099071 194.127791,23.8500684 194.049549,23.7967265 C194.374133,23.8545135 194.721949,23.8832361 195.090608,23.8832361 M199.018066,14.0830232 C199.018066,15.3936619 198.799741,16.426991 198.369241,17.1546297 C197.950016,17.86312 197.382508,18.207449 196.633574,18.207449 C195.891474,18.207449 195.296974,17.857649 194.816933,17.1382168 C194.328691,16.4068168 194.080983,15.441191 194.080983,14.2686942 C194.080983,13.7007394 194.152733,13.1252619 194.294524,12.557991 C194.434949,11.9937974 194.626283,11.5113265 194.862716,11.1232297 C195.326699,10.3624232 195.917099,9.99244903 196.667058,9.99244903 C197.285474,9.99244903 197.778499,10.2711265 198.174833,10.84592 C198.734483,11.6443394 199.018066,12.7334039 199.018066,14.0830232 M204.142041,9.66419097 C203.776458,9.40876516 203.294366,9.27917161 202.709091,9.27917161 C202.192833,9.27917161 201.707324,9.37149419 201.265891,9.55340387 C200.856233,9.72266194 200.395324,10.003049 199.895124,10.3870426 C198.780608,9.65188129 197.670874,9.27917161 196.594624,9.27917161 C195.865849,9.27917161 195.144591,9.43099097 194.451349,9.73086839 C193.757766,10.0310877 193.147891,10.4585071 192.640174,10.999791 C191.769266,11.9154942 191.327491,12.9754942 191.327491,14.1500426 C191.327491,15.0708748 191.611074,15.9240039 192.170041,16.6858361 C192.646324,17.3351716 193.294808,17.8812426 194.102508,18.313449 C193.303008,18.5350232 192.745408,18.7422361 192.403058,18.9450039 C191.611074,19.4387587 191.209616,20.1257071 191.209616,20.9860168 C191.209616,21.7950361 191.583399,22.4956619 192.321741,23.0690877 C192.527424,23.2274039 192.752924,23.3628103 192.997216,23.4753071 C192.970224,23.4742813 192.942891,23.4739394 192.915216,23.4739394 C192.171408,23.4739394 191.533516,23.7563781 191.018624,24.313391 C190.507491,24.8666426 190.248166,25.5501716 190.248166,26.3451716 C190.248166,27.344991 190.594958,28.192649 191.279658,28.8652361 C192.332333,29.8824942 194.127791,30.3984748 196.616491,30.3984748 C198.927183,30.3984748 200.710683,29.9618232 201.917108,29.1004877 C203.107474,28.2490684 203.710858,27.0492168 203.710858,25.5351265 C203.710858,24.1567845 203.187424,23.0711394 202.154566,22.3086232 C201.632158,21.9259974 201.015791,21.6411652 200.322549,21.4623329 C199.635116,21.2848684 198.785049,21.1952813 197.796608,21.1952813 L195.009974,21.1952813 C193.721891,21.1952813 193.068966,20.889249 193.068966,20.2857329 C193.068966,19.575191 193.848991,19.16692 195.388199,19.0725458 C196.590866,18.9942426 197.318274,18.9371394 197.557441,18.9008942 C198.330633,18.7511265 199.062824,18.4533006 199.732491,18.0152813 C201.085491,17.1310361 201.771558,15.907249 201.771558,14.3784555 C201.771558,13.2080103 201.330808,12.0577394 200.461266,10.9563652 C200.841541,10.6411006 201.203024,10.4817587 201.536491,10.4817587 C201.876449,10.4817587 202.129966,10.5928877 202.308999,10.8199329 L202.696791,11.3266813 C203.024108,11.7517071 203.401649,11.9667845 203.819166,11.9667845 C204.106849,11.9667845 204.349774,11.8601006 204.540766,11.6498103 C204.728683,11.4436232 204.824008,11.1861458 204.824008,10.8845587 C204.824008,10.4010619 204.595091,9.99108129 204.142041,9.66419097" id="Fill-38" fill="#FFFFFF" mask="url(#mask-2)"></path>
            </g>
        </g>
    </g>
</svg>