<?xml version="1.0" encoding="UTF-8"?>
<svg width="229px" height="54px" viewBox="0 0 229 54" version="1.1" xmlns="http://www.w3.org/2000/svg" xmlns:xlink="http://www.w3.org/1999/xlink">
    <!-- Generator: Sketch 59 (86127) - https://sketch.com -->
    <title>Doo Exchange Hover</title>
    <desc>Created with Sketch.</desc>
    <g id="Doo-Exchange-Hover" stroke="none" stroke-width="1" fill="none" fill-rule="evenodd">
        <rect id="矩形" fill-opacity="0" fill="#D8D8D8" x="0" y="0" width="229" height="54"></rect>
        <g id="编组" transform="translate(38.000000, 2.000000)">
            <path d="M71.042757,33.7804124 L71.0393477,39.0421283 C71.0388607,39.3642339 71.2964998,39.6261605 71.6150176,39.6261605 L77.1033626,39.6301067 C77.4213934,39.6301067 77.6795195,39.8920333 77.6790324,40.2141389 L77.6790324,40.3759316 C77.6790324,40.6980372 77.4209063,40.9594706 77.1023885,40.9594706 L71.6140435,40.9555244 C71.2960127,40.9550312 71.0378867,41.2164645 71.0373996,41.5390634 L71.0339904,46.8727968 C71.0335034,47.1953957 71.2916295,47.4573223 71.6101473,47.4573223 L77.8222193,47.4617617 C78.1407372,47.4617617 78.3988633,47.7236883 78.3983762,48.0457939 L78.3983762,48.2800974 C78.3983762,48.602203 78.1397631,48.8636364 77.8212453,48.8636364 L69.8943394,48.8577171 C69.5758216,48.8577171 69.3176955,48.5962838 69.3181818,48.2736849 L69.3288972,32.4017215 C69.3288972,32.0791226 69.5875103,31.8176892 69.9060281,31.8181818 L77.832934,31.8236085 C78.1514519,31.8241018 78.4090909,32.0855351 78.4090909,32.4076407 L78.4090909,32.6177739 C78.4086039,32.9398795 78.1504778,33.2013129 77.83196,33.2013129 L71.6194009,33.1968734 C71.3013701,33.1963802 71.042757,33.4578135 71.042757,33.7804124" id="Fill-1" fill="#FFC747"></path>
            <path d="M91.3479918,48.5889165 L87.3059517,42.5001973 C87.0590456,42.1283144 86.4810135,42.136699 86.246662,42.5159801 L82.501223,48.5672151 C82.3903245,48.7462516 82.1868363,48.8567314 81.9660855,48.8562382 L81.3148185,48.8562382 C80.833561,48.8557449 80.5369599,48.3605587 80.7849121,47.9714134 L85.5561621,40.4903527 C85.6764765,40.3019452 85.6738609,40.0652028 85.5498848,39.8792614 L80.7775887,32.7123777 C80.5186512,32.3232323 80.8152523,31.8181818 81.302264,31.8181818 L81.9927639,31.818675 C82.205145,31.8191682 82.4034021,31.9222498 82.516393,32.0919152 L86.4857215,38.0464804 C86.7315813,38.4163905 87.3049055,38.4094855 87.5418725,38.0351365 L91.2841729,32.1101641 C91.3955945,31.9331005 91.5980365,31.8250868 91.8166948,31.8250868 L92.4595921,31.82558 C92.9434652,31.82558 93.2395432,32.3261916 92.9863599,32.7148438 L88.2098789,40.0444878 C88.086949,40.2338818 88.0879952,40.4725971 88.2135406,40.6605114 L93.08575,47.9689473 C93.3452106,48.3575994 93.0486095,48.8636364 92.5610747,48.8636364 L91.8721441,48.8631432 C91.6592399,48.8626499 91.4609827,48.7590751 91.3479918,48.5889165" id="Fill-3" fill="#FFC747"></path>
            <path d="M108.751614,33.3772428 C109.890558,34.2504406 110.746618,35.4002542 111.319299,36.8282318 C111.478762,37.2261251 111.187484,37.6653043 110.774759,37.6647883 L110.193685,37.6642722 C109.956219,37.6642722 109.749363,37.5109981 109.654081,37.2839254 C109.189024,36.1795264 108.480084,35.2851696 107.527261,34.6029193 C106.466319,33.843258 105.153102,33.4634273 103.586621,33.4623951 C102.395346,33.461363 101.313669,33.7637825 100.34258,34.3701698 C99.3709962,34.9765571 98.6072566,35.8440781 98.0523483,36.9732487 C97.4964525,38.1024193 97.2180109,39.4168606 97.2170235,40.9170886 C97.2160361,42.4183488 97.492503,43.7286615 98.0469177,44.8500909 C98.6008387,45.9720365 99.3630972,46.836461 100.334187,47.4433644 C101.304289,48.0512999 102.385472,48.3552677 103.576748,48.3562998 C105.143228,48.357332 106.457433,47.9790495 107.518868,47.2214524 C108.472679,46.5397183 109.1831,45.6474258 109.649144,44.5430267 C109.745413,44.3164701 109.95227,44.163196 110.189735,44.163196 L110.770315,44.1637121 C111.183534,44.1642282 111.473825,44.6034074 111.313375,45.0013007 C110.739213,46.4282462 109.882166,47.5770276 108.74174,48.4486771 C107.386559,49.4844383 105.672465,50.0015448 103.599951,50 C102.017179,49.9989644 100.605717,49.6103604 99.3660593,48.8341847 C98.1264019,48.0574928 97.1641986,46.98251 96.4799433,45.607688 C95.7951942,44.2333821 95.4535602,42.669677 95.4545455,40.9160564 C95.455535,39.1459215 95.7996374,37.5698306 96.4858675,36.1877836 C97.1720977,34.8067687 98.135782,33.732302 99.3764268,32.9659316 C100.617072,32.2000773 102.029027,31.8176663 103.6118,31.8181818 C105.684313,31.8197306 107.39742,32.3394174 108.751614,33.3772428" id="Fill-5" fill="#35899C"></path>
            <path d="M126.136364,32.410514 L126.125768,48.2801818 C126.125768,48.602734 125.870037,48.8636364 125.555551,48.8636364 L125.023861,48.8631432 C124.709375,48.8631432 124.454125,48.6017476 124.454125,48.2791954 L124.458941,41.374901 C124.459423,41.0523488 124.204173,40.7909533 123.889205,40.7909533 L115.907121,40.7850349 C115.592153,40.7850349 115.336903,41.0459372 115.336903,41.3684894 L115.332087,48.2727838 C115.332087,48.5948428 115.076838,48.8562384 114.761869,48.8562384 L114.206581,48.8557452 C113.891613,48.855252 113.636364,48.5938564 113.636364,48.2717974 L113.647441,32.4016364 C113.647441,32.0795773 113.903172,31.8181818 114.217658,31.8181818 L114.773428,31.818675 C115.087914,31.8191682 115.343164,32.0805637 115.342682,32.4026228 L115.338829,38.7994153 C115.338348,39.1214743 115.593116,39.383363 115.908084,39.383363 L123.890168,39.3892814 C124.205137,39.3892814 124.460386,39.1283791 124.460868,38.8058269 L124.46472,32.4095276 C124.465202,32.0869753 124.720451,31.8255798 125.03542,31.826073 L125.566628,31.826073 C125.881596,31.8265662 126.136364,32.0879617 126.136364,32.410514" id="Fill-7" fill="#35899C"></path>
            <path d="M139.063827,43.5540108 L136.386089,36.461959 C136.190031,35.9425852 135.440884,35.9405663 135.241214,36.4584259 L132.515494,43.5469445 C132.365355,43.9376105 132.659958,44.3545228 133.086642,44.3550276 L138.490615,44.3585607 C138.915751,44.3585607 139.211386,43.9441721 139.063827,43.5540108 M139.47916,45.7440623 L132.114607,45.7395197 C131.860248,45.7390149 131.632718,45.8929595 131.542944,46.125643 L130.20098,49.6047914 C130.111206,49.8374749 129.883675,49.9914195 129.629316,49.9914195 L129.019989,49.9909147 C128.592273,49.99041 128.297155,49.570974 128.449873,49.1798033 L134.646334,33.3386499 C134.736623,33.1074806 134.964154,32.9545455 135.216965,32.9545455 L136.39744,32.9555549 C136.650251,32.9555549 136.877266,33.1089948 136.967555,33.3406688 L143.141314,49.189898 C143.293517,49.5810687 142.997882,50 142.570167,50 L141.937622,50 C141.682231,49.9994953 141.454185,49.8435317 141.365443,49.609334 L140.051855,46.1342236 C139.963113,45.9000258 139.734551,45.7440623 139.47916,45.7440623" id="Fill-9" fill="#35899C"></path>
            <path d="M158.462771,48.8636364 L157.57703,48.8631425 C157.370426,48.8631425 157.177874,48.7643626 157.063903,48.6008819 L148.424539,36.2188256 C148.087832,35.735792 147.295765,35.9619979 147.295244,36.5413419 L147.286397,48.2714511 C147.286397,48.5944612 147.010579,48.8562279 146.670229,48.855734 L146.070194,48.8552401 C145.729844,48.8552401 145.454026,48.5934734 145.454545,48.2704633 L145.465995,32.4019715 C145.465995,32.0794553 145.742334,31.8176886 146.082163,31.8181818 L146.967905,31.8186764 C147.174509,31.8186764 147.367061,31.9169624 147.481032,32.080937 L156.120396,44.4837371 C156.456582,44.9672645 157.24917,44.7410586 157.24969,44.1617147 L157.258537,32.4098739 C157.258537,32.0868638 157.534356,31.825591 157.874706,31.825591 L158.474741,31.8260849 C158.815091,31.8260849 159.090909,32.0883455 159.090909,32.4108617 L159.07946,48.2793535 C159.07894,48.6023636 158.803121,48.8636364 158.462771,48.8636364" id="Fill-11" fill="#35899C"></path>
            <path d="M175.065809,33.3411731 C176.22763,34.1871633 177.085793,35.2858654 177.639282,36.6367625 C177.802283,37.0341764 177.501164,37.4703497 177.078684,37.4703497 L176.493711,37.4698329 C176.252004,37.4693161 176.041271,37.3189293 175.940729,37.0956747 C175.47661,36.0672565 174.760628,35.2207495 173.793291,34.5561536 C172.711193,33.8124884 171.431565,33.4398806 169.954408,33.438847 C168.678335,33.4378134 167.524639,33.7411709 166.491797,34.347886 C165.459462,34.9551178 164.648524,35.8243638 164.060504,36.9545902 C163.471977,38.0853335 163.17746,39.4021222 163.176444,40.9044397 C163.175429,42.4408655 163.472485,43.7747084 164.067613,44.9059684 C164.662742,46.0377452 165.484344,46.907508 166.533435,47.5157734 C167.582019,48.1245557 168.777862,48.4294636 170.120963,48.4304972 C171.312235,48.4310139 172.403473,48.1658991 173.394169,47.6346358 C174.384865,47.1038893 175.186663,46.3318005 175.80058,45.3194029 C176.305322,44.4852989 176.637415,43.5312988 176.795338,42.4563693 C176.849671,42.0853118 176.567341,41.7493963 176.198686,41.7493963 L170.096589,41.7447452 C169.765003,41.7447452 169.495875,41.4703281 169.496383,41.1328622 L169.496383,41.0139998 C169.496383,40.6765339 169.765511,40.4026336 170.097604,40.4031504 L177.808884,40.4083183 C178.14047,40.4083183 178.409598,40.6827354 178.409091,41.0202013 L178.408582,41.9462945 C178.408582,41.967483 178.408075,41.9897051 178.406043,42.0108936 C178.283666,43.5173454 177.860171,44.8734105 177.134541,46.0801223 C176.403325,47.2951028 175.420754,48.2527203 174.186827,48.9519414 C172.952393,49.652196 171.546326,50.0010313 169.968118,50 C168.289877,49.9989641 166.79647,49.6139533 165.487898,48.8449652 C164.178819,48.0759771 163.164257,46.9989803 162.443197,45.6139749 C161.722645,44.2294863 161.362623,42.6589521 161.363636,40.9028893 C161.365162,39.1473432 161.726707,37.5778427 162.449799,36.1938708 C163.172382,34.8104158 164.183897,33.7349694 165.485867,32.9675317 C166.786822,32.200094 168.276674,31.8171503 169.955931,31.8181818 C171.969821,31.8197343 173.672945,32.3277419 175.065809,33.3411731" id="Fill-13" fill="#35899C"></path>
            <path d="M183.542756,33.7804117 L183.539347,39.0421276 C183.53886,39.3647265 183.796986,39.6261599 184.115504,39.6266531 L189.603362,39.630106 C189.92188,39.630106 190.179519,39.8920326 190.179519,40.2141382 L190.179032,40.3759309 C190.179032,40.6985298 189.920906,40.9594699 189.602388,40.9594699 L184.11453,40.9555237 C183.796012,40.9555237 183.537886,41.2164638 183.537399,41.5390627 L183.53399,46.8732894 C183.533503,47.1958883 183.791629,47.4573216 184.110147,47.4578149 L190.322219,47.461761 C190.640737,47.461761 190.898863,47.7236876 190.898863,48.0457933 L190.898376,48.2800967 C190.898376,48.6026956 190.639763,48.8641289 190.321245,48.8636364 L182.394339,48.8582097 C182.075821,48.8577164 181.818182,48.5962831 181.818182,48.2736842 L181.828896,32.4017208 C181.829384,32.0791219 182.08751,31.8181818 182.406027,31.8181818 L190.332934,31.8236078 C190.651452,31.8241011 190.909091,32.0855344 190.909091,32.4081333 L190.909091,32.6177732 C190.909091,32.9403721 190.650478,33.2018054 190.33196,33.2013122 L184.119887,33.1968727 C183.80137,33.1968727 183.542756,33.4583061 183.542756,33.7804117" id="Fill-15" fill="#35899C"></path>
            <path d="M100.773116,13.9128535 C99.8743851,14.8355223 98.6767648,15.3000183 97.1797395,15.3054238 C95.6651629,15.3112051 94.4592832,14.8549777 93.5626167,13.9391181 C92.6659501,13.0227722 92.2142614,11.7868726 92.2080025,10.2319055 C92.2018723,8.66088787 92.6432366,7.41817884 93.5321599,6.50377846 C94.4215995,5.58937809 95.6233494,5.1292596 97.1384423,5.12385403 C98.6535351,5.11807278 99.8594148,5.57381382 100.756081,6.49015974 C101.652748,7.40650565 102.104437,8.64191893 102.110695,10.1959132 C102.116826,11.7513666 101.670815,12.9901846 100.773116,13.9128535 M102.037329,2.28489076 C100.564049,1.51202789 98.9255808,1.12973071 97.1219234,1.1364507 C95.3363335,1.14286305 93.7097381,1.53683343 92.2436857,2.32039673 C90.7766009,3.10250089 89.6171806,4.18567623 88.7664573,5.56700446 C87.9147015,6.94979184 87.4929533,8.51156823 87.500089,10.248929 C87.5074074,11.9887216 87.9420609,13.5495252 88.804141,14.9342581 C89.6662211,16.3199638 90.8349333,17.3977889 92.3082127,18.169679 C93.7809759,18.9410828 95.4106686,19.3243527 97.1962584,19.3181067 C98.9818483,19.3117068 100.608444,18.9167636 102.075529,18.1341731 C103.541581,17.3520689 104.700485,16.2650025 105.551725,14.8734602 C106.40348,13.4828907 106.825228,11.9191688 106.818093,10.1788898 C106.810774,8.44104267 106.380767,6.88315735 105.527462,5.50669295 C104.673642,4.13120131 103.511124,3.05629448 102.037329,2.28489076" id="Fill-17" fill="#35899C"></path>
            <path d="M120.091298,13.9128535 C119.192567,14.8355223 117.994947,15.3000183 116.497921,15.3054238 C114.983345,15.3112051 113.777465,14.8549777 112.880798,13.9391181 C111.984132,13.0227722 111.532443,11.787359 111.526184,10.2319055 C111.520054,8.66088787 111.961418,7.41817884 112.850342,6.50377846 C113.739781,5.58937809 114.941531,5.1292596 116.456624,5.12385409 C117.971717,5.11807278 119.177597,5.57430021 120.074263,6.49015974 C120.97093,7.40650565 121.422618,8.64240531 121.428887,10.1959132 C121.435524,11.7513666 120.988997,12.9901846 120.091298,13.9128535 M121.356027,2.28489076 C119.882231,1.51202789 118.243763,1.12973071 116.440105,1.1364507 C114.654515,1.14286305 113.02792,1.53683343 111.561867,2.32039673 C110.094783,3.10250089 108.935362,4.18567623 108.084639,5.56749084 C107.233399,6.95027822 106.811135,8.51156823 106.818271,10.248929 C106.825589,11.989208 107.260243,13.5495252 108.122323,14.9342581 C108.984403,16.3199638 110.153115,17.3982753 111.626394,18.169679 C113.099158,18.9410828 114.72885,19.3243527 116.51444,19.3181067 C118.30003,19.3117068 119.926625,18.9167636 121.39371,18.1341731 C122.860279,17.3520689 124.018667,16.2654889 124.870423,14.8734602 C125.721662,13.4828907 126.14341,11.9191688 126.136275,10.1793762 C126.128956,8.44152906 125.698949,6.88315735 124.84616,5.50669295 C123.991824,4.13120131 122.829306,3.05678087 121.356027,2.28489076" id="Fill-19" fill="#35899C"></path>
            <path d="M81.7279474,2.2461535 C80.2436997,1.49956059 78.4846669,1.12900346 76.4503384,1.13647437 L75.2204456,1.14145498 C74.9420853,1.1424511 74.7173541,1.36309197 74.7183756,1.63403696 L74.7296122,4.50436049 C74.7311444,4.77580355 74.9574079,4.99495024 75.2357682,4.99395411 L76.0642093,4.99096575 C77.8482689,4.9839929 79.2380273,5.43224749 80.2319523,6.33622757 C81.2258773,7.23970959 81.7264151,8.51325067 81.7325441,10.1563528 C81.7391839,11.800451 81.2488612,13.0774785 80.2620868,13.9884314 C79.2753123,14.8993843 77.8891291,15.3585963 76.1050695,15.365071 L74.4400153,15.3710478 C74.161655,15.372542 73.9353915,15.1533953 73.93437,14.8819522 L73.9037249,7.08033018 C73.9027034,6.90451477 73.8061711,6.74314312 73.6498807,6.65548445 L70.0720572,4.65925736 C69.7354711,4.47148849 69.3166538,4.70956148 69.3181776,5.08758952 L69.3723258,18.8285848 C69.3733473,19.1000279 69.5996108,19.3191746 69.8779711,19.3181852 L76.5218438,19.2927773 C78.5377852,19.2853064 80.2901782,18.8933327 81.7774904,18.1178523 C83.2642919,17.3413757 84.4022491,16.2625763 85.1908515,14.8819522 C85.9799646,13.500332 86.3706905,11.9194875 86.36354,10.1389206 C86.3563894,8.35835381 85.9534055,6.78498022 85.1535665,5.41879985 C84.3542384,4.05212142 83.2121951,2.99523672 81.7279474,2.2461535 Z" id="Fill-21" fill="#35899C"></path>
            <path d="M73.8479105,0.539215638 L73.8636364,5.1381332 C73.8651063,5.55427273 73.4622347,5.81634743 73.1384636,5.60964835 L69.5617506,3.32554123 C69.2384708,3.11884214 69.2365056,2.59798238 69.5588028,2.3890902 L73.1193026,0.0742797668 C73.4415999,-0.135160685 73.8464366,0.123076102 73.8479105,0.539215638" id="Fill-23" fill="#FFC747"></path>
            <path d="M15.3409091,20.4545455 C12.5211692,20.4545455 10.2272727,18.1607558 10.2272727,15.3411472 C10.2272727,12.5215387 12.5211692,10.2272727 15.3409091,10.2272727 C18.160649,10.2272727 20.4545455,12.5215387 20.4545455,15.3411472 C20.4545455,18.1607558 18.160649,20.4545455 15.3409091,20.4545455" id="Fill-25" fill="#35899C"></path>
            <path d="M32.3863636,20.4545455 C29.5666238,20.4545455 27.2727273,18.1607558 27.2727273,15.3411472 C27.2727273,12.5215387 29.5666238,10.2272727 32.3863636,10.2272727 C35.2061035,10.2272727 37.5,12.5215387 37.5,15.3411472 C37.5,18.1607558 35.2061035,20.4545455 32.3863636,20.4545455" id="Fill-27" fill="#59AABC"></path>
            <path d="M50.5681818,20.4545455 C47.7484419,20.4545455 45.4545455,18.1607558 45.4545455,15.3411472 C45.4545455,12.5215387 47.7484419,10.2272727 50.5681818,10.2272727 C53.3879217,10.2272727 55.6818182,12.5215387 55.6818182,15.3411472 C55.6818182,18.1607558 53.3879217,20.4545455 50.5681818,20.4545455" id="Fill-29" fill="#B0D4DC"></path>
            <path d="M15.3409091,48.8636364 C12.5211692,48.8636364 10.2272727,46.5698467 10.2272727,43.7502381 C10.2272727,40.9306296 12.5211692,38.6363636 15.3409091,38.6363636 C18.160649,38.6363636 20.4545455,40.9306296 20.4545455,43.7502381 C20.4545455,46.5698467 18.160649,48.8636364 15.3409091,48.8636364" id="Fill-31" fill="#35899C"></path>
            <path d="M32.3863636,48.8636364 C29.5666238,48.8636364 27.2727273,46.5698467 27.2727273,43.7502381 C27.2727273,40.9306296 29.5666238,38.6363636 32.3863636,38.6363636 C35.2061035,38.6363636 37.5,40.9306296 37.5,43.7502381 C37.5,46.5698467 35.2061035,48.8636364 32.3863636,48.8636364" id="Fill-33" fill="#59AABC"></path>
            <path d="M50.5681818,48.8636364 C47.7484419,48.8636364 45.4545455,46.5698467 45.4545455,43.7502381 C45.4545455,40.9306296 47.7484419,38.6363636 50.5681818,38.6363636 C53.3879217,38.6363636 55.6818182,40.9306296 55.6818182,43.7502381 C55.6818182,46.5698467 53.3879217,48.8636364 50.5681818,48.8636364" id="Fill-35" fill="#B0D4DC"></path>
            <path d="M5.11363636,34.0909091 C2.29389649,34.0909091 0,31.7971194 0,28.9775109 C0,26.1579023 2.29389649,23.8636364 5.11363636,23.8636364 C7.93337624,23.8636364 10.2272727,26.1579023 10.2272727,28.9775109 C10.2272727,31.7971194 7.93337624,34.0909091 5.11363636,34.0909091" id="Fill-37" fill="#35899C"></path>
            <path d="M24.4318182,34.0909091 C21.6120783,34.0909091 19.3181818,31.7971194 19.3181818,28.9775109 C19.3181818,26.1579023 21.6120783,23.8636364 24.4318182,23.8636364 C27.2515581,23.8636364 29.5454545,26.1579023 29.5454545,28.9775109 C29.5454545,31.7971194 27.2515581,34.0909091 24.4318182,34.0909091" id="Fill-39" fill="#59AABC"></path>
            <path d="M41.4772727,34.0909091 C38.6575329,34.0909091 36.3636364,31.7971194 36.3636364,28.9775109 C36.3636364,26.1579023 38.6575329,23.8636364 41.4772727,23.8636364 C44.2970126,23.8636364 46.5909091,26.1579023 46.5909091,28.9775109 C46.5909091,31.7971194 44.2970126,34.0909091 41.4772727,34.0909091" id="Fill-41" fill="#B0D4DC"></path>
        </g>
    </g>
</svg>