<?xml version="1.0" encoding="UTF-8"?>
<svg width="229px" height="54px" viewBox="0 0 229 54" version="1.1" xmlns="http://www.w3.org/2000/svg" xmlns:xlink="http://www.w3.org/1999/xlink">
    <!-- Generator: Sketch 59 (86127) - https://sketch.com -->
    <title>Doo Tech Hover</title>
    <desc>Created with Sketch.</desc>
    <defs>
        <polygon id="path-1" points="0.110493851 0.047632 5.07453756 0.047632 5.07453756 5.46735152 0.110493851 5.46735152"></polygon>
    </defs>
    <g id="Doo-Tech-Hover" stroke="none" stroke-width="1" fill="none" fill-rule="evenodd">
        <rect id="矩形" fill-opacity="0" fill="#D8D8D8" x="0" y="0" width="229" height="54"></rect>
        <g id="编组" transform="translate(0.000000, 1.000000)">
            <path d="M24.8690416,5.66436 C25.0079856,5.803096 25.3052176,6.149416 25.0670576,6.368856 C21.9262576,8.195512 17.9744656,9.353864 14.7140656,9.483656 C14.1368656,9.356776 15.0065136,7.819032 15.2902256,7.687992 C15.3104016,7.678632 15.3399376,7.67364 15.3613616,7.667608 C17.9931856,7.562776 21.1830736,6.627608 23.7183856,5.153096 C24.0865456,5.03412 24.6907856,5.486312 24.8690416,5.66436" id="Fill-2" fill="#F2F2F2"></path>
            <path d="M13.872664,8.7459632 C13.705848,9.0475632 13.449384,9.4167632 13.174616,9.4631472 C12.55124,9.4180112 11.96884,9.3258672 11.44052,9.1831792 C10.274888,8.8684752 9.5082,8.3447312 9.130056,7.6843312 C9.106968,7.2641712 10.72812,6.1039472 10.85396,6.2150192 C11.159304,6.7483312 11.778104,7.1707792 12.718888,7.4247472 C13.145496,7.5399792 13.615784,7.6146512 14.118728,7.6508432 C14.38996,7.7725232 13.878072,8.7363952 13.872664,8.7459632" id="Fill-4" fill="#F2F2F2"></path>
            <g transform="translate(24.752000, 0.000000)">
                <mask id="mask-2" fill="white">
                    <use xlink:href="#path-1"></use>
                </mask>
                <g id="Clip-7"></g>
                <path d="M4.018456,0.0512096 C4.20628,0.0584896 4.830696,0.0953056 4.974632,0.2546336 C5.42724,1.6748576 4.338152,3.5861696 1.785576,5.4196896 C1.147432,5.7021536 0.033384,4.6457216 0.114712,4.4362656 C0.121576,4.4187936 0.141752,4.4017376 0.1534,4.3869696 C2.21364,2.9068416 3.092856,1.3641056 2.7274,0.2178176 C2.787096,0.0751296 3.587272,0.0341536 4.018456,0.0512096" id="Fill-6" fill="#F2F2F2" mask="url(#mask-2)"></path>
            </g>
            <path d="M31.3243424,7.020832 C31.4965664,7.169552 31.8686784,7.549568 31.6053504,7.86656 C31.1695904,8.219328 30.6965984,8.571056 30.1869984,8.920496 C27.8798624,10.501712 25.1367584,11.81336 22.3144064,12.769744 C21.4260384,12.92616 21.1643744,11.520288 21.5071584,11.079328 C21.5512544,11.022544 21.6359104,10.96992 21.6993504,10.936432 C24.1909824,10.092368 26.6127264,8.934224 28.6494624,7.538128 C29.0993664,7.229872 29.5170304,6.91912 29.9016224,6.607952 C30.3860544,6.3492 31.1471264,6.867744 31.3243424,7.020832" id="Fill-8" fill="#F2F2F2"></path>
            <path d="M9.9842496,13.4670016 C9.5150016,14.3582816 9.2703936,14.2754976 8.3603936,13.9670336 C6.7795936,13.4312256 6.0226816,12.9097696 5.3610336,11.9003456 C5.2445536,11.3747296 6.4509536,10.0774336 6.6926496,10.1408736 C6.8471936,10.1812256 6.9193696,10.4372736 7.0106816,10.5685216 C7.3343296,11.0340256 8.1353376,11.6923456 10.1138336,12.1861376 C10.5227616,12.3999616 9.9898656,13.4563936 9.9842496,13.4672096" id="Fill-10" fill="#F2F2F2"></path>
            <path d="M20.238504,12.5911344 C20.304024,13.4562064 20.013864,13.5165264 18.620056,13.8071024 C15.63172,14.4294384 13.690456,14.6037424 11.201112,14.4735344 C10.564424,14.2871664 11.120824,12.8440624 11.676808,12.5102224 C11.733176,12.4763184 11.821368,12.4546864 11.88668,12.4461584 C14.128712,12.6127664 16.784456,12.3009744 19.467032,11.6041744 C20.041528,11.5536304 20.221656,12.3700304 20.238504,12.5911344" id="Fill-12" fill="#F2F2F2"></path>
            <path d="M34.3147584,0.6599632 C34.4948864,0.7067632 35.0947584,0.8771152 35.2522144,1.1177712 C35.7304064,2.6182832 35.0225824,4.4967312 33.1728384,6.4344592 C32.5390624,6.8641872 31.1425504,5.7934032 31.2444704,5.4167152 C31.2511264,5.3923792 31.2729664,5.3655472 31.2854464,5.3437072 C32.9184544,3.6329072 33.5432864,1.9745232 33.1210464,0.6497712 C33.1229184,0.6364592 33.1254144,0.6187792 33.1272864,0.6052592 C33.3827104,0.4222192 34.3056064,0.6576752 34.3147584,0.6601712" id="Fill-14" fill="#F2F2F2"></path>
            <path d="M39.4661072,2.3339264 C39.6320912,2.4167104 40.1864112,2.7110304 40.3528112,3.0219904 C40.8081232,4.4503264 40.4133392,6.1496864 39.1923792,7.9476384 C38.6064432,8.5007104 37.2317712,7.1838624 37.3008272,6.7903264 C37.3060272,6.7607904 37.3259952,6.7252224 37.3370192,6.6975584 C38.4633392,5.0387584 38.8273392,3.4712704 38.4073872,2.1533824 C38.4071792,2.1367424 38.4067632,2.1142784 38.4065552,2.0974304 C38.6026992,1.9060704 39.4309552,2.3162464 39.4661072,2.3339264" id="Fill-16" fill="#F2F2F2"></path>
            <path d="M44.058456,5.0019632 C44.243576,5.1502672 44.691816,5.5334032 44.855512,5.8903312 C45.648824,8.3796752 44.22756,11.5747632 40.684072,14.8054192 C39.860184,15.3586992 38.853672,14.0913552 39.05876,13.3747952 C39.083512,13.2882672 39.156104,13.1871792 39.212888,13.1170832 C42.576248,10.0505392 43.925336,7.0181072 43.172168,4.6552272 C43.170088,4.6358832 43.166968,4.6098832 43.16468,4.5905392 C43.225208,4.5558032 43.385784,4.4638672 44.058456,5.0019632" id="Fill-18" fill="#F2F2F2"></path>
            <path d="M31.95088,13.1464736 C32.065488,13.3505216 32.28056,13.8661536 31.801952,14.2424256 C27.476176,16.7579776 22.312368,18.5833856 17.475744,19.4380576 C16.505424,19.4711296 16.46528,18.0883456 16.910192,17.5481696 C17.048304,17.3807296 17.189536,17.3347616 17.302896,17.2975296 C21.764912,16.5087936 26.528528,14.8250336 30.519216,12.5041696 C31.242224,12.2083936 31.83232,12.9355616 31.95088,13.1464736" id="Fill-20" fill="#F2F2F2"></path>
            <path d="M7.0182112,18.5412656 C6.9239872,18.7669456 6.6589952,19.2867376 6.2355072,19.2418096 C4.4090592,18.6544176 3.1868512,17.7596016 2.5555712,16.6561616 C2.3552672,16.0273776 3.2577792,14.5963376 3.4948992,14.6907696 C3.5115392,14.6976336 3.5258912,14.7190576 3.5389952,14.7313296 C4.1213952,15.7490736 5.2487552,16.5746256 6.9339712,17.1162576 C7.3884512,17.3789616 7.1159712,18.3070576 7.0182112,18.5412656" id="Fill-22" fill="#F2F2F2"></path>
            <path d="M15.10756,18.9101328 C15.067,19.2073648 14.918072,19.7254928 14.37748,19.8554928 C12.303512,20.0429008 10.345608,20.0243888 8.607976,19.7745808 C7.79012,19.4993968 8.346104,17.9273328 8.875048,17.6585968 C8.942648,17.6242768 9.046856,17.6109648 9.122568,17.6080528 C10.725416,17.8385168 12.531688,17.8555728 14.444872,17.6825168 C15.232776,17.7338928 15.109224,18.8982768 15.10756,18.9101328" id="Fill-24" fill="#F2F2F2"></path>
            <path d="M37.4366928,8.7414912 C37.6107888,8.9087232 37.9889328,9.3399072 37.7360048,9.7315712 C36.8601168,10.6509312 35.7805968,11.5808992 34.5005648,12.5004672 C33.5681008,12.9840672 32.6373008,11.6796992 32.8430128,11.1191392 C32.8717168,11.0411392 32.9495088,10.9556512 33.0085808,10.8974112 C34.1896048,10.0491872 35.1853008,9.1911872 35.9933808,8.3429632 C36.4817648,7.9926912 37.2559408,8.5682272 37.4366928,8.7414912" id="Fill-26" fill="#F2F2F2"></path>
            <path d="M30.0063712,49.8828512 C30.0797952,50.1492992 29.6533952,50.2597472 29.5129952,50.2957312 C25.3024512,51.1608032 21.2774432,51.2847712 18.2612352,50.4702432 C17.9825152,50.3949472 17.7166912,50.3127872 17.4639712,50.2243872 C16.7020672,49.9229952 15.6866112,49.5182272 14.9407232,49.1789792 C14.9725472,49.1935392 15.0147712,49.2124672 15.0465952,49.2270272 C15.5397632,49.4481312 16.0897152,49.6424032 16.6972832,49.8065152 C19.9495712,50.6844832 24.2899072,50.5509472 28.8303392,49.6182752 C29.6692032,49.4899392 29.9714272,49.7942432 30.0063712,49.8828512" id="Fill-28" fill="#F2F2F2"></path>
            <path d="M49.8036448,38.4960576 C49.7320928,38.6191936 49.4756288,39.0557856 49.1777728,39.5065216 C48.1379808,41.0515456 46.4571328,42.6743616 44.1518688,44.2545376 C40.9472128,46.4510176 37.0453408,48.2156896 33.1033248,49.3913056 C32.2671648,49.5968096 31.9934368,49.2602656 32.1290528,49.0156576 C32.2457408,48.8055776 32.5654368,48.6915936 32.7016768,48.6427136 C36.9525728,47.3751616 41.1602048,45.4721696 44.6159168,43.1036736 C47.1015168,41.3999456 48.9140288,39.6500416 50.0353568,37.9837536 C50.0601088,37.9506816 50.0933888,37.9063776 50.1183488,37.8730976 C50.0908928,37.9725216 50.0759168,38.0274336 49.8036448,38.4960576" id="Fill-30" fill="#F2F2F2"></path>
            <path d="M38.1660032,48.819888 C38.1208672,48.878752 37.9673632,49.037664 37.5189152,49.24192 C33.4117472,50.992448 28.8463552,51.94696 25.2148832,51.7712 C24.6624352,51.728976 23.9248672,51.676144 23.3740832,51.614992 L21.9120512,51.399296 C26.2394912,52.131872 32.3070592,51.054848 37.6767872,48.766224 C37.9463552,48.6616 37.9827552,48.661808 38.1572672,48.663056 C38.1703712,48.693632 38.1878432,48.733984 38.2009472,48.764352 C38.1888832,48.779952 38.1780672,48.804288 38.1660032,48.819888" id="Fill-32" fill="#F2F2F2"></path>
            <path d="M43.8790976,45.4985856 C43.4395936,45.8607136 42.9580736,46.2222176 42.4347456,46.5810176 C41.7069536,47.0798016 40.9325696,47.5496736 40.1244896,47.9875136 C39.8509696,48.1277056 39.8310016,48.1158496 39.7717216,48.0806976 C39.8041696,47.9236576 40.1769056,47.5993856 40.6026816,47.3576896 C42.5944896,46.2265856 44.5467776,45.0384896 46.5310976,42.9493376 C45.4653056,44.0621376 44.9790016,44.5698656 43.8790976,45.4985856" id="Fill-34" fill="#F2F2F2"></path>
            <path d="M51.5525504,34.2970576 C51.3851104,34.8443056 51.1800224,35.2297296 51.1126304,35.3566096 C49.8101344,37.3024496 47.8195744,39.2241616 45.0893664,41.0957456 C39.2915744,45.0695856 31.5664544,47.8503376 24.6887264,48.7724016 C23.6416544,48.8456176 23.1120864,48.2542736 23.3061504,47.9435216 C23.4093184,47.7781616 23.6345824,47.7317776 23.8157504,47.6943376 C31.0383424,46.7265136 39.1503424,43.8061936 45.2385024,39.6330896 C48.1053664,37.6681136 50.1957664,35.6498896 51.4889024,33.7283856 C51.5240544,33.6894896 51.5708544,33.6379056 51.6060064,33.5992176 C51.6860864,33.8604656 51.6860864,33.8604656 51.5525504,34.2970576" id="Fill-36" fill="#F2F2F2"></path>
            <path d="M21.2279392,49.0487296 C18.6917952,49.1535616 16.3557472,48.9592896 14.3834912,48.4266016 C14.1542752,48.3648256 13.9323392,48.2990976 13.7178912,48.2294176 C13.0739232,47.9906336 12.2300672,47.4356896 12.0763552,47.1496896 C12.0890432,47.1320096 12.1056832,47.1082976 12.1181632,47.0908256 C12.1749472,47.0943616 12.2496192,47.1101696 12.3045312,47.1245216 C12.5295872,47.1977376 12.7625472,47.2667936 13.0029952,47.3318976 C15.0734272,47.8907936 17.5253312,48.0946336 20.1875232,47.9848096 C21.0987712,48.0051936 21.5638592,48.4765216 21.6385312,48.6017376 C21.7223552,48.7425536 21.7808032,48.9875776 21.2279392,49.0487296 Z" id="Fill-38" fill="#F2F2F2"></path>
            <path d="M48.5976608,9.666488 C49.2757408,11.79412 48.4818048,14.390792 46.2630688,17.109976 C45.6205568,17.687592 44.8203808,16.483896 44.8353568,15.767544 C44.8403488,15.538328 44.9160608,15.41228 44.9770048,15.311192 C47.1291808,12.673336 47.8994048,10.154456 47.2417088,8.09068 C47.2375488,8.069464 47.2319328,8.041176 47.2277728,8.019752 C47.2431648,8.00852 47.2639648,7.99292 47.2795648,7.981688 C47.3417568,8.011848 47.5071168,8.09276 47.9187488,8.602776 C48.0697568,8.78956 48.4379168,9.267336 48.5976608,9.666488 Z" id="Fill-40" fill="#F2F2F2"></path>
            <path d="M18.218616,25.0194256 C15.710552,25.4641296 13.277576,25.6854416 11.03908,25.6540336 C9.933352,25.4824336 10.184824,23.8338256 10.773048,23.4966576 C10.854584,23.4500656 10.982088,23.4261456 11.07548,23.4142896 C13.199992,23.4436176 15.509208,23.2339536 17.889768,22.8115056 C18.908344,22.7611696 18.9597422,23.9627856 18.9597422,23.9750576 C18.96076,24.2202896 18.890872,24.8126736 18.218616,25.0194256 Z" id="Fill-42" fill="#E95514"></path>
            <path d="M7.9391104,25.4284992 C7.1680544,25.3207552 6.4340224,25.1745312 5.7430464,24.9877472 C3.2499584,24.3146592 1.6098784,23.1949952 0.8013824,21.7816352 C0.5147584,21.0455232 1.0805184,19.5649792 1.3116064,19.6876992 C1.3299104,19.6974752 1.3442624,19.7234752 1.3581984,19.7386592 C2.1255104,21.0798432 3.6823904,22.1429312 6.0483904,22.7816992 C6.7044224,22.9589152 7.4012224,23.0978592 8.1329664,23.1997792 C8.9173344,23.4373152 8.7157824,24.6158432 8.7132864,24.6276992 C8.6533824,24.9230592 8.4730464,25.4197632 7.9391104,25.4284992 Z" id="Fill-44" fill="#E95514"></path>
            <path d="M11.4936848,31.3840592 C9.3448368,31.3576432 7.3580208,31.1203152 5.6203888,30.6512752 C2.8810288,29.9114192 1.0789168,28.6810992 0.1905488,27.1281712 C-0.0432432,26.6033872 -0.0675792,25.3395792 0.1491568,24.9818192 C0.1759888,24.9780752 0.2119728,24.9732912 0.2388048,24.9695472 C0.2527408,24.9874352 0.2714608,25.0111472 0.2856048,25.0288272 C1.1473488,26.5351632 2.8955888,27.7286672 5.5527888,28.4462672 C7.2382128,28.9011632 9.1655408,29.1316272 11.2499088,29.1570032 C12.2632848,29.2959472 12.2599568,30.4877872 12.2595812,30.4998512 C12.2495568,30.7398832 12.1553328,31.3070992 11.4936848,31.3840592 Z" id="Fill-46" fill="#E95514"></path>
            <path d="M10.8660656,41.697448 C9.9870576,41.574728 9.1496496,41.40812 8.3615376,41.195128 C5.5185936,40.427608 3.6480496,39.150488 2.7259856,37.538904 C2.6748176,37.446552 2.6248976,37.353576 2.5760176,37.25956 L1.9609616,35.993048 C1.8440656,35.73076 1.8118256,35.657544 1.7752176,35.546472 C1.7933136,35.568312 1.8174416,35.597224 1.8355376,35.619064 C2.7652976,37.24396 4.6512336,38.531688 7.5178896,39.305656 C8.3122416,39.520312 9.1565136,39.688376 10.0432176,39.812136 C10.9228496,40.025336 11.3036976,40.856504 11.3575696,41.067624 C11.4195536,41.309944 11.4380656,41.714296 10.8660656,41.697448 Z" id="Fill-48" fill="#E95514"></path>
            <path d="M29.1150496,39.672048 C25.4698496,40.763424 21.7984416,41.493088 18.3683136,41.797808 C17.0984736,41.793024 16.6614656,40.57144 17.1094976,40.127152 C17.2573856,39.980304 17.4514496,39.943072 17.6074496,39.913328 C21.0658656,39.606112 24.7676416,38.870208 28.4430016,37.769888 C29.5431136,37.548784 29.8655136,38.376624 29.8915136,38.610416 C29.9156416,38.826528 29.8881856,39.362336 29.1150496,39.672048 Z" id="Fill-50" fill="#E95514"></path>
            <path d="M30.6943312,43.8908704 C26.5567952,45.1295104 22.3834832,45.8762304 18.6111952,46.0264064 C17.4719792,45.9831424 16.8273872,45.0706464 17.2394352,44.6949984 C17.3594512,44.5857984 17.5374992,44.5627104 17.6803952,44.5444064 C21.5577232,44.3900704 25.8473072,43.6225504 30.1000752,42.3495904 C31.3168752,42.0877184 31.4533232,42.9796224 31.4541552,42.9887744 C31.4701712,43.1657824 31.4281552,43.6077824 30.6943312,43.8908704 Z" id="Fill-52" fill="#E95514"></path>
            <path d="M15.057536,45.9790448 C13.6188,45.8748368 12.27408,45.6616368 11.054368,45.3321648 C8.914256,44.7543408 7.356336,43.8715888 6.369584,42.7669008 C5.880784,42.1738928 5.21768,41.3918128 4.757792,40.7759248 C5.736432,42.1073328 7.449312,43.1656368 9.912864,43.8312368 C11.166688,44.1696528 12.548848,44.3884688 14.027728,44.4955888 C14.939808,44.6345328 15.40552,45.2889008 15.480192,45.4565488 C15.565472,45.6479088 15.62392,45.9703088 15.057536,45.9790448 Z" id="Fill-54" fill="#E95514"></path>
            <path d="M29.5379968,33.8805376 C26.6174688,34.8735296 23.6457728,35.6414656 20.7610208,36.1514816 C19.5053248,36.2394656 19.0400288,34.9186656 19.6141088,34.3044416 C19.7800928,34.1268096 19.9799808,34.0694016 20.1405568,34.0232256 C22.9930688,33.5190336 25.9316928,32.7596256 28.8195648,31.7776576 C30.0650688,31.4881216 30.2807648,32.6687296 30.2824288,32.6810016 C30.3148768,32.9243616 30.3075968,33.5281856 29.5379968,33.8805376 Z" id="Fill-56" fill="#E95514"></path>
            <path d="M5.7438784,35.9332688 C3.3013344,35.1476528 1.6670784,33.9512368 0.8230144,32.4756848 C0.5270304,31.8797648 0.2075424,30.4360368 0.3419104,30.3002128 C0.3718624,30.3168528 0.4011904,30.3549168 0.4207424,30.3832048 C1.2554464,31.8425328 2.8716064,33.0256368 5.2871104,33.8025168 C6.0176064,34.1371888 6.2372544,35.0681968 6.2559744,35.2990768 C6.2738624,35.5195568 6.2599264,36.0227088 5.7438784,35.9332688 Z" id="Fill-58" fill="#E95514"></path>
            <path d="M38.0735888,16.9099632 C37.8512368,17.0703312 37.6234768,17.2302832 37.3905168,17.3900272 C32.9565808,20.4291152 27.4308528,22.7919952 21.9777168,24.1993232 C20.8326768,24.3532432 20.5599888,22.9350992 21.0084368,22.3429232 C21.1519568,22.1532272 21.3214768,22.0868752 21.4577168,22.0334192 C26.6333808,20.6976432 31.8783088,18.4547792 36.0867728,15.5702352 C36.3078768,15.4186032 36.5239888,15.2669712 36.7351088,15.1147152 C37.6014288,14.6473392 38.2191888,15.6775632 38.2250128,15.6881712 C38.3716528,15.9544112 38.5467888,16.4671312 38.0735888,16.9099632 Z" id="Fill-60" fill="#E95514"></path>
            <path d="M44.0385088,19.3779664 C42.9876928,20.3407984 41.7650688,21.3065424 40.3727168,22.2608464 C33.8011648,26.7650864 25.0451968,29.9173264 17.2493568,30.9621104 C16.0240288,30.9851984 15.8220608,29.5431344 16.3345728,29.0050384 C16.4997248,28.8315664 16.6852608,28.7841424 16.8341888,28.7460784 C24.3951968,27.7327024 32.8872128,24.6757264 39.2607488,20.3073104 C40.6110848,19.3815024 41.7966848,18.4448784 42.8160928,17.5109584 C43.5807008,16.9813904 44.1435488,18.0652784 44.1489568,18.0765104 C44.2560768,18.3011504 44.4599168,18.8775184 44.0385088,19.3779664 Z" id="Fill-62" fill="#E95514"></path>
            <path d="M53.0325328,19.5603408 L53.1294608,20.0755568 C53.2690288,21.6126768 53.5955888,25.2129488 46.7946128,30.8010768 C46.0013008,31.3173328 45.6547728,30.4377008 45.7687568,29.7654448 C45.8602768,29.2258928 46.1469008,28.9453008 46.2694128,28.8257008 C51.2913648,24.7780208 53.4293968,20.6785488 52.5458128,17.5244368 L53.0325328,19.5603408" id="Fill-64" fill="#F2F2F2"></path>
            <path d="M44.0995984,31.8654544 C44.1189424,32.0986224 44.0937744,32.6957904 43.4414864,33.2033104 C40.3942864,35.1687024 36.9516784,36.8634864 33.3786544,38.2242224 C32.1464624,38.5709584 31.7577104,37.5203504 32.0965424,36.8772144 C32.2745904,36.5392144 32.5123344,36.4227344 32.7419664,36.3102064 C36.3445264,34.9380304 39.8156304,33.2293104 42.8879984,31.2474864 C43.7959184,30.7786544 44.0738064,31.5563664 44.0995984,31.8654544" id="Fill-66" fill="#F2F2F2"></path>
            <path d="M53.5428816,24.3380384 C53.5276976,25.0283904 53.5276976,25.9500384 53.4829776,26.6391424 C53.2612496,29.7589344 50.4659376,33.5295584 45.2099856,37.1323264 C42.0993456,39.2645344 38.4905456,41.0880704 34.7290736,42.5207744 C33.5636496,42.8645984 33.2578896,42.0024384 33.6077456,41.4491584 C33.7926576,41.1565024 34.0343536,41.0421024 34.2475536,40.9410144 C38.1138576,39.4685824 41.8231216,37.5938784 45.0204976,35.4023904 C50.7415376,31.4811744 53.6262896,27.3658944 53.5366416,24.0566144 L53.5428816,24.3380384" id="Fill-68" fill="#F2F2F2"></path>
            <path d="M44.036824,25.4899632 C44.097144,25.7347792 44.174104,26.3606512 43.585672,26.8862672 C43.330456,27.0703472 43.069208,27.2535952 42.801928,27.4368432 C40.087944,29.2971952 37.01724,30.9368592 33.792824,32.3065392 C32.587048,32.6790672 32.118008,31.5134352 32.417736,30.8251632 C32.5754,30.4628272 32.8042,30.3376112 33.025512,30.2163472 C36.214152,28.8614352 39.250744,27.2400752 41.934776,25.4003152 C42.198936,25.2191472 42.457272,25.0377712 42.709784,24.8557712 C43.692584,24.2983312 44.033704,25.4776912 44.036824,25.4899632" id="Fill-70" fill="#F2F2F2"></path>
            <path d="M50.8380704,13.03068 C50.9227264,13.203112 51.2110144,13.799656 51.3668064,14.24332 C52.2761824,17.096664 50.6494144,20.75788 46.5923744,24.460904 C45.7934464,25.025 45.2584704,23.913032 45.3549824,23.167976 C45.4059424,22.77548 45.5469664,22.613656 45.6829984,22.45724 C49.6951104,18.795608 51.3037824,15.174744 50.4045984,12.352808 C50.3985664,12.331176 50.3908704,12.301848 50.3850464,12.280008 C50.5196224,12.40876 50.5437504,12.431848 50.8380704,13.03068" id="Fill-72" fill="#F2F2F2"></path>
            <path d="M94.5097296,8.4632288 C92.8684016,7.6514048 90.9175696,7.2451808 88.6578576,7.2451808 L87.7089616,7.2451808 L87.7089616,10.6886208 L88.3040496,10.6886208 C90.5448336,10.6886208 92.2787216,11.2483488 93.5075856,12.3680128 C94.7354096,13.4872608 95.3500496,15.0651488 95.3500496,17.0985568 C95.3500496,19.1140768 94.7354096,20.6817728 93.5075856,21.8008128 C92.2787216,22.9208928 90.5448336,23.4812448 88.3040496,23.4812448 L87.7089616,23.4812448 L87.7089616,27.0076768 L88.6578576,27.0076768 C90.9175696,27.0076768 92.8684016,26.5929248 94.5097296,25.7625888 C96.1504336,24.9322528 97.4036336,23.7707808 98.2682896,22.2775488 C99.1331536,20.7841088 99.5655856,19.0583328 99.5655856,17.0985568 C99.5655856,15.1211008 99.1331536,13.3899168 98.2682896,11.9060448 C97.4036336,10.4227968 96.1504336,9.2748448 94.5097296,8.4632288" id="Fill-74" fill="#F2F2F2"></path>
            <polygon id="Clip-77" points="0 51.792 228.8624 51.792 228.8624 0.047632 0 0.047632"></polygon>
            <polygon id="Fill-76" fill="#F2F2F2" points="81.25832 27.00776 85.394816 27.00776 85.394816 7.245056 81.25832 7.245056"></polygon>
            <path d="M109.234986,22.7532656 C108.31105,22.2307696 107.588874,21.4792656 107.06825,20.4997936 C106.54721,19.5194896 106.287002,18.3767376 106.287002,17.0704976 C106.287002,15.7642576 106.54721,14.6215056 107.06825,13.6412016 C107.588874,12.6617296 108.31105,11.9110576 109.234986,11.3877296 C109.85233,11.0393296 110.54185,10.8173936 111.291274,10.7017456 L111.291274,7.0309616 C109.799082,7.1699056 108.417338,7.5690576 107.156858,8.2531696 C105.574602,9.1115856 104.326394,10.3102896 103.41265,11.8501136 C102.498698,13.3897296 102.041722,15.1304816 102.041722,17.0704976 C102.041722,19.0115536 102.498698,20.7562576 103.41265,22.3054416 C104.326394,23.8546256 105.574602,25.0583216 107.156858,25.9156976 C108.417338,26.6006416 109.799082,26.9993776 111.291274,27.1381136 L111.291274,23.4400816 C110.54185,23.3242256 109.85233,23.1024976 109.234986,22.7532656" id="Fill-78" fill="#F2F2F2"></path>
            <path d="M117.740334,8.2531904 C116.479022,7.5690784 115.097278,7.1699264 113.605502,7.0309824 L113.605502,10.7015584 C114.354718,10.8174144 115.04403,11.0393504 115.66179,11.3877504 C116.58531,11.9110784 117.307694,12.6617504 117.828734,13.6412224 C118.348942,14.6215264 118.609774,15.7642784 118.609774,17.0705184 C118.609774,18.3767584 118.348942,19.5195104 117.828734,20.4998144 C117.307694,21.4792864 116.58531,22.2307904 115.66179,22.7532864 C115.04403,23.1025184 114.354718,23.3242464 113.605502,23.4401024 L113.605502,27.1381344 C115.097278,26.9993984 116.479022,26.6006624 117.740334,25.9157184 C119.321966,25.0583424 120.570174,23.8546464 121.484126,22.3054624 C122.39787,20.7562784 122.855054,19.0115744 122.855054,17.0705184 C122.855054,15.1302944 122.39787,13.3897504 121.484126,11.8501344 C120.570174,10.3103104 119.321966,9.1116064 117.740334,8.2531904" id="Fill-79" fill="#F2F2F2"></path>
            <path d="M132.524371,22.7532656 C131.600435,22.2307696 130.878259,21.4792656 130.357635,20.4997936 C129.836595,19.5194896 129.576387,18.3767376 129.576387,17.0704976 C129.576387,15.7642576 129.836595,14.6215056 130.357635,13.6412016 C130.878259,12.6617296 131.600435,11.9110576 132.524371,11.3877296 C133.141715,11.0393296 133.831235,10.8173936 134.580659,10.7017456 L134.580659,7.0309616 C133.088467,7.1699056 131.706723,7.5690576 130.446243,8.2531696 C128.863987,9.1115856 127.615779,10.3102896 126.702035,11.8501136 C125.788291,13.3897296 125.331107,15.1304816 125.331107,17.0704976 C125.331107,19.0115536 125.788291,20.7562576 126.702035,22.3054416 C127.615779,23.8546256 128.863987,25.0583216 130.446243,25.9156976 C131.706723,26.6006416 133.088467,26.9993776 134.580659,27.1381136 L134.580659,23.4400816 C133.831235,23.3242256 133.141715,23.1024976 132.524371,22.7532656" id="Fill-80" fill="#F2F2F2"></path>
            <path d="M141.02972,8.2531904 C139.768408,7.5690784 138.386664,7.1699264 136.894888,7.0309824 L136.894888,10.7015584 C137.644104,10.8174144 138.333416,11.0393504 138.951176,11.3877504 C139.874696,11.9110784 140.59708,12.6617504 141.11812,13.6412224 C141.638328,14.6215264 141.89916,15.7642784 141.89916,17.0705184 C141.89916,18.3767584 141.638328,19.5195104 141.11812,20.4998144 C140.59708,21.4792864 139.874696,22.2307904 138.951176,22.7532864 C138.333416,23.1025184 137.644104,23.3242464 136.894888,23.4401024 L136.894888,27.1381344 C138.386664,26.9993984 139.768408,26.6006624 141.02972,25.9157184 C142.611352,25.0583424 143.85956,23.8546464 144.773512,22.3054624 C145.687256,20.7562784 146.14444,19.0115744 146.14444,17.0705184 C146.14444,15.1302944 145.687256,13.3897504 144.773512,11.8501344 C143.85956,10.3103104 142.611352,9.1116064 141.02972,8.2531904" id="Fill-81" fill="#F2F2F2"></path>
            <polygon id="Fill-82" fill="#F2F2F2" points="154.221059 10.3805104 159.940227 10.3805104 159.940227 27.0076144 164.096899 27.0076144 164.096899 10.3805104 169.845603 10.3805104 169.845603 7.2451184 154.221059 7.2451184"></polygon>
            <path d="M186.20289,25.4261904 L186.20289,25.4261904 C186.20289,24.5527984 185.494858,23.8445584 184.621258,23.8445584 L179.689578,23.8445584 L179.689578,27.0078224 L184.621258,27.0078224 C185.494858,27.0078224 186.20289,26.2995824 186.20289,25.4261904" id="Fill-83" fill="#E95514"></path>
            <path d="M186.20289,8.8125856 L186.20289,8.8125856 C186.20289,7.9468896 185.501098,7.2450976 184.635402,7.2450976 L179.689578,7.2450976 L179.689578,10.3800736 L184.635402,10.3800736 C185.501098,10.3800736 186.20289,9.6782816 186.20289,8.8125856" id="Fill-84" fill="#E95514"></path>
            <path d="M185.363069,17.0143792 L185.363069,17.0143792 C185.363069,16.1794672 184.686237,15.5028432 183.851533,15.5028432 L179.689661,15.5028432 L179.689661,18.5261232 L183.851533,18.5261232 C184.686237,18.5261232 185.363069,17.8492912 185.363069,17.0143792" id="Fill-85" fill="#E95514"></path>
            <polygon id="Fill-86" fill="#F2F2F2" points="173.229264 27.00776 177.375536 27.00776 177.375536 7.245056 173.229264 7.245056"></polygon>
            <path d="M195.743059,22.7532656 C194.858851,22.2307696 194.170579,21.4842576 193.679699,20.5133136 C193.188195,19.5432016 192.942339,18.4139696 192.942339,17.1262416 C192.942339,15.8202096 193.188195,14.6824496 193.679699,13.7115056 C194.170579,12.7413936 194.858851,11.9946736 195.743059,11.4725936 C196.291971,11.1483216 196.887267,10.9367856 197.519379,10.8138576 L197.519379,7.1183216 C196.031347,7.2622576 194.688915,7.6580816 193.502691,8.3234736 C191.989283,9.1725296 190.815123,10.3618736 189.980003,11.8923376 C189.144051,13.4221776 188.726803,15.1675056 188.726803,17.1262416 C188.726803,19.0672976 189.144051,20.8028496 189.980003,22.3333136 C190.815123,23.8637776 191.994275,25.0533296 193.517459,25.9023856 C194.708675,26.5663216 196.045699,26.9613136 197.519379,27.1060816 L197.519379,23.4117936 C196.887267,23.2886576 196.291971,23.0773296 195.743059,22.7532656" id="Fill-87" fill="#F2F2F2"></path>
            <path d="M205.235909,25.272416 C206.945877,24.003408 208.075525,22.277632 208.626309,20.093424 L204.262885,20.093424 C203.810693,21.157552 203.108277,21.997248 202.155013,22.61272 C201.479221,23.04952 200.702133,23.323872 199.833525,23.450752 L199.833525,27.13568 C201.961573,26.984048 203.763477,26.36504 205.235909,25.272416" id="Fill-88" fill="#F2F2F2"></path>
            <path d="M202.155013,11.6122656 C203.108277,12.2275296 203.810693,13.0672256 204.262885,14.1313536 L208.626309,14.1313536 C208.075525,11.9481856 206.945877,10.2222016 205.235909,8.9534016 C203.763477,7.8607776 201.961573,7.2411456 199.833525,7.0890976 L199.833525,10.7746496 C200.702133,10.9015296 201.479221,11.1750496 202.155013,11.6122656" id="Fill-89" fill="#F2F2F2"></path>
            <polygon id="Fill-90" fill="#F2F2F2" points="211.616288 27.00776 215.769216 27.00776 215.769216 7.245056 211.616288 7.245056"></polygon>
            <polygon id="Fill-91" fill="#F2F2F2" points="224.67588 7.2450768 224.67588 15.2514128 218.08332 15.2514128 218.08332 18.4138448 224.67588 18.4138448 224.67588 27.0077808 228.862296 27.0077808 228.862296 7.2450768"></polygon>
            <polygon id="Fill-92" fill="#F2F2F2" points="82.4765136 38.4523984 82.4765136 40.6393104 85.2545616 40.6393104 85.2545616 41.5384944 82.4765136 41.5384944 82.4765136 43.7765744 85.5750896 43.7765744 85.5750896 44.7269264 81.2584656 44.7269264 81.2584656 37.5120304 85.5750896 37.5120304 85.5750896 38.4523984"></polygon>
            <polygon id="Fill-93" fill="#F2F2F2" points="91.8793616 44.7269264 90.0735056 42.0597424 88.4600496 44.7269264 87.0604176 44.7269264 89.4004176 41.0480304 87.0069616 37.5120304 88.4600496 37.5120304 90.2338736 40.1282544 91.8367216 37.5120304 93.2363536 37.5120304 90.9069616 41.1295664 93.3326576 44.7269264"></polygon>
            <path d="M98.9957488,39.7298512 C98.9957488,39.3209232 98.8763568,39.0093392 98.6377808,38.7946832 C98.3989968,38.5800272 98.0162768,38.4726992 97.4889968,38.4726992 L96.2709488,38.4726992 L96.2709488,40.9763952 L97.4889968,40.9763952 C98.4934288,40.9763952 98.9957488,40.5610192 98.9957488,39.7298512 L98.9957488,39.7298512 Z M96.2709488,41.9269552 L96.2709488,44.7268432 L95.0529008,44.7268432 L95.0529008,37.5121552 L97.6173328,37.5121552 C98.4863568,37.5121552 99.1398928,37.7097552 99.5781488,38.1049552 C100.016197,38.4999472 100.235221,39.0415792 100.235221,39.7298512 C100.235221,40.4110512 100.010789,40.9474832 99.5621328,41.3391472 C99.1132688,41.7310192 98.4651408,41.9269552 97.6173328,41.9269552 L96.2709488,41.9269552 Z" id="Fill-94" fill="#F2F2F2"></path>
            <polygon id="Fill-95" fill="#F2F2F2" points="103.33388 43.8173216 105.940952 43.8173216 105.940952 44.7269056 102.115832 44.7269056 102.115832 37.5122176 103.33388 37.5122176"></polygon>
            <path d="M109.905078,38.8200384 C109.527558,39.0313664 109.233446,39.3346304 109.023574,39.7298304 C108.813286,40.1248224 108.708454,40.5847104 108.708454,41.1092864 C108.708454,41.6338624 108.813286,42.0937504 109.023574,42.4887424 C109.233446,42.8841504 109.527558,43.1874144 109.905078,43.3985344 C110.282598,43.6096544 110.713574,43.7151104 111.198006,43.7151104 C111.675158,43.7151104 112.100934,43.6096544 112.474918,43.3985344 C112.848902,43.1874144 113.140934,42.8841504 113.351014,42.4887424 C113.561094,42.0937504 113.666342,41.6338624 113.666342,41.1092864 C113.666342,40.5847104 113.561094,40.1248224 113.351014,39.7298304 C113.140934,39.3346304 112.848902,39.0313664 112.474918,38.8200384 C112.100934,38.6089184 111.675158,38.5034624 111.198006,38.5034624 C110.713574,38.5034624 110.282598,38.6089184 109.905078,38.8200384 M113.09455,37.8902784 C113.660934,38.2037344 114.106054,38.6415744 114.430326,39.2035904 C114.75439,39.7653984 114.916422,40.4008384 114.916422,41.1092864 C114.916422,41.8179424 114.75439,42.4531744 114.430326,43.0151904 C114.106054,43.5769984 113.660934,44.0167104 113.09455,44.3334944 C112.528374,44.6502784 111.896054,44.8085664 111.198006,44.8085664 C110.492886,44.8085664 109.85703,44.6502784 109.290646,44.3334944 C108.72447,44.0167104 108.27727,43.5769984 107.94967,43.0151904 C107.621862,42.4531744 107.458166,41.8179424 107.458166,41.1092864 C107.458166,40.4008384 107.621862,39.7653984 107.94967,39.2035904 C108.27727,38.6415744 108.72447,38.2037344 109.290646,37.8902784 C109.85703,37.5768224 110.492886,37.4204064 111.198006,37.4204064 C111.896054,37.4204064 112.528374,37.5768224 113.09455,37.8902784" id="Fill-96" fill="#F2F2F2"></path>
            <path d="M118.175429,41.0172464 L119.521813,41.0172464 C120.504821,41.0172464 120.996325,40.6016624 120.996325,39.7704944 C120.996325,39.3755024 120.876933,39.0672464 120.638357,38.8457264 C120.399573,38.6244144 120.027461,38.5135504 119.521813,38.5135504 L118.175429,38.5135504 L118.175429,41.0172464 Z M120.921653,44.7269264 L119.040917,41.8450864 L118.175429,41.8450864 L118.175429,44.7269264 L116.957381,44.7269264 L116.957381,37.5120304 L119.617909,37.5120304 C120.479861,37.5120304 121.133397,37.7131664 121.578725,38.1152304 C122.023845,38.5168784 122.246405,39.0483184 122.246405,39.7091344 C122.246405,40.2748944 122.080837,40.7379024 121.749701,41.0989904 C121.418357,41.4602864 120.939333,41.6917904 120.312421,41.7937104 L122.289253,44.7269264 L120.921653,44.7269264 Z" id="Fill-97" fill="#F2F2F2"></path>
            <polygon id="Fill-98" fill="#F2F2F2" points="125.377117 38.4523984 125.377117 40.6393104 128.155165 40.6393104 128.155165 41.5384944 125.377117 41.5384944 125.377117 43.7765744 128.475693 43.7765744 128.475693 44.7269264 124.159069 44.7269264 124.159069 37.5120304 128.475693 37.5120304 128.475693 38.4523984"></polygon>
            <polygon id="Fill-99" fill="#F2F2F2" points="138.637533 37.5121344 138.637533 38.4525024 136.532365 38.4525024 136.532365 44.7270304 135.303709 44.7270304 135.303709 38.4525024 133.209357 38.4525024 133.209357 37.5121344"></polygon>
            <path d="M141.57572,41.0172464 L142.922104,41.0172464 C143.905112,41.0172464 144.396616,40.6016624 144.396616,39.7704944 C144.396616,39.3755024 144.277224,39.0672464 144.038648,38.8457264 C143.799864,38.6244144 143.427752,38.5135504 142.922104,38.5135504 L141.57572,38.5135504 L141.57572,41.0172464 Z M144.321944,44.7269264 L142.441208,41.8450864 L141.57572,41.8450864 L141.57572,44.7269264 L140.357672,44.7269264 L140.357672,37.5120304 L143.0182,37.5120304 C143.880152,37.5120304 144.533688,37.7131664 144.979016,38.1152304 C145.424136,38.5168784 145.646696,39.0483184 145.646696,39.7091344 C145.646696,40.2748944 145.481128,40.7379024 145.149992,41.0989904 C144.818648,41.4602864 144.339624,41.6917904 143.712712,41.7937104 L145.689544,44.7269264 L144.321944,44.7269264 Z" id="Fill-100" fill="#F2F2F2"></path>
            <path d="M151.715824,42.26404 L150.465744,38.891736 L149.215456,42.26404 L151.715824,42.26404 Z M152.057776,43.163224 L148.873504,43.163224 L148.296512,44.726968 L146.992976,44.726968 L149.771232,37.624392 L151.170864,37.624392 L153.938512,44.726968 L152.634768,44.726968 L152.057776,43.163224 Z" id="Fill-101" fill="#F2F2F2"></path>
            <path d="M160.167758,42.9997568 C160.65219,42.5500608 160.894302,41.9202368 160.894302,41.1092448 C160.894302,40.2986688 160.65219,39.6684288 160.167758,39.2187328 C159.683326,38.7690368 158.988814,38.5441888 158.084222,38.5441888 L156.876782,38.5441888 L156.876782,43.6743008 L158.084222,43.6743008 C158.988814,43.6743008 159.683326,43.4494528 160.167758,42.9997568 M161.669102,43.0151488 C161.359182,43.5567808 160.906782,43.9775648 160.311902,44.2772928 C159.717022,44.5772288 159.006494,44.7269888 158.180318,44.7269888 L155.658734,44.7269888 L155.658734,37.5120928 L158.180318,37.5120928 C159.006494,37.5120928 159.717022,37.6603968 160.311902,37.9565888 C160.906782,38.2531968 161.359182,38.6704448 161.669102,39.2083328 C161.979022,39.7468448 162.133774,40.3804128 162.133774,41.1092448 C162.133774,41.8382848 161.979022,42.4735168 161.669102,43.0151488" id="Fill-102" fill="#F2F2F2"></path>
            <polygon id="Fill-103" fill="#F2F2F2" points="164.174608 44.726864 165.392656 44.726864 165.392656 37.511968 164.174608 37.511968"></polygon>
            <polygon id="Fill-104" fill="#F2F2F2" points="173.780589 44.7269264 172.562541 44.7269264 168.897373 39.4025424 168.897373 44.7269264 167.679325 44.7269264 167.679325 37.5222224 168.897373 37.5222224 172.562541 42.8669904 172.562541 37.5222224 173.780589 37.5222224"></polygon>
            <path d="M181.762485,38.0845296 C182.360901,38.5069776 182.756101,39.0827216 182.948501,39.8115536 L181.666389,39.8115536 C181.502277,39.4232176 181.233541,39.1130896 180.859557,38.8813776 C180.485573,38.6500816 180.042117,38.5340176 179.529397,38.5340176 C179.059109,38.5340176 178.637077,38.6396816 178.263093,38.8508016 C177.889109,39.0619216 177.596869,39.3618576 177.386789,39.7501936 C177.176709,40.1385296 177.071669,40.5948816 177.071669,41.1196656 C177.071669,41.6712816 177.178373,42.1448976 177.392197,42.5400976 C177.606021,42.9350896 177.906789,43.2366896 178.295125,43.4444816 C178.683253,43.6522736 179.133989,43.7560656 179.646709,43.7560656 C180.273621,43.7560656 180.811509,43.5705296 181.260165,43.1990416 C181.709029,42.8279696 181.979637,42.3185776 182.072405,41.6712816 L179.304965,41.6712816 L179.304965,40.8128656 L183.098053,40.8128656 L183.098053,41.9269136 C183.012565,42.4581456 182.814965,42.9402896 182.505045,43.3729296 C182.195333,43.8055696 181.785573,44.1510576 181.276389,44.4100176 C180.766997,44.6689776 180.184597,44.7981456 179.529397,44.7981456 C178.795573,44.7981456 178.147237,44.6417296 177.584597,44.3282736 C177.021749,44.0150256 176.587237,43.5807216 176.281061,43.0253616 C175.974677,42.4702096 175.821589,41.8347696 175.821589,41.1196656 C175.821589,40.4039376 175.974677,39.7689136 176.281061,39.2135536 C176.587237,38.6586096 177.019877,38.2259696 177.579189,37.9156336 C178.138501,37.6059216 178.784757,37.4509616 179.518581,37.4509616 C180.416101,37.4509616 181.164069,37.6622896 181.762485,38.0845296" id="Fill-105" fill="#F2F2F2"></path>
            <polygon id="Fill-106" fill="#F2F2F2" points="192.907042 37.5121344 192.907042 38.4525024 189.669522 38.4525024 189.669522 40.6901664 192.340658 40.6901664 192.340658 41.5897664 189.669522 41.5897664 189.669522 44.7270304 188.451474 44.7270304 188.451474 37.5121344"></polygon>
            <path d="M195.973606,37.5121344 L195.973606,41.7938144 C195.973606,42.4344544 196.121286,42.9111904 196.417062,43.2246464 C196.71263,43.5381024 197.12759,43.6947264 197.661942,43.6947264 C198.189014,43.6947264 198.60023,43.5381024 198.896006,43.2246464 C199.191574,42.9111904 199.339462,42.4344544 199.339462,41.7938144 L199.339462,37.5121344 L200.557718,37.5121344 L200.557718,41.7938144 C200.557718,42.7820224 200.290438,43.5295744 199.756294,44.0370944 C199.221942,44.5448224 198.516822,44.7981664 197.640518,44.7981664 C196.771286,44.7981664 196.073238,44.5448224 195.546166,44.0370944 C195.019094,43.5295744 194.755558,42.7820224 194.755558,41.7938144 L194.755558,37.5121344 L195.973606,37.5121344 Z" id="Fill-107" fill="#F2F2F2"></path>
            <polygon id="Fill-108" fill="#F2F2F2" points="207.641824 37.5121344 207.641824 38.4525024 205.536656 38.4525024 205.536656 44.7270304 204.308 44.7270304 204.308 38.4525024 202.213648 38.4525024 202.213648 37.5121344"></polygon>
            <path d="M210.526618,37.5121344 L210.526618,41.7938144 C210.526618,42.4344544 210.674298,42.9111904 210.970074,43.2246464 C211.265642,43.5381024 211.680602,43.6947264 212.214954,43.6947264 C212.742026,43.6947264 213.153242,43.5381024 213.449018,43.2246464 C213.744586,42.9111904 213.892474,42.4344544 213.892474,41.7938144 L213.892474,37.5121344 L215.11073,37.5121344 L215.11073,41.7938144 C215.11073,42.7820224 214.84345,43.5295744 214.309098,44.0370944 C213.774954,44.5448224 213.069834,44.7981664 212.19353,44.7981664 C211.324298,44.7981664 210.62625,44.5448224 210.099178,44.0370944 C209.572106,43.5295744 209.30857,42.7820224 209.30857,41.7938144 L209.30857,37.5121344 L210.526618,37.5121344 Z" id="Fill-109" fill="#F2F2F2"></path>
            <path d="M218.561824,41.0172464 L219.908208,41.0172464 C220.891216,41.0172464 221.38272,40.6016624 221.38272,39.7704944 C221.38272,39.3755024 221.263328,39.0672464 221.024752,38.8457264 C220.785968,38.6244144 220.413856,38.5135504 219.908208,38.5135504 L218.561824,38.5135504 L218.561824,41.0172464 Z M221.308048,44.7269264 L219.427312,41.8450864 L218.561824,41.8450864 L218.561824,44.7269264 L217.343776,44.7269264 L217.343776,37.5120304 L220.004304,37.5120304 C220.866256,37.5120304 221.519792,37.7131664 221.96512,38.1152304 C222.41024,38.5168784 222.6328,39.0483184 222.6328,39.7091344 C222.6328,40.2748944 222.467232,40.7379024 222.136096,41.0989904 C221.804752,41.4602864 221.325728,41.6917904 220.698816,41.7937104 L222.675648,44.7269264 L221.308048,44.7269264 Z" id="Fill-110" fill="#F2F2F2"></path>
            <polygon id="Fill-111" fill="#F2F2F2" points="225.763616 38.4523984 225.763616 40.6393104 228.541664 40.6393104 228.541664 41.5384944 225.763616 41.5384944 225.763616 43.7765744 228.862192 43.7765744 228.862192 44.7269264 224.545568 44.7269264 224.545568 37.5120304 228.862192 37.5120304 228.862192 38.4523984"></polygon>
            <polygon id="Fill-1" fill="#F2F2F2" points="66.819168 47.4762269 67.615392 47.4762269 67.615392 5.74872291 66.819168 5.74872291"></polygon>
        </g>
    </g>
</svg>