<?xml version="1.0" encoding="UTF-8"?>
<svg width="158px" height="32px" viewBox="0 0 158 32" version="1.1" xmlns="http://www.w3.org/2000/svg" xmlns:xlink="http://www.w3.org/1999/xlink">
    <!-- Generator: Sketch 59 (86127) - https://sketch.com -->
    <title>Logo</title>
    <desc>Created with Sketch.</desc>
    <defs>
        <polygon id="path-1" points="0 32 157.257143 32 157.257143 0 0 0"></polygon>
    </defs>
    <g id="Logo" stroke="none" stroke-width="1" fill="none" fill-rule="evenodd">
        <g id="编组">
            <path d="M50.2034511,29.3232807 C50.4000087,29.1522124 50.4983805,28.910884 50.4983805,28.5996895 C50.4983805,28.2936192 50.3974983,28.0536703 50.1959198,27.8799414 C49.9946203,27.7060154 49.7146605,27.6192988 49.3563195,27.6192988 L48.2218828,27.6192988 L48.2218828,29.5801788 L49.3712891,29.5801788 C49.7296302,29.5801788 50.0068005,29.4945461 50.2034511,29.3232807 L50.2034511,29.3232807 Z M48.2218828,27.0901302 L49.3563195,27.0901302 C49.6896492,27.0901302 49.9447836,27.0097202 50.1215366,26.8489003 C50.2980108,26.6880803 50.3862478,26.46242 50.3862478,26.1720178 C50.3862478,25.8917654 50.2991265,25.6714263 50.1249768,25.5105078 C49.9508272,25.3497864 49.6847213,25.2691793 49.3264732,25.2691793 L48.2218828,25.2691793 L48.2218828,27.0901302 Z M50.8974463,27.81382 C51.0990248,28.0627361 51.2,28.3558975 51.2,28.6930084 C51.2,29.1392049 51.0543019,29.4972067 50.7633706,29.7668166 C50.4721604,30.0367222 50.0505007,30.1714286 49.4981125,30.1714286 L47.5428571,30.1714286 L47.5428571,24.6857143 L49.4684522,24.6857143 C49.995829,24.6857143 50.3962896,24.8076103 50.6700197,25.0513038 C50.9435639,25.2951943 51.080615,25.6298417 51.080615,26.0552459 C51.080615,26.408025 50.9896815,26.6932045 50.8080935,26.91108 C50.6264126,27.1289556 50.3936861,27.2690818 50.1102862,27.3312616 C50.4335741,27.4039853 50.6962398,27.5647067 50.8974463,27.81382 L50.8974463,27.81382 Z" id="Fill-1" fill="#E6E6E6"></path>
            <path d="M55.7714286,25.6 L55.7714286,30.0977661 L55.1098859,30.0977661 L55.1098859,29.0409695 C55.007901,29.4068955 54.8272992,29.6869165 54.5680802,29.8805138 C54.3088613,30.0745262 54.0071637,30.1714286 53.6630782,30.1714286 C53.2024256,30.1714286 52.8291757,30.0034575 52.5431473,29.667619 C52.2572094,29.3317805 52.1142857,28.8498622 52.1142857,28.2216565 L52.1142857,25.6 L52.7761001,25.6 L52.7761001,28.1479941 C52.7761001,28.5957787 52.8777227,28.9413696 53.0814206,29.1842482 C53.2850279,29.4273342 53.561184,29.5488254 53.910251,29.5488254 C54.2737191,29.5488254 54.5644573,29.4164405 54.7827374,29.1514632 C55.0006552,28.8866934 55.1098859,28.500225 55.1098859,27.9922654 L55.1098859,25.6 L55.7714286,25.6 Z" id="Fill-3" fill="#E6E6E6"></path>
            <mask id="mask-2" fill="white">
                <use xlink:href="#path-1"></use>
            </mask>
            <g id="Clip-6"></g>
            <path d="M56.8006167,30.1714286 L57.4527124,30.1714286 L57.4527124,26.2397294 L56.8006167,26.2397294 L56.8006167,30.1714286 Z M56.8074912,24.7968125 C56.8889139,24.7228075 56.9963168,24.6857143 57.1300571,24.6857143 C57.2637975,24.6857143 57.3712897,24.7228075 57.4527124,24.7968125 C57.5337779,24.8707269 57.5744893,24.9674957 57.5744893,25.0867563 C57.5744893,25.2061076 57.5337779,25.3028764 57.4527124,25.3768815 C57.3712897,25.4508865 57.2637975,25.4877983 57.1300571,25.4877983 C56.9963168,25.4877983 56.8889139,25.4508865 56.8074912,25.3768815 C56.7264256,25.3028764 56.6857143,25.2061076 56.6857143,25.0867563 C56.6857143,24.9674957 56.7264256,24.8707269 56.8074912,24.7968125 L56.8074912,24.7968125 Z" id="Fill-5" fill="#E6E6E6" mask="url(#mask-2)"></path>
            <polygon id="Fill-7" fill="#E6E6E6" mask="url(#mask-2)" points="58.5142857 30.1714286 59.4285714 30.1714286 59.4285714 24.6857143 58.5142857 24.6857143"></polygon>
            <path d="M61.5227425,27.0247246 C61.2456708,27.2867019 61.1074934,27.6478159 61.1074934,28.1079734 C61.1074934,28.568131 61.2456708,28.9292449 61.5227425,29.1911293 C61.7994046,29.4531066 62.1681508,29.5839558 62.628469,29.5839558 C62.9245927,29.5839558 63.1891681,29.5227626 63.4219903,29.4003764 C63.6551199,29.2780831 63.8371371,29.1054775 63.9689639,28.8826526 C64.1004833,28.6600137 64.1662431,28.4017563 64.1662431,28.1079734 C64.1662431,27.8142835 64.1004833,27.5547242 63.9689639,27.3293883 C63.8371371,27.1043315 63.6551199,26.9318189 63.4219903,26.8117576 C63.1891681,26.6918822 62.9245927,26.6318981 62.628469,26.6318981 C62.1681508,26.6318981 61.7994046,26.7628402 61.5227425,27.0247246 M63.5290292,26.3308613 C63.8333472,26.5267165 64.0454787,26.7886939 64.1662431,27.1166073 L64.1662431,24.6857143 L64.9142857,24.6857143 L64.9142857,30.1200933 L64.1662431,30.1200933 L64.1662431,29.0918997 C64.0454787,29.4199991 63.8333472,29.6819764 63.5290292,29.8776457 C63.2247111,30.0736869 62.8533018,30.1714286 62.4146986,30.1714286 C62.0148139,30.1714286 61.6583592,30.0883807 61.3460517,29.9218201 C61.0335393,29.7553524 60.7879133,29.5167177 60.6100957,29.2058231 C60.4318684,28.8949284 60.3428571,28.5290715 60.3428571,28.1079734 C60.3428571,27.6869683 60.4318684,27.3198094 60.6100957,27.0064038 C60.7879133,26.6930912 61.0335393,26.4532476 61.3460517,26.2866869 C61.6583592,26.1203122 62.0148139,26.0370784 62.4146986,26.0370784 C62.8533018,26.0370784 63.2247111,26.135006 63.5290292,26.3308613" id="Fill-8" fill="#E6E6E6" mask="url(#mask-2)"></path>
            <polygon id="Fill-9" fill="#E6E6E6" mask="url(#mask-2)" points="67.596858 25.6 69.0872918 29.0176012 70.4684202 25.6 71.3142857 25.6 68.5846746 32 67.7223298 32 68.6767706 29.8720766 66.7428571 25.6"></polygon>
            <path d="M72.8531507,26.4281961 C72.6237008,26.5472737 72.4383838,26.7300033 72.2974064,26.9761793 C72.1564291,27.2227667 72.085837,27.5271447 72.085837,27.8898275 C72.085837,28.2469575 72.1564291,28.5488676 72.2974064,28.7952492 C72.4383838,29.0415281 72.6237008,29.2242577 72.8531507,29.3432325 C73.082704,29.4623101 73.3330319,29.5217461 73.6042376,29.5217461 C73.8750299,29.5217461 74.1254611,29.4623101 74.3548077,29.3432325 C74.584361,29.2242577 74.769678,29.0415281 74.9106553,28.7952492 C75.0519428,28.5488676 75.1225348,28.2469575 75.1225348,27.8898275 C75.1225348,27.5271447 75.0519428,27.2227667 74.9106553,26.9761793 C74.769678,26.7300033 74.584361,26.5472737 74.3548077,26.4281961 C74.1254611,26.3092213 73.8750299,26.2495797 73.6042376,26.2495797 C73.3330319,26.2495797 73.082704,26.3092213 72.8531507,26.4281961 M74.7779464,25.8759968 C75.1238784,26.0601661 75.3946707,26.3253657 75.5911502,26.6718013 C75.7873195,27.0183398 75.8857143,27.4243142 75.8857143,27.8898275 C75.8857143,28.3554436 75.7873195,28.7599784 75.5911502,29.1037405 C75.3946707,29.4475025 75.1238784,29.7113653 74.7779464,29.8954318 C74.4324279,30.079601 74.0410193,30.1714286 73.6042376,30.1714286 C73.1669391,30.1714286 72.7756339,30.079601 72.4301153,29.8954318 C72.0842867,29.7113653 71.8121508,29.4475025 71.6130874,29.1037405 C71.413714,28.7599784 71.3142857,28.3554436 71.3142857,27.8898275 C71.3142857,27.4243142 71.413714,27.0183398 71.6130874,26.6718013 C71.8121508,26.3253657 72.0842867,26.0601661 72.4301153,25.8759968 C72.7756339,25.6920332 73.1669391,25.6 73.6042376,25.6 C74.0410193,25.6 74.4324279,25.6920332 74.7779464,25.8759968" id="Fill-10" fill="#E6E6E6" mask="url(#mask-2)"></path>
            <path d="M79.5428571,25.6 L79.5428571,30.0977661 L78.881405,30.0977661 L78.881405,29.0409695 C78.7794202,29.4068955 78.5988183,29.6869165 78.3395994,29.8805138 C78.0803804,30.0745262 77.7785923,30.1714286 77.4345973,30.1714286 C76.9739448,30.1714286 76.6006043,30.0034575 76.3146664,29.667619 C76.0287285,29.3317805 75.8857143,28.8498622 75.8857143,28.2216565 L75.8857143,25.6 L76.5475287,25.6 L76.5475287,28.1479941 C76.5475287,28.5957787 76.6492418,28.9413696 76.8528491,29.1842482 C77.0565471,29.4273342 77.3326125,29.5488254 77.6816796,29.5488254 C78.0452382,29.5488254 78.3359765,29.4164405 78.554166,29.1514632 C78.7720838,28.8866934 78.881405,28.500225 78.881405,27.9922654 L78.881405,25.6 L79.5428571,25.6 Z" id="Fill-11" fill="#E6E6E6" mask="url(#mask-2)"></path>
            <path d="M82.428701,25.858026 C82.6442463,25.6860087 82.9013976,25.6 83.2,25.6 L83.2,26.4110131 L83.0258282,26.4110131 C82.7064616,26.4110131 82.4452814,26.518913 82.2420551,26.734609 C82.0389838,26.9504088 81.937332,27.3068935 81.937332,27.8037519 L81.937332,30.1714286 L81.3714286,30.1714286 L81.3714286,25.6736624 L81.937332,25.6736624 L81.937332,26.5831342 C82.0493659,26.2717807 82.2130007,26.0300434 82.428701,25.858026" id="Fill-12" fill="#E6E6E6" mask="url(#mask-2)"></path>
            <polygon id="Fill-13" fill="#E6E6E6" mask="url(#mask-2)" points="88.6857143 24.6857143 88.6857143 25.2613945 86.5683204 25.2613945 86.5683204 27.1600947 88.3627481 27.1600947 88.3627481 27.7126177 86.5683204 27.7126177 86.5683204 30.1714286 85.9428571 30.1714286 85.9428571 24.6857143"></polygon>
            <path d="M89.7148131,30.1714286 L90.3669088,30.1714286 L90.3669088,26.2397294 L89.7148131,26.2397294 L89.7148131,30.1714286 Z M89.7217769,24.7968125 C89.8031996,24.7228075 89.9106918,24.6857143 90.0444321,24.6857143 C90.1780832,24.6857143 90.2854861,24.7228075 90.3669088,24.7968125 C90.4480637,24.8707269 90.4886857,24.9674957 90.4886857,25.0867563 C90.4886857,25.2061076 90.4480637,25.3028764 90.3669088,25.3768815 C90.2854861,25.4508865 90.1780832,25.4877983 90.0444321,25.4877983 C89.9106918,25.4877983 89.8031996,25.4508865 89.7217769,25.3768815 C89.6406221,25.3028764 89.6,25.2061076 89.6,25.0867563 C89.6,24.9674957 89.6406221,24.8707269 89.7217769,24.7968125 L89.7217769,24.7968125 Z" id="Fill-14" fill="#E6E6E6" mask="url(#mask-2)"></path>
            <path d="M94.6568103,26.1039133 C94.9427765,26.4397518 95.0857143,26.9244714 95.0857143,27.5580721 L95.0857143,30.1714286 L94.4241966,30.1714286 L94.4241966,27.6235383 C94.4241966,27.1758574 94.3222923,26.8317189 94.1189365,26.5913304 C93.9151278,26.3509419 93.6387633,26.2307995 93.2898428,26.2307995 C92.9263387,26.2307995 92.6353905,26.3633918 92.4173605,26.6281616 C92.1990588,26.8931389 92.0900891,27.2793998 92.0900891,27.7874631 L92.0900891,30.1714286 L91.4285714,30.1714286 L91.4285714,25.6737662 L92.0900891,25.6737662 L92.0900891,26.738759 C92.1918123,26.3728331 92.372432,26.0914633 92.6317673,25.8948572 C92.8910119,25.6983549 93.1904748,25.6 93.5297936,25.6 C93.995202,25.6 94.370844,25.7679711 94.6568103,26.1039133" id="Fill-15" fill="#E6E6E6" mask="url(#mask-2)"></path>
            <path d="M97.1798854,26.6920589 C96.902916,26.9817322 96.7646362,27.3810226 96.7646362,27.8898275 C96.7646362,28.3986324 96.902916,28.7979228 97.1798854,29.0874933 C97.4565475,29.3771665 97.8253961,29.5218489 98.2856119,29.5218489 C98.5817355,29.5218489 98.8463109,29.4541865 99.0791332,29.3188617 C99.3122627,29.1836397 99.49428,28.9927864 99.6261067,28.7464048 C99.7576262,28.5002288 99.8233859,28.2146688 99.8233859,27.8898275 C99.8233859,27.5650891 99.7576262,27.2780894 99.6261067,27.0289313 C99.49428,26.7800818 99.3122627,26.5893313 99.0791332,26.4565773 C98.8463109,26.3240289 98.5817355,26.2577033 98.2856119,26.2577033 C97.8253961,26.2577033 97.4565475,26.4024885 97.1798854,26.6920589 M99.186172,25.9248413 C99.4904901,26.1414021 99.702724,26.4310753 99.8233859,26.7936554 L99.8233859,25.6567624 L100.571429,25.6567624 L100.571429,30.1146662 L99.8233859,30.1146662 L99.8233859,28.9777732 C99.702724,29.3405589 99.4904901,29.6302321 99.186172,29.8465873 C98.881854,30.0633538 98.5104446,30.1714286 98.0718415,30.1714286 C97.6719567,30.1714286 97.3155021,30.079601 97.0031945,29.8954318 C96.6906821,29.7113653 96.4450562,29.4475025 96.2672386,29.1037405 C96.0891137,28.7599784 96,28.3554436 96,27.8898275 C96,27.4243142 96.0891137,27.0183398 96.2672386,26.6718013 C96.4450562,26.3253657 96.6906821,26.0601661 97.0031945,25.8759968 C97.3155021,25.6920332 97.6719567,25.6 98.0718415,25.6 C98.5104446,25.6 98.881854,25.7082804 99.186172,25.9248413" id="Fill-16" fill="#E6E6E6" mask="url(#mask-2)"></path>
            <path d="M104.713953,26.1039133 C104.999919,26.4397518 105.142857,26.9244714 105.142857,27.5580721 L105.142857,30.1714286 L104.48143,30.1714286 L104.48143,27.6235383 C104.48143,27.1758574 104.379435,26.8317189 104.176079,26.5913304 C103.972271,26.3509419 103.695997,26.2307995 103.347076,26.2307995 C102.983482,26.2307995 102.692533,26.3633918 102.474503,26.6281616 C102.256292,26.8931389 102.147232,27.2793998 102.147232,27.7874631 L102.147232,30.1714286 L101.485714,30.1714286 L101.485714,25.6737662 L102.147232,25.6737662 L102.147232,26.738759 C102.248955,26.3728331 102.429575,26.0914633 102.68891,25.8948572 C102.948155,25.6983549 103.247618,25.6 103.587027,25.6 C104.052435,25.6 104.427987,25.7679711 104.713953,26.1039133" id="Fill-17" fill="#E6E6E6" mask="url(#mask-2)"></path>
            <path d="M109.126638,26.0546132 C109.444707,26.3578601 109.640561,26.7638345 109.714286,27.2726394 L109.05076,27.2726394 C109.004596,26.9532482 108.878764,26.7030618 108.673866,26.5216689 C108.468797,26.3403789 108.214204,26.2495797 107.910002,26.2495797 C107.688655,26.2495797 107.486944,26.3093241 107.305043,26.4281961 C107.122884,26.5473765 106.976467,26.7300033 106.865966,26.9761793 C106.755378,27.2227667 106.700084,27.5271447 106.700084,27.8899303 C106.700084,28.2525103 106.755378,28.5569912 106.865966,28.8033728 C106.976467,29.0496517 107.122884,29.2323813 107.305043,29.3514589 C107.486944,29.4705365 107.688655,29.5299725 107.910002,29.5299725 C108.214204,29.5299725 108.468797,29.4381449 108.673866,29.2539757 C108.878764,29.0700121 109.004596,28.8181804 109.05076,28.4987892 L109.714286,28.4987892 C109.640561,29.0131469 109.444707,29.4204581 109.126638,29.7208257 C108.808828,30.0211933 108.40756,30.1714286 107.92361,30.1714286 C107.559636,30.1714286 107.237002,30.079601 106.955969,29.8954318 C106.674677,29.7114682 106.454621,29.4475025 106.295716,29.1037405 C106.136466,28.7599784 106.057143,28.3554436 106.057143,27.8899303 C106.057143,27.4243142 106.136466,27.0183398 106.295716,26.6718013 C106.454621,26.3253657 106.674677,26.0601661 106.955969,25.8759968 C107.237002,25.6920332 107.559636,25.6 107.92361,25.6 C108.40756,25.6 108.808828,25.7516749 109.126638,26.0546132" id="Fill-18" fill="#E6E6E6" mask="url(#mask-2)"></path>
            <path d="M110.743474,30.1714286 L111.39557,30.1714286 L111.39557,26.2397294 L110.743474,26.2397294 L110.743474,30.1714286 Z M110.750527,24.7968125 C110.83186,24.7228075 110.939263,24.6857143 111.073004,24.6857143 C111.206744,24.6857143 111.314147,24.7228075 111.39557,24.7968125 C111.476724,24.8707269 111.517436,24.9674957 111.517436,25.0867563 C111.517436,25.2061076 111.476724,25.3028764 111.39557,25.3768815 C111.314147,25.4508865 111.206744,25.4877983 111.073004,25.4877983 C110.939263,25.4877983 110.83186,25.4508865 110.750527,25.3768815 C110.669372,25.3028764 110.628571,25.2061076 110.628571,25.0867563 C110.628571,24.9674957 110.669372,24.8707269 110.750527,24.7968125 L110.750527,24.7968125 Z" id="Fill-19" fill="#E6E6E6" mask="url(#mask-2)"></path>
            <path d="M112.722743,26.6920589 C112.445671,26.9817322 112.307493,27.3810226 112.307493,27.8898275 C112.307493,28.3986324 112.445671,28.7979228 112.722743,29.0874933 C112.999405,29.3771665 113.368151,29.5218489 113.828469,29.5218489 C114.124593,29.5218489 114.389168,29.4541865 114.62199,29.3188617 C114.85512,29.1836397 115.037137,28.9927864 115.168964,28.7464048 C115.300483,28.5002288 115.366243,28.2146688 115.366243,27.8898275 C115.366243,27.5650891 115.300483,27.2780894 115.168964,27.0289313 C115.037137,26.7800818 114.85512,26.5893313 114.62199,26.4565773 C114.389168,26.3240289 114.124593,26.2577033 113.828469,26.2577033 C113.368151,26.2577033 112.999405,26.4024885 112.722743,26.6920589 M114.729029,25.9248413 C115.033347,26.1414021 115.245479,26.4310753 115.366243,26.7936554 L115.366243,25.6567624 L116.114286,25.6567624 L116.114286,30.1146662 L115.366243,30.1146662 L115.366243,28.9777732 C115.245479,29.3405589 115.033347,29.6302321 114.729029,29.8465873 C114.424711,30.0633538 114.053302,30.1714286 113.614699,30.1714286 C113.214814,30.1714286 112.858359,30.079601 112.546052,29.8954318 C112.233539,29.7113653 111.987913,29.4475025 111.810096,29.1037405 C111.631868,28.7599784 111.542857,28.3554436 111.542857,27.8898275 C111.542857,27.4243142 111.631868,27.0183398 111.810096,26.6718013 C111.987913,26.3253657 112.233539,26.0601661 112.546052,25.8759968 C112.858359,25.6920332 113.214814,25.6 113.614699,25.6 C114.053302,25.6 114.424711,25.7082804 114.729029,25.9248413" id="Fill-20" fill="#E6E6E6" mask="url(#mask-2)"></path>
            <polygon id="Fill-21" fill="#E6E6E6" mask="url(#mask-2)" points="117.028571 30.1714286 117.942857 30.1714286 117.942857 24.6857143 117.028571 24.6857143"></polygon>
            <polygon id="Fill-22" fill="#E6E6E6" mask="url(#mask-2)" points="121.327269 25.2613945 121.327269 27.1367404 123.216886 27.1367404 123.216886 27.6814785 121.327269 27.6814785 121.327269 29.5956498 123.428571 29.5956498 123.428571 30.1714286 120.685714 30.1714286 120.685714 24.6857143 123.428571 24.6857143 123.428571 25.2613945"></polygon>
            <path d="M127.571016,26.1039133 C127.856975,26.4397518 128,26.9244714 128,27.5580721 L128,30.1714286 L127.338499,30.1714286 L127.338499,27.6235383 C127.338499,27.1758574 127.236506,26.8317189 127.033156,26.5913304 C126.829443,26.3509419 126.553085,26.2307995 126.204173,26.2307995 C125.840678,26.2307995 125.549737,26.3633918 125.331622,26.6281616 C125.113416,26.8931389 125.004449,27.2793998 125.004449,27.7874631 L125.004449,30.1714286 L124.342857,30.1714286 L124.342857,25.6737662 L125.004449,25.6737662 L125.004449,26.738759 C125.106079,26.3728331 125.286694,26.0914633 125.546023,25.8948572 C125.805261,25.6983549 126.104807,25.6 126.444118,25.6 C126.909515,25.6 127.285147,25.7679711 127.571016,26.1039133" id="Fill-23" fill="#E6E6E6" mask="url(#mask-2)"></path>
            <path d="M131.657143,29.5317273 L131.657143,30.1714286 L131.068687,30.1714286 C130.584362,30.1714286 130.222061,30.0647948 129.982971,29.8516286 C129.743233,29.6384623 129.62358,29.2812949 129.62358,28.7800252 L129.62358,26.4130191 L128.914286,26.4130191 L128.914286,25.7813179 L129.62358,25.7813179 L129.62358,24.6857143 L130.419866,24.6857143 L130.419866,25.7813179 L131.648411,25.7813179 L131.648411,26.4130191 L130.419866,26.4130191 L130.419866,28.7960253 C130.419866,29.0786604 130.476027,29.2718772 130.588674,29.3757767 C130.700997,29.4797775 130.895675,29.5317273 131.17271,29.5317273 L131.657143,29.5317273 Z" id="Fill-24" fill="#E6E6E6" mask="url(#mask-2)"></path>
            <path d="M135.458588,26.8585414 C135.353252,26.6365305 135.208692,26.4714877 135.025424,26.3633101 C134.842242,26.2550297 134.642788,26.2008381 134.427319,26.2008381 C134.083648,26.2008381 133.794958,26.3265997 133.561334,26.5783285 C133.327538,26.8301602 133.201477,27.199527 133.18315,27.6867374 L135.596125,27.6867374 C135.609741,27.3566518 135.56401,27.080655 135.458588,26.8585414 M136.201252,28.0439703 L133.18315,28.0439703 C133.196938,28.5529808 133.319574,28.9344816 133.550971,29.1890897 C133.782283,29.4434921 134.065321,29.5705905 134.4,29.5705905 C134.702478,29.5705905 134.955628,29.4799969 135.159621,29.2986041 C135.363614,29.1173141 135.488391,28.8750456 135.534379,28.5717988 L136.201252,28.5717988 C136.155264,28.8803928 136.053268,29.1564925 135.895263,29.4000977 C135.737002,29.6436001 135.531895,29.8332194 135.279859,29.9684413 C135.027908,30.1037662 134.743671,30.1714286 134.427319,30.1714286 C134.065321,30.1714286 133.744516,30.079601 133.465161,29.8954318 C133.185463,29.7113653 132.966569,29.4475025 132.80865,29.1037405 C132.650302,28.7599784 132.571429,28.3554436 132.571429,27.8898275 C132.571429,27.4242114 132.650302,27.0183398 132.80865,26.6718013 C132.966569,26.3252629 133.185463,26.0601661 133.465161,25.8759968 C133.744516,25.6920332 134.065321,25.6 134.427319,25.6 C134.794112,25.6 135.113633,25.6920332 135.386394,25.8759968 C135.659155,26.0601661 135.867602,26.3063421 136.012075,26.6148333 C136.156292,26.9234273 136.228571,27.2645158 136.228571,27.6380987 C136.228571,27.7951207 136.219237,27.9303427 136.201252,28.0439703" id="Fill-25" fill="#E6E6E6" mask="url(#mask-2)"></path>
            <path d="M138.20013,25.858026 C138.415675,25.6860087 138.672826,25.6 138.971429,25.6 L138.971429,26.4110131 L138.797257,26.4110131 C138.47789,26.4110131 138.21671,26.518913 138.013484,26.734609 C137.810412,26.9504088 137.708761,27.3068935 137.708761,27.8037519 L137.708761,30.1714286 L137.142857,30.1714286 L137.142857,25.6736624 L137.708761,25.6736624 L137.708761,26.5831342 C137.820795,26.2717807 137.984352,26.0300434 138.20013,25.858026" id="Fill-26" fill="#E6E6E6" mask="url(#mask-2)"></path>
            <path d="M141.376618,26.4273893 C141.140192,26.555719 140.956202,26.7398703 140.824546,26.9802402 C140.692787,27.2209082 140.626805,27.4981283 140.626805,27.8118012 C140.626805,28.1255735 140.692787,28.401403 140.824546,28.6391905 C140.956202,28.8771766 141.140192,29.0615265 141.376618,29.1921408 C141.612429,29.3228544 141.876254,29.3882112 142.16717,29.3882112 C142.633969,29.3882112 143.005951,29.2484589 143.283527,28.9686563 C143.560692,28.688953 143.699428,28.3032685 143.699428,27.8118012 C143.699428,27.320334 143.560692,26.9346494 143.283527,26.6548468 C143.005951,26.3751436 142.633969,26.2352919 142.16717,26.2352919 C141.876254,26.2352919 141.612429,26.2993575 141.376618,26.4273893 M143.452227,25.8665922 C143.765308,26.0444858 144.01097,26.3006487 144.189521,26.6352795 C144.36797,26.9700096 144.457143,27.3621504 144.457143,27.8118012 C144.457143,28.2615514 144.36797,28.6523016 144.189521,28.9843499 C144.01097,29.3163982 143.765308,29.5712698 143.452227,29.7490642 C143.139352,29.9269578 142.782249,30.0156563 142.381329,30.0156563 C141.942134,30.0156563 141.570152,29.9098737 141.26528,29.6981097 C140.960409,29.4862464 140.750355,29.2078344 140.635117,28.862675 L140.635117,32 L139.885714,32 L139.885714,25.6548282 L140.635117,25.6548282 L140.635117,26.7529813 C140.750355,26.407822 140.960409,26.1294099 141.26528,25.917646 C141.570152,25.7057827 141.942134,25.6 142.381329,25.6 C142.782249,25.6 143.139352,25.6888972 143.452227,25.8665922" id="Fill-27" fill="#E6E6E6" mask="url(#mask-2)"></path>
            <path d="M146.428701,25.858026 C146.644169,25.6860087 146.90132,25.6 147.2,25.6 L147.2,26.4110131 L147.025751,26.4110131 C146.706462,26.4110131 146.445281,26.518913 146.241978,26.734609 C146.038984,26.9504088 145.937332,27.3068935 145.937332,27.8037519 L145.937332,30.1714286 L145.371429,30.1714286 L145.371429,25.6736624 L145.937332,25.6736624 L145.937332,26.5831342 C146.049288,26.2717807 146.212923,26.0300434 146.428701,25.858026" id="Fill-28" fill="#E6E6E6" mask="url(#mask-2)"></path>
            <path d="M147.314902,30.1714286 L147.966998,30.1714286 L147.966998,26.2397294 L147.314902,26.2397294 L147.314902,30.1714286 Z M147.321866,24.7968125 C147.4032,24.7228075 147.510603,24.6857143 147.644343,24.6857143 C147.778083,24.6857143 147.885486,24.7228075 147.966998,24.7968125 C148.048064,24.8707269 148.088775,24.9674957 148.088775,25.0867563 C148.088775,25.2061076 148.048064,25.3028764 147.966998,25.3768815 C147.885486,25.4508865 147.778083,25.4877983 147.644343,25.4877983 C147.510603,25.4877983 147.4032,25.4508865 147.321866,25.3768815 C147.240711,25.3028764 147.2,25.2061076 147.2,25.0867563 C147.2,24.9674957 147.240711,24.8707269 147.321866,24.7968125 L147.321866,24.7968125 Z" id="Fill-29" fill="#E6E6E6" mask="url(#mask-2)"></path>
            <path d="M151.289054,25.9938405 C151.536168,26.2564693 151.686006,26.6095889 151.738486,27.053405 L151.167663,27.053405 C151.141423,26.7882054 151.05273,26.5702049 150.901912,26.3998149 C150.751093,26.2292193 150.54853,26.1440757 150.29504,26.1440757 C150.080542,26.1440757 149.913211,26.2077277 149.793047,26.3347233 C149.672719,26.4620273 149.612555,26.6340626 149.612555,26.8504177 C149.612555,27.0128898 149.652855,27.1441014 149.734027,27.2442582 C149.814872,27.3445179 149.9155,27.4203039 150.035664,27.4716162 C150.156156,27.5231343 150.321116,27.5786627 150.531282,27.6380987 C150.797933,27.7139875 151.013493,27.7910075 151.177473,27.8694671 C151.341534,27.9480295 151.481481,28.0738939 151.597476,28.2470603 C151.71339,28.4203296 151.771429,28.652932 151.771429,28.9453816 C151.771429,29.3081673 151.66091,29.6031877 151.440118,29.8305458 C151.219081,30.0579038 150.924964,30.1714286 150.55744,30.1714286 C150.128772,30.1714286 149.778823,30.0443302 149.507595,29.7899278 C149.236448,29.5355253 149.076719,29.1809661 149.028571,28.7261472 L149.606015,28.7261472 C149.627841,28.9968997 149.72291,29.2161341 149.891385,29.3838505 C150.059779,29.5516697 150.281879,29.6354765 150.55744,29.6354765 C150.762946,29.6354765 150.923737,29.5705905 151.039815,29.4407157 C151.155647,29.3107381 151.213685,29.1402453 151.213685,28.9291344 C151.213685,28.755968 151.171914,28.6179696 151.089025,28.5150364 C151.005809,28.412206 150.902893,28.3337464 150.780439,28.2795547 C150.658068,28.225466 150.48951,28.1686007 150.275258,28.1090619 C150.00828,28.0332759 149.795172,27.9574899 149.635443,27.8817039 C149.475632,27.8060207 149.340345,27.6854007 149.228764,27.520255 C149.117264,27.3552122 149.061433,27.1319674 149.061433,26.8504177 C149.061433,26.4769377 149.173014,26.1751305 149.396095,25.944996 C149.619176,25.7149644 149.923102,25.6 150.308201,25.6 C150.71488,25.6 151.041858,25.7312116 151.289054,25.9938405" id="Fill-30" fill="#E6E6E6" mask="url(#mask-2)"></path>
            <path d="M156.487245,26.8585414 C156.381823,26.6365305 156.237264,26.4714877 156.053996,26.3633101 C155.870813,26.2550297 155.671359,26.2008381 155.455976,26.2008381 C155.11222,26.2008381 154.823529,26.3265997 154.589905,26.5783285 C154.35611,26.8301602 154.230049,27.199527 154.211722,27.6867374 L156.624782,27.6867374 C156.638399,27.3566518 156.592581,27.080655 156.487245,26.8585414 M157.229824,28.0439703 L154.211722,28.0439703 C154.22551,28.5529808 154.348145,28.9344816 154.579543,29.1890897 C154.810855,29.4434921 155.093893,29.5705905 155.428657,29.5705905 C155.731135,29.5705905 155.9842,29.4799969 156.188192,29.2986041 C156.392185,29.1173141 156.516962,28.8750456 156.56295,28.5717988 L157.229824,28.5717988 C157.183836,28.8803928 157.081839,29.1564925 156.923835,29.4000977 C156.765573,29.6436001 156.560467,29.8332194 156.30843,29.9684413 C156.056479,30.1037662 155.772242,30.1714286 155.455976,30.1714286 C155.093893,30.1714286 154.773088,30.079601 154.493732,29.8954318 C154.214034,29.7113653 153.995226,29.4475025 153.837221,29.1037405 C153.678874,28.7599784 153.6,28.3554436 153.6,27.8898275 C153.6,27.4242114 153.678874,27.0183398 153.837221,26.6718013 C153.995226,26.3252629 154.214034,26.0601661 154.493732,25.8759968 C154.773088,25.6920332 155.093893,25.6 155.455976,25.6 C155.822684,25.6 156.142204,25.6920332 156.414965,25.8759968 C156.687727,26.0601661 156.896173,26.3063421 157.040732,26.6148333 C157.184863,26.9234273 157.257143,27.2645158 157.257143,27.6380987 C157.257143,27.7951207 157.247894,27.9303427 157.229824,28.0439703" id="Fill-31" fill="#E6E6E6" mask="url(#mask-2)"></path>
            <path d="M106.899996,16.5892572 C106.344615,17.190246 105.606796,17.4911785 104.685666,17.4911785 C103.753741,17.4911785 103.012908,17.190246 102.463555,16.5892572 C101.914105,15.9882684 101.639478,15.179421 101.639478,14.1628124 C101.639478,13.1355918 101.914105,12.3245052 102.463555,11.7287737 C103.012908,11.1330423 103.753741,10.8351279 104.685666,10.8351279 C105.61798,10.8351279 106.35891,11.1360604 106.908262,11.7370492 C107.457518,12.3380379 107.73234,13.1468853 107.73234,14.1628124 C107.73234,15.179421 107.4546,15.9882684 106.899996,16.5892572 M107.707153,8.99088185 C106.802554,8.48218811 105.795359,8.22857143 104.685666,8.22857143 C103.587058,8.22857143 102.585309,8.48218811 101.6811,8.99088185 C100.776502,9.49879672 100.060369,10.2041529 99.5334812,11.1052953 C99.0063012,12.0071193 98.7428571,13.0268433 98.7428571,14.1628124 C98.7428571,15.3002419 99.0063012,16.3214263 99.5334812,17.2285075 C100.060369,18.136465 100.776502,18.8439631 101.6811,19.3518779 C102.585309,19.8598902 103.587058,20.1142857 104.685666,20.1142857 C105.78437,20.1142857 106.786022,19.8598902 107.690718,19.3518779 C108.594927,18.8439631 109.31067,18.136465 109.83785,17.2285075 C110.365127,16.3214263 110.628571,15.3002419 110.628571,14.1628124 C110.628571,13.0268433 110.367753,12.0071193 109.846505,11.1052953 C109.324577,10.2041529 108.611848,9.49879672 107.707153,8.99088185" id="Fill-32" fill="#F2F2F2" mask="url(#mask-2)"></path>
            <polygon id="Fill-33" fill="#F2F2F2" mask="url(#mask-2)" points="142.632824 15.0253407 138.052703 8.22857143 135.314286 8.22857143 135.314286 19.2 138.052703 19.2 138.052703 12.4649751 142.632824 19.2 145.371429 19.2 145.371429 8.22857143 142.632824 8.22857143"></polygon>
            <path d="M151.523918,13.4620188 L151.523918,15.4920689 L154.973294,15.4920689 C154.771312,16.1742748 154.425096,16.7001194 153.935487,17.0688183 C153.445504,17.4375173 152.875942,17.6218178 152.226706,17.6218178 C151.21502,17.6218178 150.435359,17.3241921 149.88716,16.7303133 C149.338496,16.1357482 149.064583,15.2835545 149.064583,14.1713796 C149.064583,13.1477276 149.325248,12.3363154 149.84723,11.7364565 C150.368466,11.1365977 151.060898,10.8366193 151.923312,10.8366193 C152.476548,10.8366193 152.950391,10.9605319 153.344466,11.2083572 C153.738356,11.4561826 154.03102,11.7892959 154.22302,12.207109 L157.113376,12.207109 C156.889843,10.9854321 156.32028,10.0168743 155.404688,9.30143549 C154.48863,8.58678097 153.323195,8.22857143 151.907079,8.22857143 C150.778682,8.22857143 149.79116,8.47943575 148.944793,8.97959588 C148.098239,9.48044223 147.443685,10.1823526 146.980571,11.0844446 C146.517178,11.9873209 146.285714,13.0162665 146.285714,14.1713796 C146.285714,15.3273749 146.517178,16.3563205 146.980571,17.2584126 C147.443685,18.1612888 148.100851,18.8624149 148.952723,19.3632613 C149.804408,19.8642057 150.79986,20.1142857 151.939079,20.1142857 C152.875942,20.1142857 153.708968,19.9329262 154.438344,19.569521 C155.16744,19.2061157 155.766391,18.7332085 156.235102,18.1499171 C156.703627,17.5667237 157.043965,16.9343182 157.257143,16.2513281 L157.257143,13.4620188 L151.523918,13.4620188 Z" id="Fill-34" fill="#F2F2F2" mask="url(#mask-2)"></path>
            <polygon id="Fill-35" fill="#F2F2F2" mask="url(#mask-2)" points="130.742857 19.2 133.485714 19.2 133.485714 8.22857143 130.742857 9.78390099"></polygon>
            <polygon id="Fill-36" fill="#F2F2F2" mask="url(#mask-2)" points="114.285634 8.22857143 111.542857 9.8715709 111.542857 20.1142857 117.942857 20.1142857 117.942857 17.9698987 114.285634 17.9698987"></polygon>
            <path d="M125.301275,16.0033253 C124.716057,16.5516479 123.896199,16.825717 122.842254,16.825717 L121.561151,16.825717 L121.561151,10.5566847 L122.842254,10.5566847 C123.896199,10.5566847 124.716057,10.830846 125.301275,11.3790765 C125.886122,11.9273991 126.178684,12.6979997 126.178684,13.6908783 C126.178684,14.684402 125.886122,15.4550027 125.301275,16.0033253 M126.194389,8.91116396 C125.319381,8.45656305 124.281048,8.22857143 123.079297,8.22857143 L121.967338,8.22857143 L118.857143,10.0199736 L118.857143,19.2 L123.079297,19.2 C124.270332,19.2 125.306263,18.967032 126.186537,18.5018333 C127.06681,18.0359894 127.741357,17.3868492 128.210547,16.5544125 C128.679737,15.7213308 128.914286,14.7668808 128.914286,13.6908783 C128.914286,12.6148758 128.679737,11.6631905 128.210547,10.8358224 C127.741357,10.0083621 127.069397,9.36705505 126.194389,8.91116396" id="Fill-37" fill="#F2F2F2" mask="url(#mask-2)"></path>
            <path d="M66.6714249,16.5892572 C66.1160432,17.190246 65.3782247,17.4911785 64.4570942,17.4911785 C63.5251693,17.4911785 62.7843361,17.190246 62.2349837,16.5892572 C61.6855341,15.9882684 61.4109065,15.179421 61.4109065,14.1628124 C61.4109065,13.1355918 61.6855341,12.3245052 62.2349837,11.7287737 C62.7843361,11.1330423 63.5251693,10.8351279 64.4570942,10.8351279 C65.3894082,10.8351279 66.1303386,11.1360604 66.679691,11.7370492 C67.2289462,12.3380379 67.5037682,13.1468853 67.5037682,14.1628124 C67.5037682,15.179421 67.2260287,15.9882684 66.6714249,16.5892572 M67.4785811,8.99088185 C66.5739827,8.48218811 65.5666908,8.22857143 64.4570942,8.22857143 C63.3584867,8.22857143 62.3567379,8.48218811 61.4525285,8.99088185 C60.5479302,9.49879672 59.8317979,10.2041529 59.3049097,11.1052953 C58.7777298,12.0071193 58.5142857,13.0268433 58.5142857,14.1628124 C58.5142857,15.3002419 58.7777298,16.3214263 59.3049097,17.2285075 C59.8317979,18.136465 60.5479302,18.8439631 61.4525285,19.3518779 C62.3567379,19.8598902 63.3584867,20.1142857 64.4570942,20.1142857 C65.555799,20.1142857 66.5574506,19.8598902 67.4621462,19.3518779 C68.3663556,18.8439631 69.0820016,18.136465 69.6092787,17.2285075 C70.1365559,16.3214263 70.4,15.3002419 70.4,14.1628124 C70.4,13.0268433 70.1391816,12.0071193 69.6179338,11.1052953 C69.095908,10.2041529 68.3831794,9.49879672 67.4785811,8.99088185" id="Fill-38" fill="#F2F2F2" mask="url(#mask-2)"></path>
            <path d="M78.5571392,16.5892572 C78.0017575,17.190246 77.263939,17.4911785 76.3428085,17.4911785 C75.4108836,17.4911785 74.6700504,17.190246 74.120698,16.5892572 C73.5713456,15.9882684 73.2966208,15.179421 73.2966208,14.1628124 C73.2966208,13.1355918 73.5713456,12.3245052 74.120698,11.7287737 C74.6700504,11.1330423 75.4108836,10.8351279 76.3428085,10.8351279 C77.2751225,10.8351279 78.0160529,11.1360604 78.5654053,11.7370492 C79.1147577,12.3380379 79.3894825,13.1468853 79.3894825,14.1628124 C79.3894825,15.179421 79.111743,15.9882684 78.5571392,16.5892572 M79.3642954,8.99088185 C78.459697,8.48218811 77.4525023,8.22857143 76.3428085,8.22857143 C75.244201,8.22857143 74.2425494,8.48218811 73.3382428,8.99088185 C72.4336444,9.49879672 71.7175122,10.2041529 71.1907213,11.1052953 C70.6634441,12.0071193 70.4,13.0268433 70.4,14.1628124 C70.4,15.3002419 70.6634441,16.3214263 71.1907213,17.2285075 C71.7175122,18.136465 72.4336444,18.8439631 73.3382428,19.3518779 C74.2425494,19.8598902 75.244201,20.1142857 76.3428085,20.1142857 C77.4415133,20.1142857 78.4432621,19.8598902 79.3478605,19.3518779 C80.2520698,18.8439631 80.9678131,18.136465 81.4950903,17.2285075 C82.0222702,16.3214263 82.2857143,15.3002419 82.2857143,14.1628124 C82.2857143,13.0268433 82.0248959,12.0071193 81.5036481,11.1052953 C80.9817195,10.2041529 80.2689909,9.49879672 79.3642954,8.99088185" id="Fill-39" fill="#F2F2F2" mask="url(#mask-2)"></path>
            <polygon id="Fill-40" fill="#F2F2F2" mask="url(#mask-2)" points="94.9906014 8.89089926 94.9906014 12.9629623 90.6093986 12.9629623 90.6093986 7.31428571 87.7714286 8.89089926 87.7714286 19.2 90.6093986 19.2 90.6093986 14.8949624 94.9906014 14.8949624 94.9906014 19.2 97.8285714 19.2 97.8285714 7.31428571"></polygon>
            <path d="M56.8962614,10.8358927 C56.427164,10.0084393 55.7550188,9.36704548 54.8801031,8.91115823 C54.005095,8.45665329 52.9667619,8.22857143 51.7650114,8.22857143 L50.7409046,8.22857143 L50.7409046,10.5566652 L51.5279685,10.5566652 C52.5819135,10.5566652 53.4017717,10.830732 53.9868964,11.37905 C54.5718364,11.9272759 54.8643988,12.69787 54.8643988,13.6907403 C54.8643988,14.6843478 54.5718364,15.454942 53.9868964,16.0031678 C53.4017717,16.5513937 52.5819135,16.8255527 51.5279685,16.8255527 L50.246865,16.8255527 L50.246865,11.6429799 L47.5428571,10.0857568 L47.5428571,19.2 L51.7650114,19.2 C52.9561384,19.2 53.9919773,18.9669418 54.8722509,18.501747 C55.7525246,18.0359992 56.427164,17.3867723 56.8962614,16.5543426 C57.3654513,15.7211757 57.6,14.7668259 57.6,13.6907403 C57.6,12.614839 57.3654513,11.6630695 56.8962614,10.8358927" id="Fill-41" fill="#F2F2F2" mask="url(#mask-2)"></path>
            <polygon id="Fill-42" fill="#E03323" mask="url(#mask-2)" points="49.3714286 7.31428571 49.3714286 10.9714286 46.6285714 9.14290458"></polygon>
            <polygon id="Fill-43" fill="#E03323" mask="url(#mask-2)" points="41.1428571 24.6857143 41.1428571 29.2571429 37.4857143 26.9714783"></polygon>
            <path d="M11.6571429,20.4800305 L7.77142857,22.6743086 L7.77142857,9.50854471 L11.6571429,7.31426663 L11.6571429,20.4800305 Z M13.6,1.82857143 L0,9.50873554 L3.88571429,11.7028228 L3.88571429,24.8685867 L0,27.0628648 L3.88571429,29.2571429 L15.5428571,22.6743086 L15.5428571,2.92571047 L13.6,1.82857143 Z" id="Fill-44" fill="#E03323" mask="url(#mask-2)"></path>
            <path d="M24.6854389,19.6953622 L21.0285714,21.9047819 L21.0285714,8.64787925 L24.6859897,6.43836345 L24.6854389,19.6953622 Z M26.5142857,0.914285714 L17.3714286,6.43807522 L17.3714286,26.3238135 L19.2,27.4285714 L28.3428571,21.9047819 L28.3428571,2.01904362 L26.5142857,0.914285714 Z" id="Fill-45" fill="#E03323" mask="url(#mask-2)"></path>
            <path d="M37.4862651,18.7813247 L33.8288469,20.9903441 L33.8285714,7.73353749 L37.4862651,5.52374948 L37.4862651,18.7813247 Z M39.3142857,0 L30.1714286,5.52394162 L30.1714286,25.4095358 L32,26.5142857 L41.1428571,20.9905362 L41.1428571,1.10494204 L39.3142857,0 Z" id="Fill-46" fill="#E03323" mask="url(#mask-2)"></path>
        </g>
    </g>
</svg>