<?xml version="1.0" encoding="UTF-8"?>
<svg width="16px" height="16px" viewBox="0 0 16 16" version="1.1" xmlns="http://www.w3.org/2000/svg" xmlns:xlink="http://www.w3.org/1999/xlink">
    <!-- Generator: Sketch 59 (86127) - https://sketch.com -->
    <title>facebook</title>
    <desc>Created with Sketch.</desc>
    <defs>
        <path d="M6.40921432,11.9990128 L0.662443439,11.9990128 C0.29658603,11.9990128 0,11.7024512 0,11.3366239 L0,0.662388944 C0,0.296561632 0.29658603,0 0.662443439,0 L11.3375566,0 C11.703414,0 12,0.296561632 12,0.662388944 L12,11.3366239 C12,11.7024512 11.703414,11.9990128 11.3375566,11.9990128 L8.27708762,11.9990128 L8.27708762,7.35241856 L9.83693953,7.35241856 L10.0699301,5.54195459 L8.27708762,5.54195459 L8.27708762,4.38598223 C8.27708762,3.86179664 8.42221308,3.50444225 9.17350884,3.50444225 L10.1331139,3.50444225 L10.1331139,1.88450148 C9.66910304,1.8354001 9.20275671,1.81167277 8.73615796,1.81342547 C8.09367005,1.76677495 7.4634041,2.00640465 7.01422721,2.46811061 C6.56505032,2.92981657 6.34287908,3.56640141 6.40723982,4.20730503 L6.40723982,5.54294176 L4.84343891,5.54294176 L4.84343891,7.35340573 L6.40723982,7.35340573 L6.40723982,12 L6.40921432,11.9990128 Z" id="path-1"></path>
    </defs>
    <g id="facebook" stroke="none" stroke-width="1" fill="none" fill-rule="evenodd">
        <rect id="矩形" x="0" y="0" width="16" height="16"></rect>
        <g id="编组" transform="translate(2.000000, 2.000000)">
            <mask id="mask-2" fill="white">
                <use xlink:href="#path-1"></use>
            </mask>
            <g id="路径_3945"></g>
            <rect id="矩形" fill-opacity="0.6" fill="#FFFFFF" mask="url(#mask-2)" x="0" y="0" width="12" height="12"></rect>
        </g>
    </g>
</svg>