<?xml version="1.0" encoding="UTF-8"?>
<svg width="16px" height="16px" viewBox="0 0 16 16" version="1.1" xmlns="http://www.w3.org/2000/svg" xmlns:xlink="http://www.w3.org/1999/xlink">
    <!-- Generator: Sketch 59 (86127) - https://sketch.com -->
    <title>linkedIn</title>
    <desc>Created with Sketch.</desc>
    <g id="linkedIn" stroke="none" stroke-width="1" fill="none" fill-rule="evenodd">
        <rect id="矩形" x="0" y="0" width="16" height="16"></rect>
        <path d="M6.558,13.8115141 L8.947,13.8115141 L8.947,9.18651405 C8.93669522,8.9702435 8.97072568,8.7541501 9.047,8.55151405 C9.20432158,8.00508466 9.69851832,7.62431012 10.267,7.61151405 C11.131,7.61151405 11.487,8.32251405 11.487,9.33951405 L11.487,13.7865141 L13.876,13.7865141 L13.876,9.03451405 C13.876,6.67151405 12.707,5.57851405 11.132,5.57851405 C10.1772568,5.56388807 9.28306745,6.04485069 8.769,6.84951405 L8.718,6.84951405 L8.618,5.75651405 L6.534,5.75651405 C6.559,6.46751405 6.585,7.30651405 6.585,8.32251405 L6.585,13.8115141 L6.558,13.8115141 Z M3.458,2.30051405 C2.76322578,2.30051405 2.2,2.86373984 2.2,3.55851405 C2.2,4.25328827 2.76322578,4.81651405 3.458,4.81651405 C3.79886774,4.8362761 4.13259307,4.71334383 4.37918776,4.477182 C4.62578245,4.24102016 4.76301749,3.91291731 4.758,3.57151405 C4.76003756,3.22873605 4.62277088,2.89982928 4.37766752,2.66019361 C4.13256417,2.42055795 3.80064483,2.29074516 3.458,2.30051405 L3.458,2.30051405 Z M4.652,13.8115141 L4.652,5.78151405 L2.263,5.78151405 L2.263,13.8115141 L4.652,13.8115141 Z" id="路径_3602" fill="#FFFFFF" fill-rule="nonzero" opacity="0.6"></path>
    </g>
</svg>