<?xml version="1.0" encoding="UTF-8"?>
<svg width="16px" height="16px" viewBox="0 0 16 16" version="1.1" xmlns="http://www.w3.org/2000/svg" xmlns:xlink="http://www.w3.org/1999/xlink">
    <!-- Generator: Sketch 59 (86127) - https://sketch.com -->
    <title>twitter</title>
    <desc>Created with Sketch.</desc>
    <g id="twitter" stroke="none" stroke-width="1" fill="none" fill-rule="evenodd">
        <rect id="矩形" x="0" y="0" width="16" height="16"></rect>
        <path d="M4.595,4.981 C5.68096498,5.5552593 6.88767002,5.86370421 8.116,5.881 C7.77242679,4.68269097 8.30045965,3.40571355 9.39,2.8 C10.478943,2.25433124 11.7996929,2.52219582 12.59,3.449 C12.59,3.449 12.914,3.356 13.169,3.264 C13.424,3.172 13.769,3.009 13.769,3.009 L13.19,4.052 L14.09,3.959 C13.9500481,4.13442391 13.7951334,4.29736879 13.627,4.446 C13.279,4.77 13.117,4.956 13.117,4.956 C13.160885,6.56446113 12.734081,8.15072605 11.889,9.52 C10.665336,11.4942048 8.57458423,12.7675952 6.259,12.949 C4.81361974,13.1218184 3.35002535,12.8467618 2.066,12.161 C2.67874408,12.122478 3.28504358,12.0137668 3.873,11.837 C4.47298565,11.5553983 5.04660113,11.2207335 5.587,10.837 C4.88271251,10.6312293 4.21737399,10.3102178 3.618,9.887 C3.35095873,9.66146969 3.13050398,9.38598617 2.969,9.076 L4.405,9.053 C3.68927329,8.68353131 3.03952045,8.19832846 2.482,7.617 C2.23101449,7.24017393 2.06485255,6.81333906 1.995,6.366 L3.084,6.806 C2.60158936,6.14447758 2.24778346,5.39819476 2.041,4.606 C1.93713788,4.10695786 1.99384434,3.5878487 2.203,3.123 C2.8188605,3.94605244 3.64517419,4.58789644 4.595,4.981 L4.595,4.981 Z" id="路径_3604" fill="#FFFFFF" fill-rule="nonzero" opacity="0.6"></path>
    </g>
</svg>